<svg id="menu" xmlns="http://www.w3.org/2000/svg" viewBox="0 0 85.01 85.01"><defs><style>.cls-1{fill:#fcfcfc;stroke:#9f6c00;stroke-miterlimit:10;stroke-width:5px;}.cls-2{fill:#fff;}.cls-3{fill:#9fe8ff;}.cls-4{fill:#f7a61d;}.cls-5{fill:#9f6c00;}</style></defs><title>menu6</title><circle class="cls-1" cx="42.51" cy="42.51" r="40.01"/><path class="cls-2" d="M1124.91,1444.76a8,8,0,0,0,1.53.68,7.84,7.84,0,0,0,2.58.72c1.83,0,3.59.56,5.41,0.69s3.59,0.24,5.36.24c3.59,0,7.14-.07,10.71-0.34,3.9-.29,9.3.36,11.66-3.58a10.85,10.85,0,0,0,1.14-6.13,27.91,27.91,0,0,0-1.27-5.88,11,11,0,0,1-.61-2.57,7.12,7.12,0,0,0-.84-3.16,7.83,7.83,0,0,0-1.23-2.33,14.68,14.68,0,0,0-1.47-2.08,2.66,2.66,0,0,1-1.12-1.36,9.14,9.14,0,0,0-2-2.46,16.15,16.15,0,0,0-1.54-1.67c-0.26-.21-0.51-0.28-0.73-0.47a15.81,15.81,0,0,0-3-.42c-3.1.19-6.21,0-9.32,0.14-1.6.08-3.23,0-4.83,0.12-1,.07-2,0.09-3,0.21a0.51,0.51,0,0,1-.24.27c-0.74.41-1.29,1.57-1.92,2.13a10.33,10.33,0,0,0-2,2.75c-0.69,1.17-1.31,2.37-2,3.56a15.8,15.8,0,0,0-1.53,3.26,25,25,0,0,0-.77,3.16c-0.13.87-.06,1.81-0.24,2.66-0.38,1.78,0,3.69-.17,5.51-0.15,2-.33,3.63.69,5.44A1.48,1.48,0,0,0,1124.91,1444.76Z" transform="translate(-1101.95 -1380.14)"/><path class="cls-3" d="M1131.43,1410.39l0.3-.05a12.21,12.21,0,0,0,2.2-.29c0.52-.16,1.05,0,1.56-0.2a5.85,5.85,0,0,1,1.72-.11c0.77,0,1.54-.15,2.31-0.17,1.61,0,3.23,0,4.85,0,2.78,0,5.54.19,8.3,0.39l0.24,0a0.52,0.52,0,0,1,.2-0.16c1.41-.67-2-2-2.29-2a12.17,12.17,0,0,0-2.93-.44c-2,0-3.9.2-5.87,0.19h-3.51c-1,0-2,.18-3,0.18a13.39,13.39,0,0,0-3.1.26c-0.35.09-1.7,0.46-1.65,1A1.6,1.6,0,0,0,1131.43,1410.39Z" transform="translate(-1101.95 -1380.14)"/><path class="cls-4" d="M1136.83,1413.8c2.25,0,4.49-.18,6.74-0.18s4.58-.15,6.85-0.06c0.45,0,1.37.41,2.12,0.49a0.54,0.54,0,0,1,.44,0,0.67,0.67,0,0,0,.56-0.37c0.61-1.29.48-2.49-1.18-2.65-1.95-.18-4-0.37-5.92-0.37-2.44,0-5-.19-7.4,0a16.4,16.4,0,0,0-3.27.21,14,14,0,0,1-2.51.41c-1,.13-2.63,0-2.93,1.31-0.22,1,.45,1.23,1.22,1.48A32.33,32.33,0,0,1,1136.83,1413.8Z" transform="translate(-1101.95 -1380.14)"/><path class="cls-2" d="M1132.07,1406.26c0.16,0.13.65,0.32,0.32,0.32a0.51,0.51,0,0,1,.4.18,48.27,48.27,0,0,1,9.22-.36c3.15,0,6.4-.65,9.45.4a11.74,11.74,0,0,1,1.49.58,0.56,0.56,0,0,1,.25-0.05c-0.64,0,.7-1,0.83-1,1-.58,2.13-0.92,3.07-1.56s1.83-1.65.8-2.66a2.54,2.54,0,0,0-1.74-.7,2.75,2.75,0,0,1-1.7-.68,10.22,10.22,0,0,1-1.06-1.82c-1-1.31-2.87-.8-4.18-0.35-0.77.27-1.47,1-2.31,1.12a5.43,5.43,0,0,1-2.48-.32,12.19,12.19,0,0,1-1.83-1.3,5.06,5.06,0,0,0-3.57-.53c-1.83.54-3,2.4-4.8,2.85-1.39.34-6.12-1.49-5.16,1.63a9.2,9.2,0,0,0,1.77,2.77A7.31,7.31,0,0,0,1132.07,1406.26Z" transform="translate(-1101.95 -1380.14)"/><path class="cls-5" d="M1126.13,1443.55a11.85,11.85,0,0,0-.9,1.66c-0.08.16,0.16,0.3,0.24,0.14s0.32-.53.43-0.8a4.11,4.11,0,0,1,.47-0.87C1126.47,1443.55,1126.23,1443.41,1126.13,1443.55Z" transform="translate(-1101.95 -1380.14)"/><path class="cls-5" d="M1129.23,1444.28a3,3,0,0,1-.66.89c-0.22.25-.39,0.54-0.62,0.78a0.14,0.14,0,0,0,.2.2c0.28-.3.49-0.64,0.77-0.95a2.75,2.75,0,0,0,.58-0.85C1129.57,1444.19,1129.3,1444.12,1129.23,1444.28Z" transform="translate(-1101.95 -1380.14)"/><path class="cls-5" d="M1132.25,1444.78a2.06,2.06,0,0,0-.47.86c-0.19.44-.51,0.82-0.73,1.25-0.08.16,0.16,0.3,0.24,0.14,0.18-.35.42-0.67,0.62-1a3.66,3.66,0,0,1,.54-1C1132.59,1444.86,1132.39,1444.67,1132.25,1444.78Z" transform="translate(-1101.95 -1380.14)"/><path class="cls-5" d="M1135.33,1445.36a0.87,0.87,0,0,1-.19.35,3.07,3.07,0,0,0-.2.4,3.07,3.07,0,0,1-.62.89,0.14,0.14,0,0,0,.2.2,3.4,3.4,0,0,0,.66-0.95,3.33,3.33,0,0,0,.42-0.88C1135.63,1445.18,1135.35,1445.18,1135.33,1445.36Z" transform="translate(-1101.95 -1380.14)"/><path class="cls-5" d="M1139.81,1445.26a5.17,5.17,0,0,0-.65.83c-0.2.31-.44,0.61-0.62,0.93a0.14,0.14,0,0,0,.24.14c0.16-.29.39-0.54,0.55-0.83a4.14,4.14,0,0,1,.67-0.87A0.14,0.14,0,0,0,1139.81,1445.26Z" transform="translate(-1101.95 -1380.14)"/><path class="cls-5" d="M1143,1445.57a9.43,9.43,0,0,1-1,1.66c-0.1.15,0.14,0.29,0.24,0.14a9.4,9.4,0,0,0,1-1.66C1143.36,1445.54,1143.12,1445.4,1143,1445.57Z" transform="translate(-1101.95 -1380.14)"/><path class="cls-5" d="M1147.12,1445.5a3.56,3.56,0,0,1-1.14,1.71c-0.11.14,0.08,0.33,0.2,0.2a3.77,3.77,0,0,0,1.22-1.9C1147.41,1445.32,1147.13,1445.32,1147.12,1445.5Z" transform="translate(-1101.95 -1380.14)"/><path class="cls-5" d="M1151.22,1445a7.81,7.81,0,0,1-.55,1.21,4.53,4.53,0,0,0-.56,1.08,0.14,0.14,0,0,0,.27.07,5,5,0,0,1,.61-1.15,7.29,7.29,0,0,0,.5-1.14C1151.55,1444.88,1151.28,1444.81,1151.22,1445Z" transform="translate(-1101.95 -1380.14)"/><path class="cls-5" d="M1154.82,1444.87a3.52,3.52,0,0,1-.74,1.87c-0.1.15,0.14,0.29,0.24,0.14a3.74,3.74,0,0,0,.78-2A0.14,0.14,0,0,0,1154.82,1444.87Z" transform="translate(-1101.95 -1380.14)"/><path class="cls-5" d="M1157.8,1444.53a3.29,3.29,0,0,1-.47,1.53,0.14,0.14,0,0,0,.24.14,3.59,3.59,0,0,0,.5-1.67A0.14,0.14,0,0,0,1157.8,1444.53Z" transform="translate(-1101.95 -1380.14)"/><path class="cls-5" d="M1160.79,1443.73a6.22,6.22,0,0,1-.54,1.15,0.14,0.14,0,0,0,.24.14,6.57,6.57,0,0,0,.57-1.21C1161.12,1443.63,1160.85,1443.56,1160.79,1443.73Z" transform="translate(-1101.95 -1380.14)"/><path class="cls-5" d="M1130.78,1421.81c0.21,0.18.33,0.44,0.51,0.63a2.27,2.27,0,0,0,.57.44c0.16,0.08.27-.17,0.11-0.25a5.88,5.88,0,0,1-1-1A0.14,0.14,0,0,0,1130.78,1421.81Z" transform="translate(-1101.95 -1380.14)"/><path class="cls-5" d="M1131.93,1423.22h0a0.44,0.44,0,0,1-.21-0.05,2.6,2.6,0,0,1-.65-0.51,2.7,2.7,0,0,1-.25-0.32,1.64,1.64,0,0,0-.24-0.3,0.45,0.45,0,0,1-.13-0.5,0.46,0.46,0,0,1,.42-0.3,0.44,0.44,0,0,1,.29.11,3.18,3.18,0,0,1,.43.48,1.7,1.7,0,0,0,.53.52,0.45,0.45,0,0,1,.23.52A0.44,0.44,0,0,1,1131.93,1423.22Z" transform="translate(-1101.95 -1380.14)"/><path class="cls-5" d="M1132.23,1419.77a2.89,2.89,0,0,0,.52.43,6.92,6.92,0,0,1,.58.6c0.13,0.12.31-.1,0.17-0.22l-0.21-.19c-0.09-.09-0.16-0.23-0.26-0.31a5.35,5.35,0,0,1-.59-0.47C1132.34,1419.48,1132.11,1419.64,1132.23,1419.77Z" transform="translate(-1101.95 -1380.14)"/><path class="cls-5" d="M1133.42,1421.14h0a0.44,0.44,0,0,1-.29-0.12,3,3,0,0,1-.27-0.28,1.74,1.74,0,0,0-.29-0.29,3.16,3.16,0,0,1-.58-0.47,0.42,0.42,0,0,1-.08-0.46,0.47,0.47,0,0,1,.43-0.28,0.45,0.45,0,0,1,.34.15,1.91,1.91,0,0,0,.31.25l0.25,0.18a1.11,1.11,0,0,1,.19.22l0.08,0.1,0.2,0.19a0.45,0.45,0,0,1,.12.5A0.46,0.46,0,0,1,1133.42,1421.14Z" transform="translate(-1101.95 -1380.14)"/><path class="cls-5" d="M1133.36,1418.31l1.17,1a0.14,0.14,0,0,0,.17-0.22l-1.17-1A0.14,0.14,0,0,0,1133.36,1418.31Z" transform="translate(-1101.95 -1380.14)"/><path class="cls-5" d="M1134.61,1419.62h0a0.44,0.44,0,0,1-.28-0.1l-1.17-1a0.44,0.44,0,0,1-.14-0.5,0.46,0.46,0,0,1,.43-0.31,0.44,0.44,0,0,1,.28.1l1.17,1a0.44,0.44,0,0,1,.14.5A0.46,0.46,0,0,1,1134.61,1419.62Z" transform="translate(-1101.95 -1380.14)"/><path class="cls-5" d="M1152.05,1417.25c-0.48.44-1.1,0.62-1.59,1.05a0.14,0.14,0,0,0,.19.2c0.48-.43,1.11-0.61,1.59-1.05A0.14,0.14,0,0,0,1152.05,1417.25Z" transform="translate(-1101.95 -1380.14)"/><path class="cls-5" d="M1150.57,1418.86h0a0.47,0.47,0,0,1-.43-0.3,0.43,0.43,0,0,1,.12-0.48,4.42,4.42,0,0,1,.83-0.55,3.7,3.7,0,0,0,.75-0.5,0.45,0.45,0,0,1,.3-0.12,0.47,0.47,0,0,1,.43.3,0.43,0.43,0,0,1-.11.48,4.24,4.24,0,0,1-.88.59,3.86,3.86,0,0,0-.72.47A0.45,0.45,0,0,1,1150.57,1418.86Z" transform="translate(-1101.95 -1380.14)"/><path class="cls-5" d="M1153.51,1419.34a14.61,14.61,0,0,1-1.55.73c-0.15.1,0,.34,0.13,0.24a14.83,14.83,0,0,0,1.61-.78C1153.83,1419.42,1153.64,1419.22,1153.51,1419.34Z" transform="translate(-1101.95 -1380.14)"/><path class="cls-5" d="M1152,1420.66h0a0.44,0.44,0,0,1-.42-0.32,0.46,0.46,0,0,1,.18-0.52,3.15,3.15,0,0,1,.79-0.36,2.14,2.14,0,0,0,.73-0.35,0.45,0.45,0,0,1,.3-0.11,0.47,0.47,0,0,1,.43.3,0.43,0.43,0,0,1-.12.48,2.81,2.81,0,0,1-1,.5,2.84,2.84,0,0,0-.67.3A0.44,0.44,0,0,1,1152,1420.66Z" transform="translate(-1101.95 -1380.14)"/><path class="cls-5" d="M1154.18,1421.41l0.34-.33a0.14,0.14,0,0,0-.19-0.2l-0.47.46a3.37,3.37,0,0,1-.69.38,0.14,0.14,0,0,0,.13.24c0.21-.12.42-0.23,0.64-0.33A1.17,1.17,0,0,0,1154.18,1421.41Z" transform="translate(-1101.95 -1380.14)"/><path class="cls-5" d="M1153.23,1422.29h0a0.45,0.45,0,0,1-.43-0.35,0.44,0.44,0,0,1,.21-0.5l0.26-.13a1.43,1.43,0,0,0,.36-0.2l0.47-.46a0.44,0.44,0,0,1,.31-0.13,0.47,0.47,0,0,1,.43.29,0.44,0.44,0,0,1-.1.49l-0.34.33-0.05.05a0.89,0.89,0,0,1-.27.23l-0.62.32A0.45,0.45,0,0,1,1153.23,1422.29Z" transform="translate(-1101.95 -1380.14)"/><path class="cls-5" d="M1156,1440c-0.5-.42-0.75-1-1.23-1.45-0.13-.12-0.31.1-0.17,0.22,0.48,0.42.73,1,1.23,1.45A0.14,0.14,0,0,0,1156,1440Z" transform="translate(-1101.95 -1380.14)"/><path class="cls-5" d="M1155.91,1440.61h0a0.44,0.44,0,0,1-.28-0.11,4.22,4.22,0,0,1-.69-0.8,3.84,3.84,0,0,0-.55-0.65,0.45,0.45,0,0,1-.12-0.5,0.46,0.46,0,0,1,.42-0.3,0.44,0.44,0,0,1,.29.11,4.39,4.39,0,0,1,.64.76,3.67,3.67,0,0,0,.58.68,0.44,0.44,0,0,1,.13.5A0.46,0.46,0,0,1,1155.91,1440.61Z" transform="translate(-1101.95 -1380.14)"/><path class="cls-5" d="M1154.11,1441.75a14.54,14.54,0,0,1-.91-1.45c-0.12-.13-0.34,0-0.23.16a14.77,14.77,0,0,0,1,1.51C1154.06,1442.09,1154.24,1441.87,1154.11,1441.75Z" transform="translate(-1101.95 -1380.14)"/><path class="cls-5" d="M1154,1442.32h0a0.44,0.44,0,0,1-.29-0.11,2.8,2.8,0,0,1-.61-0.91,2.82,2.82,0,0,0-.38-0.63,0.43,0.43,0,0,1-.07-0.46,0.48,0.48,0,0,1,.43-0.27,0.45,0.45,0,0,1,.34.16,3.14,3.14,0,0,1,.45.75,2.13,2.13,0,0,0,.43.68,0.45,0.45,0,0,1,.12.5A0.46,0.46,0,0,1,1154,1442.32Z" transform="translate(-1101.95 -1380.14)"/><path class="cls-5" d="M1152.14,1442.68l0.37,0.3a0.14,0.14,0,0,0,.17-0.22l-0.51-.42a3.35,3.35,0,0,1-.46-0.64,0.14,0.14,0,0,0-.23.16c0.14,0.19.28,0.39,0.4,0.6A1.16,1.16,0,0,0,1152.14,1442.68Z" transform="translate(-1101.95 -1380.14)"/><path class="cls-5" d="M1152.59,1443.32h0a0.44,0.44,0,0,1-.28-0.1l-0.37-.3-0.06,0a0.89,0.89,0,0,1-.26-0.24c-0.15-.23-0.27-0.42-0.39-0.58a0.44,0.44,0,0,1,0-.46,0.47,0.47,0,0,1,.41-0.26,0.44,0.44,0,0,1,.36.18c0.06,0.08.11,0.16,0.16,0.24a1.43,1.43,0,0,0,.24.33l0.51,0.42a0.44,0.44,0,0,1,.14.49A0.46,0.46,0,0,1,1152.59,1443.32Z" transform="translate(-1101.95 -1380.14)"/><path class="cls-5" d="M1132,1442.63c0.51-.4,1.15-0.52,1.67-0.91,0.14-.11,0-0.32-0.18-0.22-0.51.38-1.16,0.51-1.67,0.91A0.14,0.14,0,0,0,1132,1442.63Z" transform="translate(-1101.95 -1380.14)"/><path class="cls-5" d="M1132,1443h0a0.47,0.47,0,0,1-.43-0.32,0.44,0.44,0,0,1,.15-0.49,4.21,4.21,0,0,1,.92-0.51,3.84,3.84,0,0,0,.75-0.4,0.45,0.45,0,0,1,.27-0.09,0.47,0.47,0,0,1,.44.32,0.43,0.43,0,0,1-.16.49,4.39,4.39,0,0,1-.87.47,3.67,3.67,0,0,0-.79.43A0.44,0.44,0,0,1,1132,1443Z" transform="translate(-1101.95 -1380.14)"/><path class="cls-5" d="M1130.76,1440.42a14.55,14.55,0,0,1,1.61-.6c0.15-.09,0-0.34-0.12-0.25a14.77,14.77,0,0,0-1.67.64C1130.43,1440.31,1130.61,1440.53,1130.76,1440.42Z" transform="translate(-1101.95 -1380.14)"/><path class="cls-5" d="M1130.67,1440.77h0a0.47,0.47,0,0,1-.44-0.32,0.43,0.43,0,0,1,.16-0.49,2.8,2.8,0,0,1,1-.41,2.82,2.82,0,0,0,.69-0.24,0.43,0.43,0,0,1,.64.28,0.46,0.46,0,0,1-.22.52,3.14,3.14,0,0,1-.82.29,2.13,2.13,0,0,0-.76.29A0.45,0.45,0,0,1,1130.67,1440.77Z" transform="translate(-1101.95 -1380.14)"/><path class="cls-5" d="M1130.25,1438.31l-0.36.3a0.14,0.14,0,0,0,.18.22l0.51-.42a3.35,3.35,0,0,1,.71-0.32,0.14,0.14,0,0,0-.12-0.25c-0.22.1-.44,0.19-0.67,0.27A1.16,1.16,0,0,0,1130.25,1438.31Z" transform="translate(-1101.95 -1380.14)"/><path class="cls-5" d="M1130,1439.17h0a0.46,0.46,0,0,1-.43-0.31,0.44,0.44,0,0,1,.14-0.49l0.36-.3,0.05,0a0.89,0.89,0,0,1,.29-0.2l0.65-.27a0.45,0.45,0,0,1,.19,0,0.46,0.46,0,0,1,.44.36,0.44,0.44,0,0,1-.25.5l-0.27.1a1.42,1.42,0,0,0-.38.17l-0.51.42A0.44,0.44,0,0,1,1130,1439.17Z" transform="translate(-1101.95 -1380.14)"/><path class="cls-5" d="M1132.72,1412.69a5.47,5.47,0,0,0-.31.76,9.16,9.16,0,0,1-.38.9,0.14,0.14,0,0,0,.24.14c0.17-.28.24-0.61,0.38-0.9a6.58,6.58,0,0,1,.31-0.76C1133.05,1412.68,1132.81,1412.54,1132.72,1412.69Z" transform="translate(-1101.95 -1380.14)"/><path class="cls-5" d="M1135.56,1412.69c-0.22.44-.43,0.87-0.62,1.32-0.07.16,0.17,0.3,0.24,0.14,0.19-.45.41-0.88,0.62-1.32C1135.88,1412.67,1135.64,1412.53,1135.56,1412.69Z" transform="translate(-1101.95 -1380.14)"/><path class="cls-5" d="M1138.25,1412.65a3.81,3.81,0,0,1-.45.66l-0.44.63c-0.1.15,0.14,0.29,0.24,0.14l0.49-.69a3.63,3.63,0,0,0,.43-0.66C1138.58,1412.56,1138.32,1412.49,1138.25,1412.65Z" transform="translate(-1101.95 -1380.14)"/><path class="cls-5" d="M1141.16,1412.65a2,2,0,0,1-.49.59,6.18,6.18,0,0,0-.47.63c-0.1.15,0.14,0.29,0.24,0.14a4.39,4.39,0,0,1,.55-0.71,1.49,1.49,0,0,0,.43-0.57A0.14,0.14,0,0,0,1141.16,1412.65Z" transform="translate(-1101.95 -1380.14)"/><path class="cls-5" d="M1144,1412.48c-0.27.51-.72,0.91-1,1.39-0.1.15,0.14,0.29,0.24,0.14,0.32-.48.77-0.88,1-1.39A0.14,0.14,0,0,0,1144,1412.48Z" transform="translate(-1101.95 -1380.14)"/><path class="cls-5" d="M1146.36,1412.48a1.7,1.7,0,0,1-.27.67c-0.12.25-.28,0.48-0.4,0.72a0.14,0.14,0,0,0,.24.14c0.14-.27.31-0.53,0.45-0.81a1.68,1.68,0,0,0,.27-0.72A0.14,0.14,0,0,0,1146.36,1412.48Z" transform="translate(-1101.95 -1380.14)"/><path class="cls-5" d="M1149.9,1412.22a3,3,0,0,0-1.17,1.68,0.14,0.14,0,0,0,.27.07,2.73,2.73,0,0,1,1-1.51C1150.18,1412.36,1150,1412.12,1149.9,1412.22Z" transform="translate(-1101.95 -1380.14)"/><path class="cls-5" d="M1152,1412.2a1.18,1.18,0,0,1-.26.25,0.87,0.87,0,0,0-.13.23,1.14,1.14,0,0,1-.22.25,2.36,2.36,0,0,0-.51.73c-0.07.16,0.17,0.3,0.24,0.14a2.6,2.6,0,0,1,.6-0.8c0.11-.11.14-0.29,0.25-0.38a1.21,1.21,0,0,0,.26-0.27A0.14,0.14,0,0,0,1152,1412.2Z" transform="translate(-1101.95 -1380.14)"/><path class="cls-5" d="M1133,1409a4.13,4.13,0,0,1-.67,1.53,0.14,0.14,0,0,0,.24.14,4.41,4.41,0,0,0,.71-1.67C1133.26,1408.84,1133,1408.84,1133,1409Z" transform="translate(-1101.95 -1380.14)"/><path class="cls-5" d="M1136.32,1408.6c-0.22.44-.43,0.87-0.62,1.32-0.07.16,0.17,0.3,0.24,0.14,0.19-.45.41-0.88,0.62-1.32C1136.64,1408.58,1136.4,1408.44,1136.32,1408.6Z" transform="translate(-1101.95 -1380.14)"/><path class="cls-5" d="M1139,1408.67c-0.29.53-.69,1-1,1.53a0.14,0.14,0,0,0,.24.14c0.28-.53.68-1,1-1.53A0.14,0.14,0,0,0,1139,1408.67Z" transform="translate(-1101.95 -1380.14)"/><path class="cls-5" d="M1141.92,1408.67a3.14,3.14,0,0,1-.74,1.39c-0.11.14,0.13,0.28,0.24,0.14a3.26,3.26,0,0,0,.78-1.53C1142.21,1408.49,1141.93,1408.49,1141.92,1408.67Z" transform="translate(-1101.95 -1380.14)"/><path class="cls-5" d="M1145.25,1408.6a7,7,0,0,1-.69,1.49,0.14,0.14,0,0,0,.27.07,5.33,5.33,0,0,1,.45-0.8,1.85,1.85,0,0,0,.25-0.76A0.14,0.14,0,0,0,1145.25,1408.6Z" transform="translate(-1101.95 -1380.14)"/><path class="cls-5" d="M1147.84,1408.32c-0.23.44-.49,0.86-0.69,1.32-0.07.16,0.17,0.3,0.24,0.14,0.2-.46.47-0.87,0.69-1.32C1148.16,1408.3,1147.92,1408.16,1147.84,1408.32Z" transform="translate(-1101.95 -1380.14)"/><path class="cls-5" d="M1150,1408.67c-0.21.47-.48,0.91-0.69,1.39-0.07.16,0.17,0.3,0.24,0.14,0.21-.47.48-0.91,0.69-1.39C1150.3,1408.64,1150.06,1408.5,1150,1408.67Z" transform="translate(-1101.95 -1380.14)"/><path class="cls-5" d="M1164.42,1437a15.5,15.5,0,0,0-.43-3.36c-0.34-1.26-.83-2.47-1.09-3.76a8,8,0,0,1-.35-1.75,5.2,5.2,0,0,0-.14-1.47,7.55,7.55,0,0,0-.63-1.4,13.56,13.56,0,0,0-.78-2c-0.67-.88-1.27-1.78-1.94-2.65a3.06,3.06,0,0,0-.71-0.69,5.19,5.19,0,0,1-.94-1.46,28,28,0,0,0-2.16-2.4c-0.34-.37-0.7-0.7-1-1.09s-0.86-.52-1-0.77a0.56,0.56,0,0,0-1,.56,2.78,2.78,0,0,0,.94.72,16.15,16.15,0,0,1,1.54,1.67,9.14,9.14,0,0,1,2,2.46,2.66,2.66,0,0,0,1.12,1.36,14.68,14.68,0,0,1,1.47,2.08,7.83,7.83,0,0,1,1.23,2.33,7.12,7.12,0,0,1,.84,3.16,11,11,0,0,0,.61,2.57,27.91,27.91,0,0,1,1.27,5.88,10.85,10.85,0,0,1-1.14,6.13c-2.36,3.94-7.77,3.29-11.66,3.58-3.57.27-7.12,0.34-10.71,0.34-1.77,0-3.6-.12-5.36-0.24s-3.58-.68-5.41-0.69a7.84,7.84,0,0,1-2.58-.72,8,8,0,0,1-1.53-.68,1.48,1.48,0,0,1-.73-0.91c-1-1.81-.84-3.48-0.69-5.44,0.14-1.81-.22-3.72.17-5.51,0.18-.85.12-1.79,0.24-2.66a25,25,0,0,1,.77-3.16,15.8,15.8,0,0,1,1.53-3.26c0.66-1.19,1.28-2.39,2-3.56a10.33,10.33,0,0,1,2-2.75c0.63-.56,1.18-1.72,1.92-2.13a0.56,0.56,0,0,0-.56-1,5.2,5.2,0,0,0-1.13,1.2,21.56,21.56,0,0,1-1.7,1.71c-1.44,1.25-2,3.55-3,5.1a18,18,0,0,0-2.26,4.8,23.68,23.68,0,0,0-.64,2.71c-0.15,1-.1,2-0.31,3a25.22,25.22,0,0,0-.11,5.12c0,1.58-.36,3,0,4.63,0.25,1.06.87,2.58,1.92,3.06a12.68,12.68,0,0,0,4.67,1.55c1.66,0.08,3.29.45,4.95,0.64,1.9,0.22,3.91.26,5.83,0.29s3.95,0,5.92,0c0.76,0,1.51-.18,2.27-0.18a12.89,12.89,0,0,0,2.31-.11c0.91-.16,1.87.08,2.77-0.14a20.33,20.33,0,0,1,3-.17,13.11,13.11,0,0,0,5.1-1.69,6.85,6.85,0,0,0,2.62-3.56A14.31,14.31,0,0,0,1164.42,1437Z" transform="translate(-1101.95 -1380.14)"/><path class="cls-5" d="M1152.66,1409.94c-2.76-.21-5.52-0.39-8.3-0.39-1.61,0-3.23,0-4.85,0-0.77,0-1.54.15-2.31,0.17a5.85,5.85,0,0,0-1.72.11c-0.51.17-1,0-1.56,0.2a12.21,12.21,0,0,1-2.2.29,3.13,3.13,0,0,0-2.17,1.32,2.45,2.45,0,0,0-.21,2.36,3,3,0,0,0,1.51,1,0.54,0.54,0,0,0,.37.23,0.58,0.58,0,0,0,.93-0.13c1-.14,2.16-0.16,3.19-0.23,1.6-.11,3.23,0,4.83-0.12,3.1-.15,6.22.05,9.32-0.14,1.37-.08,2.6.59,4,0.44,0.79-.09,1.12-1,1.36-1.65A2.42,2.42,0,0,0,1152.66,1409.94Zm0.89,3.73c-0.43.91-2.39-.09-3.12-0.12-2.27-.09-4.58.06-6.85,0.06s-4.49.17-6.74,0.18a32.33,32.33,0,0,0-5.27.31c-0.77-.25-1.44-0.48-1.22-1.48,0.3-1.34,1.9-1.18,2.93-1.31a14,14,0,0,0,2.51-.41,16.4,16.4,0,0,1,3.27-.21c2.43-.23,5,0,7.4,0,2,0,4,.19,5.92.37C1154,1411.18,1154.15,1412.39,1153.55,1413.67Z" transform="translate(-1101.95 -1380.14)"/><path class="cls-5" d="M1154.33,1408.71c-0.54-1.16-1.73-1.52-2.86-1.91-3-1-6.3-.35-9.45-0.4-3.34,0-7-.23-10.29.59a2.53,2.53,0,0,0-2,2,2.42,2.42,0,0,0,1.46,2.52c0.67,0.25,1-.82.29-1.07a1.59,1.59,0,0,1-.64-1.45c-0.06-.52,1.3-0.9,1.65-1a13.39,13.39,0,0,1,3.1-.26c1,0,2-.18,3-0.18H1142c2,0,3.91-.19,5.87-0.19a12.17,12.17,0,0,1,2.93.44c0.24,0.06,3.71,1.38,2.29,2-0.65.31-.08,1.26,0.56,1A1.57,1.57,0,0,0,1154.33,1408.71Z" transform="translate(-1101.95 -1380.14)"/><path class="cls-5" d="M1158.95,1401.62c-0.87-1.06-1.75-1.17-3-1.39s-1.43-1.84-2.16-2.61-2.18-.69-3.2-0.61a7.23,7.23,0,0,0-3.24,1.28c-1.52,1-3-.36-4.18-1.22-1.71-1.31-4.35-.83-6.08.08-1.13.59-1.94,1.65-3.14,2.12s-2.68-.59-4-0.31c-2.12.45-2.53,2.48-1.62,4.27a26.82,26.82,0,0,0,2.36,3.27,2.92,2.92,0,0,0,1.68,1.2,0.56,0.56,0,0,0,0-1.11c0.33,0-.16-0.19-0.32-0.32a7.31,7.31,0,0,1-1.23-1.53,9.2,9.2,0,0,1-1.77-2.77c-1-3.12,3.77-1.29,5.16-1.63,1.8-.44,3-2.31,4.8-2.85a5.06,5.06,0,0,1,3.57.53,12.17,12.17,0,0,0,1.83,1.3,5.43,5.43,0,0,0,2.48.32c0.84-.07,1.54-0.85,2.31-1.12,1.31-.45,3.21-1,4.18.35a10.22,10.22,0,0,0,1.06,1.82,2.75,2.75,0,0,0,1.7.68,2.54,2.54,0,0,1,1.74.7c1,1,0,2.11-.8,2.66s-2.09,1-3.07,1.56c-0.13.08-1.47,1-.83,1a0.56,0.56,0,0,0,0,1.11h0.09a0.56,0.56,0,0,0,.48-0.27c1.11-2,4.95-1.83,5.51-4.21A2.65,2.65,0,0,0,1158.95,1401.62Z" transform="translate(-1101.95 -1380.14)"/><path class="cls-5" d="M1136.91,1405.19a15.93,15.93,0,0,1-.72-2c-0.06-.71-1.17-0.71-1.11,0a4.7,4.7,0,0,0,.54,1.65,4.14,4.14,0,0,1,.27.88,8,8,0,0,1,.39,1.08c0.06,0.71,1.17.71,1.11,0A10.83,10.83,0,0,0,1136.91,1405.19Z" transform="translate(-1101.95 -1380.14)"/><path class="cls-5" d="M1141.32,1405.4c-0.08-.41-0.25-0.78-0.35-1.19a0.56,0.56,0,0,0-1.07.29c0.07,0.31.19,0.6,0.28,0.91a4.39,4.39,0,0,1,.07,1.26,0.56,0.56,0,0,0,1.11,0A6.63,6.63,0,0,0,1141.32,1405.4Z" transform="translate(-1101.95 -1380.14)"/><path class="cls-5" d="M1149,1401.66a4.72,4.72,0,0,0-1.3,2c-0.32.88-.79,1.65-1.06,2.54a0.56,0.56,0,0,0,1.07.29,15.11,15.11,0,0,1,.81-1.89c0.14-.29.24-0.6,0.35-0.9a3.12,3.12,0,0,1,.92-1.21A0.56,0.56,0,0,0,1149,1401.66Z" transform="translate(-1101.95 -1380.14)"/><path class="cls-5" d="M1142.48,1437.2a1.25,1.25,0,0,1-1.24-1.11,9.58,9.58,0,0,1,1.79-6.73,19.85,19.85,0,0,1,1.8-2.07,20.39,20.39,0,0,0,1.42-1.59c0.42-.55,1.35-1.94.92-3.12-0.38-1-1.83-1.83-3.46-1.93a13.51,13.51,0,0,0-5.18,1,2.74,2.74,0,0,0-.44.19,1.25,1.25,0,0,1-2.4-.69,2.78,2.78,0,0,1,2-1.86,15.67,15.67,0,0,1,6.17-1.18c2.21,0.14,4.82,1.29,5.66,3.56,0.62,1.68.17,3.64-1.28,5.52a22.58,22.58,0,0,1-1.59,1.79,17.73,17.73,0,0,0-1.58,1.8,7.08,7.08,0,0,0-1.34,5,1.25,1.25,0,0,1-1.1,1.39h-0.15Z" transform="translate(-1101.95 -1380.14)"/><path class="cls-5" d="M1142.84,1442.68a1.75,1.75,0,0,1-1.37-.64,1.87,1.87,0,0,1,2-2.92,1.25,1.25,0,0,1,.48.29,1.89,1.89,0,0,1,.28.34,1.38,1.38,0,0,1,.5.88v0.05a1.81,1.81,0,0,1-1.15,1.85A2,2,0,0,1,1142.84,1442.68Z" transform="translate(-1101.95 -1380.14)"/></svg>