<svg id="menu" xmlns="http://www.w3.org/2000/svg" viewBox="0 0 85.01 85.01"><defs><style>.cls-1,.cls-7{fill:#fcfcfc;}.cls-1{stroke:#9f6c00;stroke-miterlimit:10;stroke-width:5px;}.cls-2{fill:#fff;}.cls-3{fill:#9f6c00;}.cls-4{fill:#b071aa;}.cls-5{fill:#e4e2f1;}.cls-6{fill:#9fe8ff;}</style></defs><title>menu4</title><circle class="cls-1" cx="42.51" cy="42.51" r="40.01"/><path class="cls-2" d="M951.22,1428.67a6.74,6.74,0,0,0-.87-2,1.06,1.06,0,0,1,.51-0.91,6.53,6.53,0,0,0,.51,1.54,1.88,1.88,0,0,0,1.44.59c0.44,0,1.31-.36,1.44.4a2.61,2.61,0,0,1-.13,1.7c-0.39.71-1.36,1.37-2.13,0.83A10.12,10.12,0,0,0,951.22,1428.67Z" transform="translate(-892.83 -1380.14)"/><path class="cls-2" d="M940.65,1424.63l0,0,0.24-.14,0.12,0.09a3.7,3.7,0,0,0,.77.31,0.58,0.58,0,0,0,0,.34,4.39,4.39,0,0,0,5,3.16,7.49,7.49,0,0,0,2.12-.45c0.77-.38.57-0.18,0.91,0.48a16.12,16.12,0,0,1,.66,1.69c0.08,0.22.27,0.57,0.37,0.88a10.1,10.1,0,0,1-2.61.76,12.54,12.54,0,0,1-3.19.06c-2.5-.62-4-3.19-4.77-5.47C940.45,1425.76,940.56,1425.2,940.65,1424.63Z" transform="translate(-892.83 -1380.14)"/><path class="cls-3" d="M948.59,1428.74a1.57,1.57,0,0,1,.5-0.45c0.21-.12.45-0.19,0.66-0.3a0.14,0.14,0,0,1,.11.26l-0.54.24a1.27,1.27,0,0,0-.51.42A0.14,0.14,0,0,1,948.59,1428.74Z" transform="translate(-892.83 -1380.14)"/><path class="cls-3" d="M949.06,1430c0.37-.25.72-0.52,1.09-0.77,0.15-.1.32,0.12,0.17,0.22-0.37.25-.72,0.52-1.09,0.77C949.08,1430.32,948.91,1430.1,949.06,1430Z" transform="translate(-892.83 -1380.14)"/><path class="cls-3" d="M947.56,1432.85a10.26,10.26,0,0,1-3.73-.26A6.94,6.94,0,0,1,941,1430a10.93,10.93,0,0,1-1.78-3.53c-0.23-.68.8-1.11,1-0.43,0.79,2.34,2.27,5.08,4.86,5.73a12.54,12.54,0,0,0,3.19-.06,10.1,10.1,0,0,0,2.61-.76c-0.1-.31-0.29-0.66-0.37-0.88a16.06,16.06,0,0,0-.66-1.69c-0.34-.65-0.14-0.86-0.91-0.48a7.5,7.5,0,0,1-2.12.45,4.39,4.39,0,0,1-5-3.16c-0.21-.68.82-1.12,1-0.43,0.37,1.22,1.7,2.63,3.06,2.6a14.31,14.31,0,0,0,2-.31c0.68-.11,1.19-0.6,1.86-0.67,1-.11,1.22,1.69,1.49,2.26a7.33,7.33,0,0,1,.83,2.81,0.55,0.55,0,0,1-.48.47,16,16,0,0,0-2.1.72A7.79,7.79,0,0,1,947.56,1432.85Z" transform="translate(-892.83 -1380.14)"/><path class="cls-3" d="M951.18,1431.57c-0.53-.48.14-1.36,0.68-0.88,0.79,0.71,1.84,0,2.25-.74a2.61,2.61,0,0,0,.13-1.7c-0.13-.75-1-0.43-1.44-0.4a1.88,1.88,0,0,1-1.44-.59,6.54,6.54,0,0,1-.51-1.54,1.24,1.24,0,0,0-.48,1.41,0.56,0.56,0,0,1-1.11.14c-0.13-1,.2-3,1.72-2.81a1.28,1.28,0,0,1,1,1.35c0.12,1.56,1.54.48,2.45,0.86,1.43,0.61,1.06,3.16.42,4.16A2.54,2.54,0,0,1,951.18,1431.57Z" transform="translate(-892.83 -1380.14)"/><path class="cls-3" d="M946.79,1411.87c0.08-.06,3.62-3,6.48-0.76s2.62,5,3.28,6.58a2.89,2.89,0,0,0,3.15,1.94,3.45,3.45,0,0,0,1.7-.6,8.13,8.13,0,0,1-4.16,2.23c-2.48.42-3.91,0.52-5-.18a9,9,0,0,1-1.75-1.46l-2.26-2.94-3.47-2.77Z" transform="translate(-892.83 -1380.14)"/><path class="cls-2" d="M946.19,1414.4a3.49,3.49,0,0,1,2.09-2.06c1.76-.78,3.37-1.06,4.64,0a6.83,6.83,0,0,1,2,4.3,3.73,3.73,0,0,0,1.3,2.7,2.33,2.33,0,0,0,1.48.65,2.38,2.38,0,0,0,1.17,0,23.61,23.61,0,0,1-4.7.68,5,5,0,0,1-3.07-1.51c-0.74-.74-1.77-1.94-2.14-2.33S946.19,1414.4,946.19,1414.4Z" transform="translate(-892.83 -1380.14)"/><path class="cls-3" d="M917.58,1410.42c-0.1,0-4.43-1.52-6.34,1.54s-0.73,5.57-.78,7.31a2.89,2.89,0,0,1-2.28,2.91,3.45,3.45,0,0,1-1.8,0,8.13,8.13,0,0,0,4.67.65c2.47-.46,3.85-0.87,4.62-1.9a9,9,0,0,0,1.13-2l1.1-3.54,2.29-3.81Z" transform="translate(-892.83 -1380.14)"/><path class="cls-2" d="M919,1412.59a3.49,3.49,0,0,0-2.67-1.21c-1.92-.11-3.53.18-4.33,1.65a6.83,6.83,0,0,0-.4,4.73,3.73,3.73,0,0,1-.28,3,2.33,2.33,0,0,1-1.16,1.12,2.38,2.38,0,0,1-1.11.37,23.61,23.61,0,0,0,4.64-1,5,5,0,0,0,2.36-2.49c0.43-1,1-2.44,1.19-2.92S919,1412.59,919,1412.59Z" transform="translate(-892.83 -1380.14)"/><path class="cls-3" d="M917.12,1411s-2-.71-1.91,1.85,1.54,2.33,1.72,2.11a3,3,0,0,0,.28-1,0.84,0.84,0,0,1-.88-0.75c-0.21-.84-0.12-1.13.31-1.45s0.64,0,.64,0Z" transform="translate(-892.83 -1380.14)"/><path class="cls-3" d="M948.25,1412.69s1.87-.92,2.1,1.64-1.28,2.48-1.48,2.28a3,3,0,0,1-.39-1,0.84,0.84,0,0,0,.79-0.84c0.11-.86,0-1.14-0.47-1.41s-0.63.07-.63,0.07Z" transform="translate(-892.83 -1380.14)"/><path class="cls-4" d="M941.16,1429.65a6,6,0,0,0-.42-2.09,22.41,22.41,0,0,1-1,2.23,10.93,10.93,0,0,1-1.74,2.51c0,0.63.16,1.22,0.22,1.85s-0.12.23,0.41,0.23h0.86a15.54,15.54,0,0,0,1.83,0c0.91-.11.61,0,0.39-0.85A20.48,20.48,0,0,1,941.16,1429.65Z" transform="translate(-892.83 -1380.14)"/><path class="cls-2" d="M934.4,1436.7c-0.25-.33-0.34-0.19.08-0.18h2a9.18,9.18,0,0,0,1.39-.18c0.28,0,.56-0.08.84-0.1-0.47,0-.35-0.4-0.48-0.75H938c-0.89,0-1.08-1.15-1.12-2.18-1.48,1.22-3.89,3.14-5.8,2.38a8,8,0,0,1-3.4-2.79,6.35,6.35,0,0,1-.36,1c-0.16.6,0,1-.52,1.43a0.54,0.54,0,0,1-.56,0,0.63,0.63,0,0,0-.32-0.1c0,0.14,0,.28,0,0.41s-0.07.28-.09,0.44a2.25,2.25,0,0,1,.31,0c0.28,0,.56.07,0.84,0.09,0.61,0,1.22.26,1.83,0.26a0.54,0.54,0,0,1,.3.09,2.35,2.35,0,0,1,1.51-.2c0.85,0,1.7.11,2.56,0.11a0.53,0.53,0,0,1,.32.1l0.12,0A0.6,0.6,0,0,1,934.4,1436.7Z" transform="translate(-892.83 -1380.14)"/><path class="cls-2" d="M928.65,1437.53a15.67,15.67,0,0,1-1.61-.24H927c0.2,0.12.41,0.23,0.62,0.33a5.3,5.3,0,0,1,1.11,1.14l0.11,0.11,0.11-.06A2.09,2.09,0,0,1,928.65,1437.53Z" transform="translate(-892.83 -1380.14)"/><path class="cls-2" d="M934.2,1437.67c0,0.11,0,.22,0,0.33a2.07,2.07,0,0,1-.06.52l0.23,0.11a15.64,15.64,0,0,1,1.43-.93A6.08,6.08,0,0,1,934.2,1437.67Z" transform="translate(-892.83 -1380.14)"/><path class="cls-2" d="M941,1446.64c-0.89-.1-1.8-0.17-2.7-0.18a0.57,0.57,0,0,1-.27.09c1.12-.07,2.22.61,3.33,0.8s2.12,0.2,3.17.32c0.2,0,1,0,1,0a3.41,3.41,0,0,0-.8-0.31,1.28,1.28,0,0,1-.9-0.48A28.34,28.34,0,0,1,941,1446.64Z" transform="translate(-892.83 -1380.14)"/><path class="cls-4" d="M938.8,1437.6a12.94,12.94,0,0,0-3.36,1.62c1.17,0.6,2.46,1.29,2.72,2.62a6.4,6.4,0,0,1-.64,3.52c0.44,0,1.19,0,1.41,0,0.57,0,1.19.07,1.76,0.12,0.76,0.06,1.57.07,2.32,0.16,0.29,0,.58.08,0.87,0.09a12.23,12.23,0,0,0-1-4.91,8.07,8.07,0,0,0-3.94-3.09A0.6,0.6,0,0,1,938.8,1437.6Z" transform="translate(-892.83 -1380.14)"/><path class="cls-5" d="M923.92,1404.11c1.48,0,3-.06,4.47,0,2.76,0.16,5.61-.23,8.34.13s5.24,0,7.83.39c0.18,0,.48,0,0.79,0a36.9,36.9,0,0,0-2.17-5.93,12.08,12.08,0,0,0-1.38-1.79c-0.75-1.19-1.95-1-3.15-.64s-2.8,1.32-4.21,1.46a8.81,8.81,0,0,1-4.54-1.34c-1.56-.82-4.38-1.13-6-0.11-1.44.91-2,3-2.53,4.54a19.89,19.89,0,0,0-1,3.13C921.53,1404,922.75,1404.11,923.92,1404.11Z" transform="translate(-892.83 -1380.14)"/><path class="cls-2" d="M922.42,1426.16a0.53,0.53,0,0,1,.24-0.31,2.94,2.94,0,0,1-.28-0.74q-0.46-.18-0.91-0.4c-2.59.44-5.43,1.23-6.87,3.71a11.36,11.36,0,0,0-1.13,4.55c-0.06.48-.33,1,0,1a14.57,14.57,0,0,0,2-.18,13.51,13.51,0,0,1,1.94-.26l0.25-.05v-0.62a6.46,6.46,0,0,1,.63-3.46,5.38,5.38,0,0,1,4.08-3C922.38,1426.31,922.4,1426.23,922.42,1426.16Z" transform="translate(-892.83 -1380.14)"/><path class="cls-2" d="M918.45,1434.46a2.72,2.72,0,0,1-1.47.25c-0.77,0-1.52.25-2.3,0.3l-0.42.05a2.75,2.75,0,0,0,1.94,3.05c0.37,0.1,2.32.25,2-.77a2.24,2.24,0,0,1-.13-0.93,0.94,0.94,0,0,1,1-.91c0.59,0,.72-0.4.29-0.76a1.94,1.94,0,0,0-.93-0.3Z" transform="translate(-892.83 -1380.14)"/><path class="cls-4" d="M920,1407.48c1.17-.07,2.33.06,3.49,0.07,2.66,0,5.33.39,8,.46,2.88,0.08,5.76.29,8.64,0.29,1.14,0,2.31-.11,3.45-0.19,0.7,0,1.35-.19,2-0.19,0.2,0,.56.06,0.87,0.06-0.15-.4-0.36-0.82-0.5-1.17l-0.29-.71-0.06-.23c-1.08,0-2.16-.17-3.24-0.25-2.47-.19-5-0.3-7.5-0.3-2.66,0-5.31-.09-8-0.09H923c-0.84,0-1.72-.11-2.56-0.11a5.78,5.78,0,0,1-.36,1.28C919.93,1406.76,919.36,1407.52,920,1407.48Z" transform="translate(-892.83 -1380.14)"/><path class="cls-2" d="M921,1446.93a0.58,0.58,0,0,1-.35.17c-0.53.06-2.56,0.65-.85,0.65,0.76,0,1.5.13,2.27,0.11s2.89-.11,3.78-0.83c-1.2,0-2.39-.11-3.63-0.11C921.83,1446.92,921.41,1446.94,921,1446.93Z" transform="translate(-892.83 -1380.14)"/><path class="cls-4" d="M927.71,1439.33c-0.66-.59-1.72-1.64-2.69-1.7l-0.16,0a7.37,7.37,0,0,0-3.25,2.1,8.29,8.29,0,0,0-1.44,5.06c0,0.26-.13,1,0.21,1a10.94,10.94,0,0,0,1.37,0c0.79,0,1.56.08,2.35,0.14a16.55,16.55,0,0,0,3.11-.07,22.7,22.7,0,0,1-.14-2.3,4,4,0,0,1,.39-2.56,13,13,0,0,1,1-1A4.47,4.47,0,0,1,927.71,1439.33Z" transform="translate(-892.83 -1380.14)"/><path class="cls-4" d="M926.22,1434.17c0.07-.42.36-1.31,0.36-1.42a4.57,4.57,0,0,1,.18-1.11c-0.3-.42-0.61-0.84-0.95-1.26-0.86-1.07-1.39-2.38-2.32-3.41l-0.11-.13a30.44,30.44,0,0,0-.63,3.31,18.52,18.52,0,0,0-.36,2.83,2.43,2.43,0,0,1-.22.69l0.07,0c0.54,0.09,1.11.11,1.63,0.23a16.56,16.56,0,0,0,2.1.22Z" transform="translate(-892.83 -1380.14)"/><path class="cls-5" d="M931.91,1434.64a9.19,9.19,0,0,0,4.86-2.74,0.5,0.5,0,0,1,.33-0.34c0.15-.17.3-0.34,0.43-0.51a18.25,18.25,0,0,0,2.38-4.73,33.16,33.16,0,0,1-15.23-.48l-1-.28c0.43,0.69,1.16,1.37,1.51,1.94a29.11,29.11,0,0,0,1.89,2.77C928.16,1431.7,929.6,1434.93,931.91,1434.64Z" transform="translate(-892.83 -1380.14)"/><path class="cls-2" d="M933.06,1437.55h0c-0.9,0-1.8-.1-2.7-0.12-0.51,0-.57-0.08-0.53.44,0,0.37.05,0.48,0.48,0.5a21.1,21.1,0,0,0,2.52-.11c0.33,0,.28-0.24.28-0.52A1.07,1.07,0,0,1,933.06,1437.55Z" transform="translate(-892.83 -1380.14)"/><path class="cls-5" d="M956.34,1407c0.45-1,.84-2.62-0.32-3.23a2.49,2.49,0,0,0-2.83.07,15.12,15.12,0,0,1-1.72,1.51,11.67,11.67,0,0,0-2.12,1.51,3.64,3.64,0,0,1-1.09.6c-0.17.06-.44,0.2-0.68,0.29a5.3,5.3,0,0,1,.14.52,0.57,0.57,0,0,1-.26.63,2.32,2.32,0,0,1-1.37.17c-0.72,0-1.4.11-2.12,0.16-1.45.1-3,.25-4.41,0.21a90.24,90.24,0,0,1-9.31-.41c-1.59-.2-3.21-0.09-4.81-0.19a47,47,0,0,0-5-.23c-0.48,0-1.79.18-1.9-.58a2.31,2.31,0,0,1,.13-1.07l-0.34-.22a5.65,5.65,0,0,1-.75-0.61c-0.57-.46-1.25-0.82-1.8-1.3s-1-1-1.59-1.39-1.52-1.51-2.29-1.43c-1,.1-2.68.46-2.69,1.78a4.85,4.85,0,0,0,.92,2.36,8,8,0,0,0,3.48,2.79,24.88,24.88,0,0,0,9.18,1.73c3.52,0.08,7,.09,10.57.09,3,0,6-.08,9,0,1.56,0.06,3.13.18,4.69,0.16a13,13,0,0,0,4.85-1.09C953.28,1409.22,955.65,1408.46,956.34,1407Z" transform="translate(-892.83 -1380.14)"/><path class="cls-2" d="M947,1412.05a10.52,10.52,0,0,1-1.63-.07c-3.84-.49-7.88-0.18-11.74-0.16h0c-4.73,0-9.63.32-14.33-.3l-0.71-.1h0c-1.11,3.57-1.16,8.35,1.69,11.08a7.61,7.61,0,0,0,2.69,1.6,0.6,0.6,0,0,1,.18.07,31.4,31.4,0,0,0,3.2.85,27.82,27.82,0,0,0,6.35.81,30.88,30.88,0,0,0,7.27-.65,20.24,20.24,0,0,0,2.52-.72,0.54,0.54,0,0,1,.44-0.18c0.2-.09.41-0.18,0.61-0.29,0.68-.36,2-0.77,2.36-1.5a11.75,11.75,0,0,0,1.76-6.49C947.61,1414.69,947.05,1413.38,947,1412.05Z" transform="translate(-892.83 -1380.14)"/><path class="cls-3" d="M928.22,1395.69a14.11,14.11,0,0,0-3.65,2c-0.69.43-1.32,0.93-2,1.41-0.27.2-.59,0.35-0.87,0.54a2.21,2.21,0,0,1-.54.38,0.14,0.14,0,0,0,.07.27,5.26,5.26,0,0,0,1.13-.73c0.67-.39,1.25-0.92,1.9-1.36a14.66,14.66,0,0,1,4-2.23A0.14,0.14,0,0,0,928.22,1395.69Z" transform="translate(-892.83 -1380.14)"/><path class="cls-3" d="M930,1396.18a15.2,15.2,0,0,0-2.25,1.09,26.14,26.14,0,0,0-2.65,1.7l-1.25.83c-0.49.32-.88,0.74-1.4,1s-0.76.5-1.14,0.74c-0.19.12-.4,0.23-0.6,0.34a4.57,4.57,0,0,1-.45.33c-0.17.06-.09,0.33,0.07,0.27A7.66,7.66,0,0,0,921,1402a10.26,10.26,0,0,0,1.14-.74c0.33-.24.73-0.38,1-0.64,0.51-.42,1-0.79,1.57-1.16,0.89-.6,1.76-1.24,2.69-1.78a14.68,14.68,0,0,1,2.45-1.23,0.14,0.14,0,0,0,.22-0.11v-0.07A0.14,0.14,0,0,0,930,1396.18Z" transform="translate(-892.83 -1380.14)"/><path class="cls-3" d="M932.43,1396.73a5.3,5.3,0,0,0-2.72,1.41c-1,.77-2.21,1.39-3.29,2.12s-2.38,1.53-3.59,2.27a24,24,0,0,0-3.11,1.83c-0.14.12,0.06,0.31,0.2,0.2a23.58,23.58,0,0,1,3.06-1.79c1.13-.69,2.26-1.39,3.37-2.12,0.5-.33,1-0.69,1.48-1a10.47,10.47,0,0,0,1.42-.88c0.37-.32.83-0.59,1.23-0.88a3.82,3.82,0,0,1,1.95-.89A0.14,0.14,0,0,0,932.43,1396.73Z" transform="translate(-892.83 -1380.14)"/><path class="cls-3" d="M934.17,1397.17c-0.89.42-1.66,1.12-2.51,1.63s-1.85,1.29-2.8,1.9c-1.83,1.18-3.6,2.49-5.35,3.78-0.14.11,0,.35,0.14,0.24,0.87-.64,1.74-1.28,2.64-1.86s1.77-1.33,2.71-1.92,1.82-1.32,2.8-1.9,1.63-1.22,2.51-1.63C934.48,1397.33,934.33,1397.09,934.17,1397.17Z" transform="translate(-892.83 -1380.14)"/><path class="cls-3" d="M938.66,1396.11a6.46,6.46,0,0,0-2.28,1.55c-1.09.85-2.12,1.75-3.25,2.55s-2.05,1.41-3,2.16a26.42,26.42,0,0,0-2.62,2,0.14,0.14,0,0,0,.1.24h0.07a0.13,0.13,0,0,0,.13-0.14,29.23,29.23,0,0,1,2.46-1.85c0.93-.7,1.88-1.35,2.84-2s1.83-1.35,2.71-2.08c0.47-.39,1-0.76,1.43-1.14a4,4,0,0,1,1.54-1C938.91,1396.35,938.84,1396.08,938.66,1396.11Z" transform="translate(-892.83 -1380.14)"/><path class="cls-3" d="M942,1396a11.89,11.89,0,0,0-2.67,1.8c-1,.82-2,1.62-3,2.39s-1.8,1.29-2.66,2-2,1.3-2.86,2.12a0.14,0.14,0,0,0,.2.2c0.75-.71,1.68-1.17,2.48-1.82,1-.78,2-1.51,3-2.26s1.87-1.55,2.87-2.24c0.52-.36,1-0.83,1.46-1.2a8.26,8.26,0,0,1,1.39-.75C942.35,1396.15,942.2,1395.91,942,1396Z" transform="translate(-892.83 -1380.14)"/><path class="cls-3" d="M943.16,1397.86a13.86,13.86,0,0,0-2.23,1.53c-0.73.55-1.42,1.15-2.12,1.73s-1.61,1.13-2.32,1.8c-0.36.34-.75,0.65-1.12,1a4.15,4.15,0,0,0-.76.69,0.14,0.14,0,0,0,.24.14,2.58,2.58,0,0,1,.54-0.46c0.4-.35.78-0.71,1.18-1,0.72-.6,1.5-1.13,2.23-1.74s1.5-1.28,2.27-1.86a13.87,13.87,0,0,1,2.23-1.53C943.46,1398,943.32,1397.79,943.16,1397.86Z" transform="translate(-892.83 -1380.14)"/><path class="cls-3" d="M943.94,1399.72a3.32,3.32,0,0,1-.94.69l-1,.65c-0.7.45-1.44,0.86-2.11,1.36s-1.19.9-1.76,1.37a2.8,2.8,0,0,0-.73.69,0.12,0.12,0,0,0-.06.11v0.07a0.14,0.14,0,0,0,.28,0,0.81,0.81,0,0,1,.29-0.28c0.27-.21.51-0.48,0.78-0.7,0.69-.55,1.4-1.07,2.13-1.55s1.41-.9,2.1-1.36a5.38,5.38,0,0,0,1.13-.78,0.13,0.13,0,0,0,.12-0.13v-0.07A0.14,0.14,0,0,0,943.94,1399.72Z" transform="translate(-892.83 -1380.14)"/><path class="cls-3" d="M944.37,1401.68a2.66,2.66,0,0,0-1,.56c-0.45.31-.95,0.56-1.42,0.85s-1.66.79-1.74,1.51c0,0.18.26,0.18,0.28,0a2.23,2.23,0,0,1,1-.9c0.33-.22.69-0.42,1-0.62s0.67-.39,1-0.6a2.65,2.65,0,0,1,.92-0.53C944.62,1401.92,944.55,1401.65,944.37,1401.68Z" transform="translate(-892.83 -1380.14)"/><path class="cls-3" d="M945.5,1402.69a14.66,14.66,0,0,1-1.46,1,8.12,8.12,0,0,1-.81.66,0.59,0.59,0,0,0-.27.31c-0.06.17,0.21,0.24,0.27,0.07a1.73,1.73,0,0,1,.52-0.43c0.25-.19.48-0.41,0.74-0.59a4.94,4.94,0,0,0,1.21-.81C945.8,1402.75,945.61,1402.55,945.5,1402.69Z" transform="translate(-892.83 -1380.14)"/><path class="cls-3" d="M912.77,1401.65c-0.7.58-1.38,1.17-2.09,1.74a5.26,5.26,0,0,0-.79,1,3.05,3.05,0,0,0-.57.86,0.14,0.14,0,0,0,.27.07,3.82,3.82,0,0,1,.54-0.8,5.09,5.09,0,0,1,1-1.12c0.64-.51,1.25-1.05,1.88-1.57C913.1,1401.73,912.9,1401.53,912.77,1401.65Z" transform="translate(-892.83 -1380.14)"/><path class="cls-3" d="M914.4,1402.61a3.15,3.15,0,0,1-.87,1c-0.4.42-.77,0.87-1.15,1.31l-1.28,1.46a7.42,7.42,0,0,1-.81,1,0.14,0.14,0,0,0,.07.26h0.07a0.13,0.13,0,0,0,.13-0.14c0.21-.22.36-0.49,0.58-0.71,0.5-.52,1-1.08,1.44-1.62s0.87-1,1.33-1.49a2.48,2.48,0,0,0,.77-0.94A0.14,0.14,0,0,0,914.4,1402.61Z" transform="translate(-892.83 -1380.14)"/><path class="cls-3" d="M915.72,1404.21a9.22,9.22,0,0,1-1.72,2.5c-0.46.58-1.24,1.07-1.35,1.85,0,0.18.26,0.18,0.28,0a2.39,2.39,0,0,1,.79-1.16,15.42,15.42,0,0,0,1.09-1.26,6.74,6.74,0,0,0,1.17-1.87C916.05,1404.12,915.78,1404,915.72,1404.21Z" transform="translate(-892.83 -1380.14)"/><path class="cls-3" d="M917.33,1405.47a4.71,4.71,0,0,1-.56.93,10.48,10.48,0,0,1-1,1.24,4.08,4.08,0,0,0-1.15,1.67c0,0.18.23,0.25,0.27,0.07a6.27,6.27,0,0,1,1.67-2.25,4.31,4.31,0,0,0,1.05-1.58A0.14,0.14,0,0,0,917.33,1405.47Z" transform="translate(-892.83 -1380.14)"/><path class="cls-3" d="M918.87,1406.34c-0.41.66-.89,1.24-1.32,1.88a16.12,16.12,0,0,0-1.32,1.6c-0.08.16,0.16,0.3,0.24,0.14a11.26,11.26,0,0,1,1.18-1.41c0.27-.38.57-0.74,0.86-1.1a8.8,8.8,0,0,0,.6-1A0.14,0.14,0,0,0,918.87,1406.34Z" transform="translate(-892.83 -1380.14)"/><path class="cls-3" d="M920.36,1408c-0.36.46-.78,0.88-1.12,1.37a3.57,3.57,0,0,0-.79,1.27c0,0.18.24,0.25,0.27,0.07a3.51,3.51,0,0,1,.77-1.21c0.31-.47.73-0.87,1.08-1.31C920.66,1408,920.47,1407.84,920.36,1408Z" transform="translate(-892.83 -1380.14)"/><path class="cls-3" d="M923,1408.18a2,2,0,0,1-.38.36c-0.22.27-.48,0.5-0.7,0.77a7.85,7.85,0,0,0-1.14,1.35c-0.08.16,0.16,0.3,0.24,0.14a2.93,2.93,0,0,1,.65-0.76c0.25-.24.43-0.54,0.67-0.8a5.2,5.2,0,0,1,.68-0.69,0.6,0.6,0,0,0,.25-0.29C923.37,1408.09,923.1,1408,923,1408.18Z" transform="translate(-892.83 -1380.14)"/><path class="cls-3" d="M925.33,1408.22a1.48,1.48,0,0,1-.47.57c-0.22.25-.38,0.54-0.6,0.79a3.76,3.76,0,0,0-.8,1.18c-0.06.17,0.21,0.24,0.27,0.07a9.78,9.78,0,0,1,1.1-1.5,2.88,2.88,0,0,1,.61-0.73,0.42,0.42,0,0,0,.18-0.38C925.6,1408,925.32,1408,925.33,1408.22Z" transform="translate(-892.83 -1380.14)"/><path class="cls-3" d="M927.84,1408.6a6.22,6.22,0,0,1-1,1.33,2.63,2.63,0,0,0-.65,1.21c0,0.18.26,0.18,0.28,0a3.29,3.29,0,0,1,.89-1.39,3.29,3.29,0,0,0,.77-1.08C928.18,1408.51,927.91,1408.44,927.84,1408.6Z" transform="translate(-892.83 -1380.14)"/><path class="cls-3" d="M930.7,1408.6c0,0.06-.36.45-0.42,0.54l-0.43.61a4,4,0,0,1-.48.71,0.54,0.54,0,0,0-.2.37c0,0.18.24,0.25,0.27,0.07a1.15,1.15,0,0,1,.29-0.45c0.19-.26.35-0.54,0.53-0.81a2.12,2.12,0,0,1,.46-0.6,0.56,0.56,0,0,0,.24-0.37A0.14,0.14,0,0,0,930.7,1408.6Z" transform="translate(-892.83 -1380.14)"/><path class="cls-3" d="M932.87,1408.78a1.81,1.81,0,0,1-.38.39,4.15,4.15,0,0,0-.46.53,7.48,7.48,0,0,1-.47.59,3.54,3.54,0,0,0-.43.45c-0.11.14,0.13,0.28,0.24,0.14a3.8,3.8,0,0,1,.47-0.46c0.18-.17.31-0.42,0.47-0.61a9.47,9.47,0,0,0,.8-0.88C933.21,1408.77,933,1408.63,932.87,1408.78Z" transform="translate(-892.83 -1380.14)"/><path class="cls-3" d="M935.15,1408.95a2.14,2.14,0,0,1-.44.53c-0.12.15-.21,0.31-0.33,0.46a2.74,2.74,0,0,0-.62,1c0,0.18.24,0.25,0.27,0.07a3.69,3.69,0,0,1,.75-1.19,3.39,3.39,0,0,0,.64-0.83A0.14,0.14,0,0,0,935.15,1408.95Z" transform="translate(-892.83 -1380.14)"/><path class="cls-3" d="M938.39,1408.47c-0.62.64-1.08,1.42-1.67,2.09-0.12.13,0.08,0.33,0.2,0.2,0.59-.67,1-1.45,1.67-2.09A0.14,0.14,0,0,0,938.39,1408.47Z" transform="translate(-892.83 -1380.14)"/><path class="cls-3" d="M940.59,1408.6a2.24,2.24,0,0,1-.26.45,4.08,4.08,0,0,1-.42.65,6.53,6.53,0,0,0-.7,1,0.14,0.14,0,0,0,.24.14,14.36,14.36,0,0,1,.84-1.22,3.37,3.37,0,0,0,.57-1A0.14,0.14,0,0,0,940.59,1408.6Z" transform="translate(-892.83 -1380.14)"/><path class="cls-3" d="M943.34,1408.54a11.68,11.68,0,0,0-.95,1.12,8,8,0,0,0-1,1.2c-0.08.16,0.16,0.3,0.24,0.14a6.5,6.5,0,0,1,.84-1.06,14.81,14.81,0,0,1,1-1.21A0.14,0.14,0,0,0,943.34,1408.54Z" transform="translate(-892.83 -1380.14)"/><path class="cls-3" d="M945.27,1408.36c-0.11.18-.26,0.32-0.37,0.5s-0.27.49-.43,0.72c-0.28.4-.62,0.78-0.87,1.21a0.14,0.14,0,0,0,.24.14c0.22-.38.53-0.71,0.78-1.08s0.61-.9.9-1.36A0.14,0.14,0,0,0,945.27,1408.36Z" transform="translate(-892.83 -1380.14)"/><path class="cls-3" d="M948.17,1406.9a4.48,4.48,0,0,1-.45,1.09,13.67,13.67,0,0,1-.62,1.28,7.26,7.26,0,0,0-.52,1.12c0,0.09-.2.63-0.3,0.84a0.13,0.13,0,0,0-.12.13v0.07a0.14,0.14,0,0,0,.21.12,0.82,0.82,0,0,0,.27-0.5,10.34,10.34,0,0,1,.7-1.64c0.27-.48.5-1,0.72-1.51a3.55,3.55,0,0,0,.39-1C948.46,1406.72,948.19,1406.72,948.17,1406.9Z" transform="translate(-892.83 -1380.14)"/><path class="cls-3" d="M951.17,1404.88a4.72,4.72,0,0,1-.69,1.64c-0.27.52-.58,1-0.85,1.55a15.24,15.24,0,0,1-1.2,2.57c-0.11.14,0.09,0.34,0.2,0.2A16.9,16.9,0,0,0,950,1408c0.31-.6.67-1.17,1-1.78a3.65,3.65,0,0,0,.51-1.32A0.14,0.14,0,0,0,951.17,1404.88Z" transform="translate(-892.83 -1380.14)"/><path class="cls-3" d="M954.86,1402.54a11.21,11.21,0,0,1-.77,1.7,19.51,19.51,0,0,1-1.11,2.06,22.78,22.78,0,0,0-1.07,2.12,15.39,15.39,0,0,0-.88,1.65,0.14,0.14,0,0,0,.27.07,3.35,3.35,0,0,1,.46-0.77,8.68,8.68,0,0,0,.5-1,22.52,22.52,0,0,1,1.08-2.09,19.92,19.92,0,0,0,1.1-2.1,10,10,0,0,0,.69-1.53A0.14,0.14,0,0,0,954.86,1402.54Z" transform="translate(-892.83 -1380.14)"/><path class="cls-3" d="M956.53,1403.38a15.56,15.56,0,0,1-1.21,2.94c-0.4.9-.77,1.77-1.08,2.7-0.06.17,0.21,0.24,0.27,0.07,0.33-1,.74-1.91,1.16-2.86a14.76,14.76,0,0,0,1.14-2.78C956.84,1403.28,956.57,1403.2,956.53,1403.38Z" transform="translate(-892.83 -1380.14)"/><path class="cls-3" d="M920.52,1421.31a1.72,1.72,0,0,1-.31.72,1.7,1.7,0,0,0-.24.75c0,0.18.27,0.18,0.28,0,0-.55.53-0.91,0.56-1.46C920.81,1421.13,920.53,1421.13,920.52,1421.31Z" transform="translate(-892.83 -1380.14)"/><path class="cls-3" d="M923.61,1422.5c-0.18.31-.33,0.63-0.5,0.94a1.87,1.87,0,0,0-.36.8c0,0.18.27,0.18,0.28,0a2,2,0,0,1,.38-0.77c0.15-.28.28-0.56,0.44-0.84A0.14,0.14,0,0,0,923.61,1422.5Z" transform="translate(-892.83 -1380.14)"/><path class="cls-3" d="M926.17,1423.54a1.43,1.43,0,0,1-.39.81c-0.17.22-.27,0.49-0.42,0.72s0.14,0.29.24,0.14c0.2-.3.35-0.62,0.57-0.91a1.35,1.35,0,0,0,.29-0.76C926.45,1423.36,926.18,1423.36,926.17,1423.54Z" transform="translate(-892.83 -1380.14)"/><path class="cls-3" d="M929.86,1424.06a2.34,2.34,0,0,1-.46.73,7.08,7.08,0,0,0-.57.91c-0.08.16,0.16,0.3,0.24,0.14a10.21,10.21,0,0,1,.57-0.91,2.82,2.82,0,0,0,.49-0.8A0.14,0.14,0,0,0,929.86,1424.06Z" transform="translate(-892.83 -1380.14)"/><path class="cls-3" d="M933.55,1424.2a3.54,3.54,0,0,1-.31.74,7.43,7.43,0,0,1-.44.83c-0.1.15,0.14,0.29,0.24,0.14a6.2,6.2,0,0,0,.44-0.83,4.29,4.29,0,0,0,.34-0.81A0.14,0.14,0,0,0,933.55,1424.2Z" transform="translate(-892.83 -1380.14)"/><path class="cls-3" d="M936.27,1424.06a4.2,4.2,0,0,1-.51.89c-0.14.31-.27,0.61-0.4,0.92s0.2,0.24.27,0.07c0.15-.36.3-0.73,0.47-1.08a2.83,2.83,0,0,0,.43-0.73C936.56,1424,936.29,1423.88,936.27,1424.06Z" transform="translate(-892.83 -1380.14)"/><path class="cls-3" d="M940.09,1423.56a1,1,0,0,0-.39.74,3.69,3.69,0,0,1-.68,1.44c-0.11.14,0.09,0.34,0.2,0.2a3.94,3.94,0,0,0,.52-0.93l0.21-.53a1,1,0,0,1,.28-0.68C940.38,1423.7,940.24,1423.46,940.09,1423.56Z" transform="translate(-892.83 -1380.14)"/><path class="cls-3" d="M943.08,1422.95c0-.18-0.3-0.1-0.27.07a1.63,1.63,0,0,1-.39.69,2.49,2.49,0,0,0-.38.83,0.14,0.14,0,0,0,.27.07,6,6,0,0,1,.5-1A1.1,1.1,0,0,0,943.08,1422.95Z" transform="translate(-892.83 -1380.14)"/><path class="cls-3" d="M945.25,1421.94a4.9,4.9,0,0,1-.47,1.88c-0.07.16,0.17,0.3,0.24,0.14a5.27,5.27,0,0,0,.51-2A0.14,0.14,0,0,0,945.25,1421.94Z" transform="translate(-892.83 -1380.14)"/><path class="cls-3" d="M928.32,1433.5h-0.07a0.14,0.14,0,0,0-.11.23,3,3,0,0,1-.35.54c-0.13.19-.24,0.4-0.38,0.59a5.06,5.06,0,0,0-.83,1.32,0.14,0.14,0,0,0,.27.07,5.43,5.43,0,0,1,.89-1.38c0.13-.19.24-0.4,0.37-0.59a1.49,1.49,0,0,0,.34-0.61A0.14,0.14,0,0,0,928.32,1433.5Z" transform="translate(-892.83 -1380.14)"/><path class="cls-3" d="M929.34,1434.17a7.22,7.22,0,0,0-1.43,2.29,0.14,0.14,0,0,0,.27.07,6.92,6.92,0,0,1,1.36-2.17C929.65,1434.23,929.46,1434,929.34,1434.17Z" transform="translate(-892.83 -1380.14)"/><path class="cls-3" d="M930.52,1434.86a4.38,4.38,0,0,0-1.22,1.73c-0.06.17,0.21,0.24,0.27,0.07a4.11,4.11,0,0,1,1.15-1.61A0.14,0.14,0,0,0,930.52,1434.86Z" transform="translate(-892.83 -1380.14)"/><path class="cls-3" d="M932.54,1435.07c-0.19.2-.31,0.45-0.5,0.65a1.48,1.48,0,0,0-.37.6,0.14,0.14,0,0,0,.27.07,1.43,1.43,0,0,1,.4-0.58c0.16-.16.24-0.37,0.4-0.54A0.14,0.14,0,0,0,932.54,1435.07Z" transform="translate(-892.83 -1380.14)"/><path class="cls-3" d="M934.7,1434.65a8.83,8.83,0,0,0-.65.86,2.84,2.84,0,0,0-.43.73,0.14,0.14,0,0,0,.27.07c0.08-.25.3-0.42,0.4-0.66a2.38,2.38,0,0,1,.25-0.35,3.84,3.84,0,0,1,.35-0.45A0.14,0.14,0,0,0,934.7,1434.65Z" transform="translate(-892.83 -1380.14)"/><path class="cls-3" d="M936.86,1433.75a10.16,10.16,0,0,0-1.69,2.6c-0.08.16,0.16,0.3,0.24,0.14a9.94,9.94,0,0,1,1.65-2.55A0.14,0.14,0,0,0,936.86,1433.75Z" transform="translate(-892.83 -1380.14)"/><path class="cls-3" d="M937.81,1434.4c-0.41.68-.89,1.31-1.25,2-0.08.16,0.16,0.3,0.24,0.14,0.36-.71.84-1.34,1.25-2A0.14,0.14,0,0,0,937.81,1434.4Z" transform="translate(-892.83 -1380.14)"/><path class="cls-3" d="M921.78,1444.6a3.37,3.37,0,0,1-.38.81c-0.14.23-.22,0.47-0.37,0.69s0.14,0.29.24,0.14,0.26-.52.42-0.77a3.33,3.33,0,0,0,.36-0.8A0.14,0.14,0,0,0,921.78,1444.6Z" transform="translate(-892.83 -1380.14)"/><path class="cls-3" d="M924.08,1444.6a3.18,3.18,0,0,1-.36.79c-0.14.25-.05,0.53-0.18,0.78a0.14,0.14,0,0,0,.24.14c0.13-.25.06-0.54,0.18-0.78a3.79,3.79,0,0,0,.39-0.86A0.14,0.14,0,0,0,924.08,1444.6Z" transform="translate(-892.83 -1380.14)"/><path class="cls-3" d="M925.82,1444.88a4.14,4.14,0,0,1-.4.94c-0.1.15,0.14,0.29,0.24,0.14a4.44,4.44,0,0,0,.43-1C926.16,1444.79,925.89,1444.72,925.82,1444.88Z" transform="translate(-892.83 -1380.14)"/><path class="cls-3" d="M939.5,1444.3a0.71,0.71,0,0,0-.45.5c-0.07.19-.11,0.38-0.19,0.56a1.58,1.58,0,0,0-.15.53c0,0.18.26,0.18,0.28,0a2.62,2.62,0,0,1,.25-0.71,0.79,0.79,0,0,1,.35-0.62C939.74,1444.51,939.67,1444.24,939.5,1444.3Z" transform="translate(-892.83 -1380.14)"/><path class="cls-3" d="M941.57,1444.29a4.28,4.28,0,0,0-.79,1.53,0.14,0.14,0,0,0,.28,0,4.1,4.1,0,0,1,.75-1.39C941.89,1444.27,941.65,1444.13,941.57,1444.29Z" transform="translate(-892.83 -1380.14)"/><path class="cls-3" d="M943.13,1444.4a4.72,4.72,0,0,0-.79,1.21c-0.08.16,0.16,0.3,0.24,0.14a4.49,4.49,0,0,1,.74-1.16A0.14,0.14,0,0,0,943.13,1444.4Z" transform="translate(-892.83 -1380.14)"/><path class="cls-3" d="M914.74,1432.19a1.28,1.28,0,0,0-.37.66A4.82,4.82,0,0,0,914,1434c0,0.18.27,0.18,0.28,0a2.4,2.4,0,0,1,.28-0.75,2,2,0,0,1,.35-0.8C915,1432.33,914.89,1432.09,914.74,1432.19Z" transform="translate(-892.83 -1380.14)"/><path class="cls-3" d="M916.07,1432.52a5.52,5.52,0,0,1-.48,1.29c-0.06.17,0.21,0.24,0.27,0.07a5.63,5.63,0,0,0,.49-1.36C916.36,1432.34,916.08,1432.35,916.07,1432.52Z" transform="translate(-892.83 -1380.14)"/><path class="cls-3" d="M948.56,1414.34c0-.8-0.42-1.57-0.42-2.37a0.56,0.56,0,0,0-1.11,0c0,1.35.58,2.69,0.65,4a11.75,11.75,0,0,1-1.76,6.49c-0.39.73-1.68,1.14-2.36,1.5a14.54,14.54,0,0,1-3.56,1.19,30.88,30.88,0,0,1-7.27.65,27.83,27.83,0,0,1-6.35-.81c-2.14-.5-4.44-0.95-6.08-2.52-2.85-2.73-2.81-7.51-1.69-11.08a0.56,0.56,0,0,0-1.07-.3,20,20,0,0,0-.65,6,8.84,8.84,0,0,0,2,5.59c1.42,1.78,3.82,2.61,5.94,3.13a33.8,33.8,0,0,0,7,1.1c5.12,0.14,10.55-.32,14.77-3.49a5.91,5.91,0,0,0,1.26-2.05,8.2,8.2,0,0,0,.91-3.44c0-.66.08-1.31,0.08-2S948.56,1414.89,948.56,1414.34Z" transform="translate(-892.83 -1380.14)"/><path class="cls-3" d="M935.93,1418.42c-0.5,3-7,2.81-7.26-.32-0.06-.71-1.17-0.72-1.11,0,0.36,4.34,8.72,5,9.45.61C937.12,1418,936,1417.71,935.93,1418.42Z" transform="translate(-892.83 -1380.14)"/><path class="cls-3" d="M957.86,1404.37c-0.06-1.24-1.93-2.25-3-2.2-2.09.09-2.94,1.66-4.64,2.58-1,.56-1.65,1.42-2.84,1.8-0.19.06-.39,0-0.58,0.11a1,1,0,0,0,.54,1.12,3.73,3.73,0,0,0,1-.35,3.63,3.63,0,0,0,1.09-.6,11.67,11.67,0,0,1,2.12-1.51,15.12,15.12,0,0,0,1.72-1.51,2.49,2.49,0,0,1,2.83-.07c1.16,0.61.77,2.26,0.32,3.23-0.69,1.5-3.06,2.26-4.46,2.84a13,13,0,0,1-4.85,1.09c-1.56,0-3.13-.1-4.69-0.16-3-.11-6,0-9,0-3.52,0-7,0-10.57-.09a24.88,24.88,0,0,1-9.18-1.73,8,8,0,0,1-3.48-2.79,4.85,4.85,0,0,1-.92-2.36c0-1.32,1.68-1.68,2.69-1.78,0.77-.08,1.71,1,2.29,1.43s1.06,0.93,1.59,1.39,1.23,0.84,1.8,1.3a5.63,5.63,0,0,0,.75.61,3.73,3.73,0,0,0,.69.4,0.73,0.73,0,0,0,.58-0.51c0.4-.7-1.17-1.23-1.58-1.56-0.83-.66-1.68-1.26-2.48-2-1.16-1-2.38-2.35-4-2.18-1.14.12-3,.72-3.31,2.05a3.89,3.89,0,0,0,.09,2.14,6.92,6.92,0,0,0,1.26,2.21c2.71,2.65,6,3.73,9.74,4.22,4.7,0.62,9.6.3,14.33,0.3h0c3.87,0,7.91-.33,11.74.16a12.75,12.75,0,0,0,5.56-.65,17.19,17.19,0,0,0,5.12-2.45A5,5,0,0,0,957.86,1404.37Z" transform="translate(-892.83 -1380.14)"/><path class="cls-3" d="M947.73,1408.23c-0.21-1-.78-2-1.08-3-0.22-.72-1.6-0.52-2.1-0.59-2.59-.36-5.24-0.05-7.83-0.39s-5.59,0-8.34-.13c-1.48-.09-3,0-4.47,0-1.32,0-2.71-.18-4-0.09a0.57,0.57,0,0,0-.56.56v0.09a0.61,0.61,0,0,0,0,.11,0.62,0.62,0,0,0,0,.08c0,1.09-.95,2-0.79,3.13,0.11,0.76,1.42.61,1.9,0.58a46.9,46.9,0,0,1,5,.23c1.6,0.1,3.22,0,4.81.19a90.24,90.24,0,0,0,9.31.41c1.46,0,3-.11,4.41-0.21,0.71-.05,1.4-0.16,2.12-0.16a2.32,2.32,0,0,0,1.37-.17A0.57,0.57,0,0,0,947.73,1408.23Zm-2.11-.32c-0.7,0-1.35.14-2,.19-1.13.08-2.31,0.19-3.45,0.19-2.89,0-5.77-.21-8.64-0.29-2.66-.07-5.33-0.43-8-0.46-1.16,0-2.32-.14-3.49-0.07-0.64,0-.07-0.72.06-1.08a5.78,5.78,0,0,0,.36-1.28c0.85,0,1.72.11,2.56,0.11h3.94c2.65,0,5.31.09,8,.09,2.47,0,5,.11,7.5.3,1.08,0.08,2.16.21,3.24,0.25l0.06,0.23,0.29,0.71c0.14,0.35.35,0.77,0.5,1.17C946.18,1408,945.82,1407.92,945.62,1407.92Z" transform="translate(-892.83 -1380.14)"/><path class="cls-3" d="M946.51,1404.82a2.32,2.32,0,0,1-.08-0.3,7.23,7.23,0,0,0-.19-0.93,21.52,21.52,0,0,1-.73-2.2,7.75,7.75,0,0,0-1-2.06,7.13,7.13,0,0,1-.46-1.21,4.9,4.9,0,0,0-.71-1c-0.88-1.17-1.59-2.17-3.14-2.25-1.89-.1-3.82,1.12-5.55,1.69-2.08.7-4.2-1.59-6.21-1.83a8.43,8.43,0,0,0-5.56.85c-1.28.8-1.87,2.85-2.38,4.18a15.37,15.37,0,0,0-1.41,5.07,0.56,0.56,0,0,0,1.11,0,13.1,13.1,0,0,1,1.09-4c0.54-1.51,1.09-3.64,2.53-4.54,1.62-1,4.44-.71,6,0.11a8.8,8.8,0,0,0,4.54,1.34c1.41-.14,2.86-1,4.21-1.46s2.4-.54,3.15.64a12.05,12.05,0,0,1,1.38,1.79c0.85,2.14,2,4.3,2.29,6.6a0.53,0.53,0,0,0,.39.39h0.08A0.6,0.6,0,0,0,946.51,1404.82Z" transform="translate(-892.83 -1380.14)"/><path class="cls-3" d="M936.68,1397.68a4.07,4.07,0,0,1-2.18,1.13c-0.6,0-1.19,0-1.79,0a8.79,8.79,0,0,1-3.06-.85,2.43,2.43,0,0,1-.91-1c-0.45-.56-1.23.23-0.79,0.79a3.66,3.66,0,0,0,1.58,1.39,10.84,10.84,0,0,0,3.18.81,5.79,5.79,0,0,0,4.76-1.46C938,1398,937.24,1397.24,936.68,1397.68Z" transform="translate(-892.83 -1380.14)"/><path class="cls-3" d="M940.4,1425.46a23.32,23.32,0,0,1-2.73,5.58,9.76,9.76,0,0,1-5.61,3.59c-2.31.28-3.75-2.94-4.89-4.37a29.07,29.07,0,0,1-1.89-2.77c-0.52-.82-1.81-1.88-1.85-2.88a0.56,0.56,0,0,0-1.11,0,3.77,3.77,0,0,0,1.18,2.34c0.93,1,1.46,2.34,2.32,3.41,1.63,2,2.71,4.28,5.27,5.31,2.07,0.83,4.73-1.49,6.15-2.67a10.13,10.13,0,0,0,2.52-3.24c0.66-1.25,1.05-2.47,1.6-3.76C941.64,1425.37,940.68,1424.81,940.4,1425.46Z" transform="translate(-892.83 -1380.14)"/><path class="cls-3" d="M936.33,1427.77c-2.14.94-5.74,1.4-7.5-.56-0.48-.54-1.27.25-0.79,0.79,2.12,2.37,6.24,1.88,8.85.74C937.55,1428.44,937,1427.48,936.33,1427.77Z" transform="translate(-892.83 -1380.14)"/><path class="cls-3" d="M933.77,1431.43c-0.68.13-2.12,0.35-2.62-.3s-1.4,0-1,.56c0.88,1.16,2.59,1.06,3.88.81C934.77,1432.37,934.47,1431.3,933.77,1431.43Z" transform="translate(-892.83 -1380.14)"/><path class="cls-3" d="M922.47,1426.37a5.38,5.38,0,0,0-4.19,3,6.47,6.47,0,0,0-.63,3.46v0.62l-0.25.05a13.51,13.51,0,0,0-1.94.26,14.48,14.48,0,0,1-2,.18c-0.33,0-.06-0.54,0-1a11.36,11.36,0,0,1,1.13-4.55c1.46-2.52,4.38-3.3,7-3.74,0.71-.12.41-1.19-0.3-1.07a14.33,14.33,0,0,0-3.85,1,11.3,11.3,0,0,0-3.27,2.59,6.11,6.11,0,0,0-1.56,3.55,13.56,13.56,0,0,0-.35,3.86c0.16,0.88,1.9.44,2.39,0.41,0.77,0,1.52-.26,2.3-0.3a2.71,2.71,0,0,0,1.47-.25,0.94,0.94,0,0,0,.31-0.75c0.15-1.15-.24-2.28.28-3.38a4.64,4.64,0,0,1,3.43-2.85C923.18,1427.39,923.19,1426.28,922.47,1426.37Z" transform="translate(-892.83 -1380.14)"/><path class="cls-3" d="M926.79,1431.54a5,5,0,0,0-.21,1.22c0,0.1-.29,1-0.36,1.42l-0.22,0a16.62,16.62,0,0,1-2.1-.22c-0.53-.12-1.1-0.14-1.63-0.23l-0.07,0a2.43,2.43,0,0,0,.22-0.69,18.52,18.52,0,0,1,.36-2.83,26.27,26.27,0,0,1,.74-3.71,0.56,0.56,0,0,0-1.07-.3c-0.49,1.59-.41,3.36-1,4.91a4.94,4.94,0,0,0-.17,1.46,12.08,12.08,0,0,0-.24,1.8,0.53,0.53,0,0,0,.39.39c0.85,0.12,1.74.2,2.58,0.39a6.63,6.63,0,0,0,.86.18,3.28,3.28,0,0,1,1.37.06,0.54,0.54,0,0,0,.56,0c0.54-.4.35-0.83,0.52-1.43a3.64,3.64,0,0,0,.36-1.15,3.81,3.81,0,0,1,.17-0.92A0.56,0.56,0,0,0,926.79,1431.54Z" transform="translate(-892.83 -1380.14)"/><path class="cls-3" d="M943,1434a14.3,14.3,0,0,1-.56-3.63,8,8,0,0,0-1.07-3.93c-0.43-.57-1.39,0-1,0.56a4.93,4.93,0,0,1,.76,2.69,20.47,20.47,0,0,0,.58,3.86c0.22,0.88.52,0.74-.39,0.85a15.55,15.55,0,0,1-1.83,0h-0.86c-0.53,0-.35.41-0.41-0.23a19.82,19.82,0,0,1-.24-2.09,0.56,0.56,0,0,0-1.11,0c0,0.87-.21,3.44,1.11,3.44h2.67a4.59,4.59,0,0,0,2.17-.26A1,1,0,0,0,943,1434Z" transform="translate(-892.83 -1380.14)"/><path class="cls-3" d="M939.28,1435.16c-0.27-.66-1.35-0.37-1.07.3,0.14,0.35,0,.82.49,0.79-0.28,0-.56.06-0.84,0.1a9.22,9.22,0,0,1-1.39.18H935l-0.56,0c-0.42,0-.33-0.16-0.08.18a0.6,0.6,0,0,0-.79-0.16l-0.12,0a0.53,0.53,0,0,0-.32-0.1c-0.85,0-1.7-.07-2.56-0.11a2.35,2.35,0,0,0-1.51.2,0.54,0.54,0,0,0-.3-0.09c-0.61,0-1.22-.22-1.83-0.26-0.28,0-.56-0.07-0.84-0.09a2.28,2.28,0,0,0-.31,0c0-.15.08-0.33,0.09-0.44,0-.27,0-0.54,0-0.81a0.56,0.56,0,0,0-1.11,0c0,0.65-.46,2.32.64,2.36a13.35,13.35,0,0,1,1.58.08,15.75,15.75,0,0,0,1.61.24,1.67,1.67,0,0,0,1,1.82,7.56,7.56,0,0,0,3.88-.09,1.18,1.18,0,0,0,.71-1.25c0-.11,0-0.22,0-0.33a12,12,0,0,0,2.58,0,9.35,9.35,0,0,0,2.18-.3C939.82,1437.1,939.51,1435.71,939.28,1435.16Zm-6.48,3.08a21.1,21.1,0,0,1-2.52.11c-0.42,0-.45-0.14-0.48-0.5,0-.52,0-0.46.53-0.44,0.9,0,1.8.12,2.7,0.12h0a1.08,1.08,0,0,0,0,.18C933.08,1438,933.13,1438.23,932.8,1438.25Z" transform="translate(-892.83 -1380.14)"/><path class="cls-3" d="M929.57,1439.76a5.44,5.44,0,0,0-.85-1,5.29,5.29,0,0,0-1.11-1.14c-0.55-.26-1.05-0.61-1.6-0.85a0.52,0.52,0,0,0-.68-0.51,9.41,9.41,0,0,0-4.74,2.92c-1.22,1.46-1.48,3.73-1.54,5.58,0,0.46,0,1.66.49,1.91a6.41,6.41,0,0,0,2.68.25,39.57,39.57,0,0,0,5.72,0,0.55,0.55,0,0,0,.41-0.54,35.5,35.5,0,0,1-.19-3.74c0-1.1.64-1.32,1.25-2A0.84,0.84,0,0,0,929.57,1439.76Zm-2.13,1.25a4,4,0,0,0-.39,2.56,22.7,22.7,0,0,0,.14,2.3,16.53,16.53,0,0,1-3.11.07c-0.79-.06-1.56-0.14-2.35-0.14a10.94,10.94,0,0,1-1.37,0c-0.33,0-.21-0.74-0.21-1a8.29,8.29,0,0,1,1.44-5.06,7.37,7.37,0,0,1,3.25-2.1l0.16,0c1,0.06,2,1.11,2.69,1.7a4.48,4.48,0,0,0,.76.71A12.88,12.88,0,0,0,927.44,1441Z" transform="translate(-892.83 -1380.14)"/><path class="cls-3" d="M943.78,1440a4,4,0,0,0-1.59-1.59,14,14,0,0,0-2.81-1.69,0.52,0.52,0,0,0-.59-0.23,14,14,0,0,0-4.8,2.46,0.56,0.56,0,0,0,.11.87c1,0.56,2.93,1.14,3,2.58a9.91,9.91,0,0,1-.82,3.29,0.56,0.56,0,0,0,.14.54,2.09,2.09,0,0,0,1.6.26,26.61,26.61,0,0,1,3,.19,27.83,27.83,0,0,0,3.06.19,0.81,0.81,0,0,0,.93-0.65A13.7,13.7,0,0,0,943.78,1440Zm-3.08,5.5c-0.57,0-1.19-.12-1.76-0.12-0.22,0-1,0-1.41,0a6.4,6.4,0,0,0,.64-3.52c-0.26-1.33-1.55-2-2.72-2.62a12.93,12.93,0,0,1,3.36-1.62,0.6,0.6,0,0,0,.17.1,8.07,8.07,0,0,1,3.94,3.09,12.23,12.23,0,0,1,1,4.91c-0.29,0-.58-0.05-0.87-0.09C942.26,1445.53,941.45,1445.52,940.69,1445.46Z" transform="translate(-892.83 -1380.14)"/><path class="cls-3" d="M930.67,1438.93a0.56,0.56,0,0,0-.56-0.56,2.21,2.21,0,0,0-.86.32,1.65,1.65,0,0,0-.74.4,0.56,0.56,0,0,0,.79.79l0,0,0.09-.06c0.06,0,.08,0,0,0l0.06,0,0.11,0a1.82,1.82,0,0,0,.36-0.18l0.13-.06s0.13,0,0,0A0.57,0.57,0,0,0,930.67,1438.93Z" transform="translate(-892.83 -1380.14)"/><path class="cls-3" d="M934.73,1439.06a1,1,0,0,0-.73-0.59,2.21,2.21,0,0,0-.74-0.19,0.56,0.56,0,0,0-.56.56v0.09a0.54,0.54,0,0,0,.71.52l0.17,0.06,0.05,0,0.1,0,0,0a0.58,0.58,0,0,0,.55.16A0.57,0.57,0,0,0,934.73,1439.06Z" transform="translate(-892.83 -1380.14)"/><path class="cls-3" d="M926.23,1446.4c-0.19,1.31-3.26,1.43-4.17,1.46s-1.51-.11-2.27-0.11c-1.71,0,.32-0.59.85-0.65,0.7-.08.71-1.2,0-1.11s-2.7.45-3,1.49c-0.33,1.2,1.33,1.39,2.14,1.39a21.24,21.24,0,0,0,4.8-.21c0.93-.21,2.55-0.88,2.71-2C927.41,1446,926.33,1445.69,926.23,1446.4Z" transform="translate(-892.83 -1380.14)"/><path class="cls-3" d="M946.28,1446.8c-0.27-.18-1.46-0.46-1.57-0.63a0.56,0.56,0,0,0-1,.56,1.25,1.25,0,0,0,1,.57,3.41,3.41,0,0,1,.8.31s-0.8.07-1,0c-1.05-.12-2.13-0.14-3.17-0.32s-2.21-.87-3.33-0.8c0.71,0,.72-1.16,0-1.11s-1.68,1.26-.67,1.81a15.06,15.06,0,0,0,6,1.42c0.78,0.05,3.13.76,3.39-.57A1.14,1.14,0,0,0,946.28,1446.8Z" transform="translate(-892.83 -1380.14)"/><path class="cls-3" d="M918.16,1433.29c-0.72-.06-0.71,1.05,0,1.11a2.58,2.58,0,0,1,1.24.33c0.43,0.37.31,0.76-.29,0.76a0.94,0.94,0,0,0-1,.91,2.24,2.24,0,0,0,.13.93c0.27,1-1.68.87-2,.77a2.78,2.78,0,0,1-1.94-3.15,0.56,0.56,0,0,0-1.11,0,3.92,3.92,0,0,0,2.23,4c1.3,0.6,3.43.51,4-1a2.08,2.08,0,0,0,0-.94c-0.08-.54-0.34-0.33.21-0.45a1.55,1.55,0,0,0,1.26-1.14C921.36,1434,919.16,1433.38,918.16,1433.29Z" transform="translate(-892.83 -1380.14)"/><path class="cls-3" d="M937.25,1411.53a12.69,12.69,0,0,0,6,4.09c3.78,1.1,5.36.38,5.36,0.38l0-1s-1.88.7-5.21-.65-3.94-2.85-3.94-2.85Z" transform="translate(-892.83 -1380.14)"/><path class="cls-3" d="M942,1411.62s1.87,2.5,3.63,2.67a10.14,10.14,0,0,0,2.91-.08s-2.42.49-3.7-.71a4.42,4.42,0,0,1-1.43-1.92Z" transform="translate(-892.83 -1380.14)"/><path class="cls-3" d="M932.52,1411.31s-1.66,3.21-6.92,5.35-8.54,1-8.54,1l0-.92s4.62,0.74,8.06-.79a15.6,15.6,0,0,0,5.57-4,4.71,4.71,0,0,0,.57-1.15Z" transform="translate(-892.83 -1380.14)"/><path class="cls-3" d="M926.26,1411.67a11.49,11.49,0,0,1-4.64,2.86,12,12,0,0,1-4.29.76s4-1,5.22-1.82a11.27,11.27,0,0,0,2-1.75Z" transform="translate(-892.83 -1380.14)"/><path class="cls-6" d="M967.34,1413a0.27,0.27,0,0,0-.19-0.2c-1-.31-2-0.59-3-0.92s-1.84-.84-2.82-1.09c-2.06-.52-4.07-1.23-6.1-1.87-1-.3-2-0.55-2.9-0.9s-1.86-.86-2.83-1.17c-2.09-.66-4.22-1.19-6.31-1.84a0.26,0.26,0,0,0-.17,0,0.32,0.32,0,0,0-.54.17c-0.34,1.07-.39,2.14-0.67,3.22-0.17.66-.41,1.31-0.62,2s-0.3,1.32-.51,2c-0.42,1.34-.81,2.71-1.28,4-0.18.51-.41,1-0.57,1.51a18.66,18.66,0,0,1-.88,1.92,78.74,78.74,0,0,0-2.69,8.07c-0.36,1.16-.82,2.27-1.18,3.42l-1.41,4.48c-0.15.47-.61,1.39,0,1.59,0.4,0.13.75,0.37,1.15,0.5,0.59,0.19,1.19.37,1.78,0.57a19.29,19.29,0,0,0,3.22.77,25.09,25.09,0,0,1,3.51,1.06c2.19,0.69,4.4,1.26,6.57,2,0.93,0.33,1.84.73,2.78,1s2.16,0.52,3.23.82c0.54,0.15,1.06.38,1.6,0.56h0.07a0.31,0.31,0,0,0,.6-0.07c0.41-1.33.58-2.67,1-4,0.23-.67.44-1.35,0.65-2s0.58-1.34.84-2,0.55-1,.79-1.56a21.45,21.45,0,0,0,.7-2.1c0.47-1.5,1-3,1.51-4.47,0.4-1.28.74-2.55,1.08-3.84s0.44-2.42.82-3.61a28.16,28.16,0,0,1,1.44-4.12,14.33,14.33,0,0,0,.76-1.84c0.08-.25.19-0.48,0.29-0.71a1.11,1.11,0,0,0,.19-0.65A0.4,0.4,0,0,0,967.34,1413Z" transform="translate(-892.83 -1380.14)"/><path class="cls-3" d="M956.84,1445.57a0.92,0.92,0,0,1-.67-0.29l-0.55-.2c-0.31-.12-0.6-0.23-0.9-0.31-0.45-.13-0.93-0.24-1.38-0.34-0.61-.14-1.24-0.29-1.86-0.48s-1.16-.41-1.71-0.62l-1.09-.41c-1.38-.49-2.8-0.91-4.18-1.32l-2.37-.71-1.09-.37a13.32,13.32,0,0,0-2.33-.67,19.89,19.89,0,0,1-3.32-.8l-1.4-.45-0.37-.12a4.78,4.78,0,0,1-.69-0.29,4.06,4.06,0,0,0-.48-0.21,1,1,0,0,1-.62-0.53,2.16,2.16,0,0,1,.14-1.62l0.08-.22,1.41-4.48c0.18-.59.4-1.17,0.6-1.73s0.41-1.12.58-1.69,0.42-1.37.62-2.05a52.56,52.56,0,0,1,2.09-6.09c0.12-.27.24-0.51,0.37-0.75a7,7,0,0,0,.49-1.11c0.1-.33.23-0.63,0.34-0.93s0.16-.41.24-0.61c0.32-.9.61-1.85,0.89-2.77l0.38-1.24c0.09-.3.16-0.6,0.24-0.93s0.16-.7.27-1l0.21-.63c0.15-.45.29-0.87,0.41-1.3s0.19-.91.28-1.38a13.75,13.75,0,0,1,.41-1.87,1,1,0,0,1,.92-0.71,0.92,0.92,0,0,1,.39.08l0.19,0c1,0.32,2.1.63,3.13,0.92s2.12,0.6,3.17.93a14.47,14.47,0,0,1,1.64.66c0.42,0.19.81,0.37,1.21,0.51,0.59,0.21,1.21.39,1.81,0.57l1.07,0.32,1.72,0.55c1.42,0.46,2.88.94,4.34,1.31a11.09,11.09,0,0,1,1.7.63c0.4,0.17.77,0.34,1.16,0.47,0.6,0.2,1.22.38,1.82,0.56l1.18,0.35a0.88,0.88,0,0,1,.51.41,1,1,0,0,1,.28.84,1,1,0,0,1-.27.59,4.38,4.38,0,0,1-.2.5l0,0.07-0.09.2c-0.07.16-.14,0.32-0.19,0.47a15.05,15.05,0,0,1-.79,1.92,19.84,19.84,0,0,0-1.12,3.11l-0.28.92a18.12,18.12,0,0,0-.46,2c-0.1.52-.21,1.06-0.35,1.6-0.32,1.23-.67,2.54-1.09,3.87-0.24.76-.51,1.52-0.76,2.26s-0.52,1.47-.75,2.21l-0.15.48a15.56,15.56,0,0,1-.58,1.68,7.92,7.92,0,0,1-.39.75,5.48,5.48,0,0,0-.39.78c-0.12.32-.26,0.63-0.39,0.92a9.52,9.52,0,0,0-.44,1.08c-0.23.73-.44,1.39-0.66,2a19.88,19.88,0,0,0-.53,2.06c-0.14.63-.28,1.28-0.48,1.93A1,1,0,0,1,956.84,1445.57Zm-0.2-1.45h0c0.13-.48.24-1,0.35-1.46a21.16,21.16,0,0,1,.57-2.19c0.22-.65.42-1.3,0.65-2a10.62,10.62,0,0,1,.49-1.22c0.13-.29.25-0.56,0.36-0.84a6.5,6.5,0,0,1,.47-1,6.89,6.89,0,0,0,.33-0.63,14.39,14.39,0,0,0,.53-1.54l0.15-.49c0.24-.76.5-1.52,0.76-2.25s0.52-1.48.75-2.22c0.41-1.3.75-2.6,1.07-3.81,0.13-.5.23-1,0.33-1.52a19.28,19.28,0,0,1,.5-2.12l0.27-.9a20.77,20.77,0,0,1,1.2-3.31,13.79,13.79,0,0,0,.73-1.76c0.07-.21.15-0.39,0.23-0.58l0.08-.18,0-.08a3.76,3.76,0,0,0,.15-0.37,0.56,0.56,0,0,0,.12.43,0.61,0.61,0,0,0,.48.23v-0.58l-0.17-.65h0a0.28,0.28,0,0,0-.21.22,0.15,0.15,0,0,0,0,0l0.08,0-0.08,0a0.32,0.32,0,0,0,.17.19l-0.26-.13,0-.09-1-.29c-0.61-.18-1.24-0.37-1.86-0.57-0.44-.15-0.86-0.33-1.27-0.51a10,10,0,0,0-1.51-.57c-1.49-.38-3-0.86-4.42-1.33l-1.71-.55-1-.31c-0.62-.18-1.26-0.37-1.89-0.59-0.45-.16-0.88-0.36-1.3-0.55a13.32,13.32,0,0,0-1.5-.61c-1-.33-2.11-0.63-3.14-0.92s-2-.57-3.05-0.89l-0.13,0c-0.12.45-.2,0.91-0.28,1.39s-0.17,1-.3,1.49-0.28.94-.43,1.39l-0.2.61c-0.1.3-.17,0.61-0.24,0.94s-0.16.68-.26,1l-0.38,1.23c-0.28.93-.57,1.89-0.9,2.82-0.08.23-.17,0.45-0.25,0.66s-0.22.55-.31,0.83a8,8,0,0,1-.57,1.31c-0.12.23-.23,0.45-0.33,0.68a51.65,51.65,0,0,0-2,5.94c-0.2.68-.41,1.38-0.63,2.07s-0.4,1.18-.6,1.74-0.4,1.12-.58,1.68l-1.41,4.48-0.1.27a3.89,3.89,0,0,0-.18.58c0.18,0.07.34,0.15,0.5,0.23a3.77,3.77,0,0,0,.51.22l0.37,0.11,1.42,0.46a18.67,18.67,0,0,0,3.12.75,14.46,14.46,0,0,1,2.55.73l1,0.36,2.35,0.71c1.39,0.41,2.83.84,4.24,1.34l1.12,0.43c0.56,0.22,1.09.42,1.63,0.59s1.16,0.31,1.77.46,1,0.22,1.44.36,0.68,0.22,1,.34Z" transform="translate(-892.83 -1380.14)"/><path class="cls-3" d="M936.17,1436.67a0.91,0.91,0,0,1-.18.22,2.37,2.37,0,0,0-.21.32,2.44,2.44,0,0,0-.28.53,0.08,0.08,0,1,0,.15,0,2.61,2.61,0,0,1,.3-0.56,1.62,1.62,0,0,1,.22-0.3,0.56,0.56,0,0,0,.12-0.17C936.35,1436.66,936.22,1436.56,936.17,1436.67Z" transform="translate(-892.83 -1380.14)"/><path class="cls-3" d="M937.33,1437a2.44,2.44,0,0,1-.29.46c-0.12.18-.21,0.37-0.34,0.54s0,0.23.1,0.13a5.25,5.25,0,0,0,.37-0.58,3.27,3.27,0,0,0,.31-0.51C937.52,1436.94,937.37,1436.9,937.33,1437Z" transform="translate(-892.83 -1380.14)"/><path class="cls-3" d="M938,1437.45c-0.18.32-.36,0.64-0.51,1,0,0.11.08,0.21,0.13,0.09,0.15-.34.33-0.66,0.51-1C938.2,1437.44,938.07,1437.34,938,1437.45Z" transform="translate(-892.83 -1380.14)"/><path class="cls-3" d="M939,1437.72a1.81,1.81,0,0,0-.2.36c-0.09.14-.2,0.27-0.29,0.41a0.08,0.08,0,1,0,.13.09l0.27-.36L939,1438a0.68,0.68,0,0,1,.09-0.2C939.14,1437.77,939,1437.64,939,1437.72Z" transform="translate(-892.83 -1380.14)"/><path class="cls-3" d="M949.53,1440.29a3.68,3.68,0,0,0-1.11,1.3c0,0.12.11,0.16,0.15,0a3.54,3.54,0,0,1,1.06-1.21C949.71,1440.34,949.61,1440.21,949.53,1440.29Z" transform="translate(-892.83 -1380.14)"/><path class="cls-3" d="M950.53,1441.1a2.28,2.28,0,0,1-.28.38,2,2,0,0,1-.29.43c-0.08.09,0,.22,0.1,0.13s0.22-.35.36-0.51a1.21,1.21,0,0,0,.27-0.39A0.08,0.08,0,1,0,950.53,1441.1Z" transform="translate(-892.83 -1380.14)"/><path class="cls-3" d="M951.95,1441.54c0-.11-0.1-0.16-0.15,0a0.69,0.69,0,0,1-.12.14,0.94,0.94,0,0,0-.11.22,1.37,1.37,0,0,1-.27.49c-0.08.09,0,.22,0.1,0.13a1.42,1.42,0,0,0,.26-0.42,0.7,0.7,0,0,1,.15-0.32A0.4,0.4,0,0,0,951.95,1441.54Z" transform="translate(-892.83 -1380.14)"/><path class="cls-3" d="M952.84,1442.22a6.1,6.1,0,0,1-.42.69c-0.05.11,0.07,0.2,0.13,0.09a6.41,6.41,0,0,0,.44-0.74A0.08,0.08,0,1,0,952.84,1442.22Z" transform="translate(-892.83 -1380.14)"/><path class="cls-3" d="M953.93,1442.66a2.49,2.49,0,0,1-.29.68,0.08,0.08,0,1,0,.13.09,2.67,2.67,0,0,0,.31-0.73A0.08,0.08,0,1,0,953.93,1442.66Z" transform="translate(-892.83 -1380.14)"/><path class="cls-3" d="M938,1424c-0.17,0-.33,0-0.5.09a1.88,1.88,0,0,1-.66.14c-0.1,0-.16.16-0.06,0.18a1.15,1.15,0,0,0,.55-0.1,4,4,0,0,1,.65-0.12C938,1424.16,938.06,1424,938,1424Z" transform="translate(-892.83 -1380.14)"/><path class="cls-3" d="M937.45,1425.27a0.7,0.7,0,0,0-.4,0,1.3,1.3,0,0,1-.54.11c-0.1,0-.16.16-0.06,0.18,0.31,0.06.64-.22,0.95-0.15C937.49,1425.47,937.55,1425.29,937.45,1425.27Z" transform="translate(-892.83 -1380.14)"/><path class="cls-3" d="M936.81,1426.87c-0.34,0-.63.33-1,0.35-0.1,0-.12.19,0,0.19,0.34,0,.63-0.33,1-0.35C936.89,1427.05,936.91,1426.86,936.81,1426.87Z" transform="translate(-892.83 -1380.14)"/><path class="cls-3" d="M936.26,1428.3a7.08,7.08,0,0,0-.89.22c-0.1,0-.08.22,0,0.18a7.11,7.11,0,0,1,.89-0.22C936.38,1428.46,936.36,1428.28,936.26,1428.3Z" transform="translate(-892.83 -1380.14)"/><path class="cls-3" d="M962.27,1427.41a3.45,3.45,0,0,0-1.17.14c-0.1,0-.12.2,0,0.19a3.4,3.4,0,0,1,1.13-.14C962.31,1427.62,962.37,1427.43,962.27,1427.41Z" transform="translate(-892.83 -1380.14)"/><path class="cls-3" d="M962.08,1428.6a1.94,1.94,0,0,0-.51.06l-0.27.06a1,1,0,0,1-.32.08c-0.1,0-.15.16-0.06,0.18a0.93,0.93,0,0,0,.41-0.08,3.15,3.15,0,0,1,.74-0.12C962.17,1428.79,962.18,1428.6,962.08,1428.6Z" transform="translate(-892.83 -1380.14)"/><path class="cls-3" d="M961.41,1430.49l-0.37.07a1.19,1.19,0,0,1-.4.09c-0.1,0-.16.16-0.06,0.18a0.76,0.76,0,0,0,.35-0.06l0.46-.1C961.49,1430.66,961.51,1430.47,961.41,1430.49Z" transform="translate(-892.83 -1380.14)"/><path class="cls-3" d="M960.92,1432.18a2.84,2.84,0,0,0-.35,0,1.13,1.13,0,0,1-.43.06c-0.1,0-.16.16-0.06,0.18a1.21,1.21,0,0,0,.4,0c0.14,0,.28-0.05.43-0.07S961,1432.17,960.92,1432.18Z" transform="translate(-892.83 -1380.14)"/><path class="cls-3" d="M960.29,1434a2.51,2.51,0,0,0-.64.21c-0.14.07-.29,0.08-0.43,0.16a0.08,0.08,0,0,0-.1.06v0c0,0.07,0,.16.11,0.1a0.89,0.89,0,0,1,.4-0.16,3.15,3.15,0,0,0,.32-0.14,1.89,1.89,0,0,1,.34-0.09C960.38,1434.2,960.4,1434,960.29,1434Z" transform="translate(-892.83 -1380.14)"/><path class="cls-3" d="M959.66,1435.68h-0.46a2.47,2.47,0,0,1-.49,0c-0.1,0-.16.16-0.06,0.18a1.41,1.41,0,0,0,.47,0,4.32,4.32,0,0,1,.53,0C959.74,1435.87,959.76,1435.68,959.66,1435.68Z" transform="translate(-892.83 -1380.14)"/><path class="cls-3" d="M942.12,1412.35a1.06,1.06,0,0,0-.65.14,0.64,0.64,0,0,0-.4.21c-0.06.11,0.07,0.2,0.13,0.09a0.66,0.66,0,0,1,.32-0.13,0.91,0.91,0,0,1,.54-0.13C942.16,1412.56,942.21,1412.38,942.12,1412.35Z" transform="translate(-892.83 -1380.14)"/><path class="cls-3" d="M941.61,1413.44a0.79,0.79,0,0,0-.41,0,1.91,1.91,0,0,0-.45.17c-0.1.06,0,.22,0.07,0.16a1.92,1.92,0,0,1,.37-0.14,0.67,0.67,0,0,1,.37,0C941.65,1413.65,941.71,1413.47,941.61,1413.44Z" transform="translate(-892.83 -1380.14)"/><path class="cls-3" d="M941.13,1414.71a6.82,6.82,0,0,0-.82.24,0.08,0.08,0,0,0-.13,0v0a0.08,0.08,0,0,0,.09.11,8.06,8.06,0,0,1,.9-0.27C941.26,1414.87,941.23,1414.69,941.13,1414.71Z" transform="translate(-892.83 -1380.14)"/><path class="cls-3" d="M959.25,1410.56a1.6,1.6,0,0,1-.37.31,1.07,1.07,0,0,0-.28.46,0.08,0.08,0,1,0,.15,0,0.83,0.83,0,0,1,.34-0.46,0.84,0.84,0,0,0,.29-0.26C959.44,1410.55,959.31,1410.46,959.25,1410.56Z" transform="translate(-892.83 -1380.14)"/><path class="cls-3" d="M960.76,1411.21c0-.11-0.09-0.15-0.14-0.05h0l-0.05,0c-0.07,0-.13.12-0.21,0.17a1.29,1.29,0,0,0-.37.4c-0.06.1,0.07,0.2,0.13,0.09a2.24,2.24,0,0,1,.41-0.42l0.11-.08s0.12-.07,0,0A0.19,0.19,0,0,0,960.76,1411.21Z" transform="translate(-892.83 -1380.14)"/><path class="cls-3" d="M961.84,1411.42c-0.2.34-.49,0.58-0.66,0.94-0.05.11,0.08,0.2,0.13,0.09,0.17-.36.47-0.6,0.66-0.94C962,1411.41,961.9,1411.32,961.84,1411.42Z" transform="translate(-892.83 -1380.14)"/><path class="cls-3" d="M963.14,1412c-0.25.17-.48,0.38-0.71,0.58s0,0.23.07,0.16,0.46-.41.71-0.58C963.3,1412.14,963.24,1412,963.14,1412Z" transform="translate(-892.83 -1380.14)"/><path class="cls-3" d="M936.08,1429.66c-0.14,0-.28,0-0.42,0a2.85,2.85,0,0,1-.49,0c-0.39-.09-0.62.64-0.23,0.73a1.59,1.59,0,0,0,.53,0c0.09,0,.18,0,0.26,0s0.19,0,.29,0C936.43,1430.41,936.49,1429.66,936.08,1429.66Z" transform="translate(-892.83 -1380.14)"/><path class="cls-3" d="M941.44,1415.72c-0.42-.11-0.88,0-1.29-0.07s-0.62.63-.23,0.73,0.87,0,1.29.07S941.83,1415.82,941.44,1415.72Z" transform="translate(-892.83 -1380.14)"/><path class="cls-3" d="M958.82,1437.29a1.54,1.54,0,0,1-.23-0.24,4.14,4.14,0,0,1-.35-0.32,8.45,8.45,0,0,0-.67-0.86c-0.32-.26-0.69.39-0.38,0.65a8.55,8.55,0,0,1,.62.82,2.78,2.78,0,0,0,.33.31,2.48,2.48,0,0,0,.29.29C958.8,1438.14,959.18,1437.49,958.82,1437.29Z" transform="translate(-892.83 -1380.14)"/><path class="cls-3" d="M948.27,1441a5.32,5.32,0,0,1,0-.61,2.39,2.39,0,0,1,0-.73c0.12-.47-0.48-0.66-0.6-0.19a2.45,2.45,0,0,0,0,1c0,0.25,0,.52,0,0.77C947.72,1441.62,948.35,1441.42,948.27,1441Z" transform="translate(-892.83 -1380.14)"/><path class="cls-3" d="M940.33,1437.44a15.75,15.75,0,0,0-.71,1.41,0.32,0.32,0,1,0,.6.19,3.51,3.51,0,0,1,.3-0.58c0.15-.27.29-0.54,0.41-0.83C941.12,1437.17,940.52,1437,940.33,1437.44Z" transform="translate(-892.83 -1380.14)"/><path class="cls-3" d="M944.21,1417H944a2.4,2.4,0,0,1-1.08-.54,0.47,0.47,0,1,1,.56-0.75,1.63,1.63,0,0,0,.65.36,0.64,0.64,0,0,0,.57-0.28,1.84,1.84,0,0,0,.26-1.45,3.11,3.11,0,0,0-.49-1l-0.17-.26a1.52,1.52,0,0,1-.27-1,1.93,1.93,0,0,1,.47-1,2.41,2.41,0,0,1,2.32-.77,0.47,0.47,0,1,1-.14.93,1.49,1.49,0,0,0-1.47.46,1,1,0,0,0-.25.48,0.61,0.61,0,0,0,.13.41l0.16,0.24a4,4,0,0,1,.62,1.25,2.79,2.79,0,0,1-.43,2.26A1.6,1.6,0,0,1,944.21,1417Z" transform="translate(-892.83 -1380.14)"/><path class="cls-3" d="M950.43,1412.19a0.47,0.47,0,0,1-.26-0.08,3.14,3.14,0,0,0-1.09-.36,3.74,3.74,0,0,1-1.47-.53,0.47,0.47,0,0,1,.54-0.77,3,3,0,0,0,1.12.38,3.89,3.89,0,0,1,1.41.49A0.47,0.47,0,0,1,950.43,1412.19Z" transform="translate(-892.83 -1380.14)"/><path class="cls-3" d="M946.78,1418.08l-0.15,0a0.47,0.47,0,0,1-.3-0.6c0.73-2.18,1.55-4.36,2.44-6.48a0.47,0.47,0,1,1,.87.36c-0.88,2.1-1.7,4.26-2.42,6.41A0.47,0.47,0,0,1,946.78,1418.08Z" transform="translate(-892.83 -1380.14)"/><path class="cls-3" d="M956.46,1414.43a0.47,0.47,0,0,1-.26-0.08,3.14,3.14,0,0,0-1.09-.36,3.74,3.74,0,0,1-1.47-.53,0.47,0.47,0,0,1,.54-0.77,3,3,0,0,0,1.12.38,3.89,3.89,0,0,1,1.41.49A0.47,0.47,0,0,1,956.46,1414.43Z" transform="translate(-892.83 -1380.14)"/><path class="cls-3" d="M952.81,1420.32l-0.15,0a0.47,0.47,0,0,1-.3-0.6c0.73-2.18,1.55-4.36,2.44-6.48a0.47,0.47,0,1,1,.87.36c-0.88,2.1-1.7,4.26-2.42,6.41A0.47,0.47,0,0,1,952.81,1420.32Z" transform="translate(-892.83 -1380.14)"/><path class="cls-3" d="M951.3,1419.89h-0.07a0.5,0.5,0,0,1-.33-0.19,0.58,0.58,0,0,1-.1-0.44c0.27-1.89.51-3.79,0.73-5.69a44.21,44.21,0,0,0-2.51,4.69,0.47,0.47,0,1,1-.85-0.39,45,45,0,0,1,3.27-5.9,0.73,0.73,0,0,1,.4-0.33,0.56,0.56,0,0,1,.52.11,0.88,0.88,0,0,1,.24.74c-0.24,2.23-.53,4.5-0.84,6.73a0.52,0.52,0,0,1,0,.3A0.49,0.49,0,0,1,951.3,1419.89Z" transform="translate(-892.83 -1380.14)"/><path class="cls-3" d="M951.7,1417.57a0.47,0.47,0,0,1-.22-0.05l-2.19-1.15a0.47,0.47,0,0,1,.43-0.83l2.2,1.15A0.47,0.47,0,0,1,951.7,1417.57Z" transform="translate(-892.83 -1380.14)"/><path class="cls-3" d="M956.52,1421.24a1.41,1.41,0,0,1-1.39-1,1.7,1.7,0,0,1,0-.83,30.6,30.6,0,0,1,1.9-5.81,0.47,0.47,0,1,1,.86.38,29.67,29.67,0,0,0-1.84,5.64,0.92,0.92,0,0,0,0,.38,0.52,0.52,0,0,0,.53.26,1.31,1.31,0,0,0,.78-0.46,6.67,6.67,0,0,0,1.33-3l0.58-2.22a0.47,0.47,0,0,1,.91.24l-0.58,2.22a7.49,7.49,0,0,1-1.56,3.4,2.21,2.21,0,0,1-1.37.74h-0.14Z" transform="translate(-892.83 -1380.14)"/><path class="cls-3" d="M959.89,1422.68h0a2.89,2.89,0,0,1-2.35-1.25,0.47,0.47,0,1,1,.77-0.54,2,2,0,0,0,1.59.85h0a1.28,1.28,0,0,0,1.23-.77,1.6,1.6,0,0,0,0-.71,4.17,4.17,0,0,0-.43-1.29l-0.13-.24a3.54,3.54,0,0,1-.4-0.89,2.35,2.35,0,0,1,.77-2.29,2.23,2.23,0,0,1,2.29-.35,0.47,0.47,0,0,1-.37.86,1.3,1.3,0,0,0-1.32.2,1.39,1.39,0,0,0-.46,1.34,2.74,2.74,0,0,0,.3.65l0.15,0.26a5.11,5.11,0,0,1,.52,1.58,2.55,2.55,0,0,1,0,1.14A2.22,2.22,0,0,1,959.89,1422.68Z" transform="translate(-892.83 -1380.14)"/><path class="cls-3" d="M960,1425.82a0.31,0.31,0,0,1-.14,0l-2.65-1.35a37.18,37.18,0,0,0-15.52-4.93,0.31,0.31,0,0,1,.09-0.62,37.77,37.77,0,0,1,15.72,5l2.65,1.35A0.31,0.31,0,0,1,960,1425.82Z" transform="translate(-892.83 -1380.14)"/><path class="cls-3" d="M957.53,1428.9h0a2,2,0,0,1-1.49-1l-0.06-.12a0.7,0.7,0,0,0-.16-0.25,0.71,0.71,0,0,0-.44,0l-0.22,0a3.13,3.13,0,0,1-1.75-.46,4.7,4.7,0,0,0-.93-0.38,5.19,5.19,0,0,0-.66-0.1,2.28,2.28,0,0,1-1.63-.63,2.39,2.39,0,0,1-.29-0.47,0.75,0.75,0,0,0-1.2-.4,1.85,1.85,0,0,1-1.35,0,1.77,1.77,0,0,1-.56-0.52,1,1,0,0,0-1.27-.4l-0.4,0a5.55,5.55,0,0,1-2.22-.47,4.56,4.56,0,0,0-2.09-.42,0.31,0.31,0,1,1-.08-0.62,5.09,5.09,0,0,1,2.38.45,5,5,0,0,0,2,.43l0.36,0a2,2,0,0,1,1.36.15,2,2,0,0,1,.48.48,1.27,1.27,0,0,0,.36.35,1.38,1.38,0,0,0,.9-0.06,1.33,1.33,0,0,1,1.92.73,1.86,1.86,0,0,0,.21.35,1.79,1.79,0,0,0,1.22.41,5.71,5.71,0,0,1,.74.11,5.23,5.23,0,0,1,1.05.42,2.63,2.63,0,0,0,1.4.4l0.19,0a1,1,0,0,1,1.28.6l0.05,0.1a1.36,1.36,0,0,0,1,.71A0.31,0.31,0,0,1,957.53,1428.9Z" transform="translate(-892.83 -1380.14)"/><path class="cls-3" d="M955.49,1431.36a0.31,0.31,0,0,1-.23-0.1,3.9,3.9,0,0,0-2.35-.95l-0.6-.07a5.88,5.88,0,0,1-3.28-1c-0.23-.14-0.45-0.28-0.69-0.4a10.25,10.25,0,0,0-2.27-.74l-3.57-.86a2.88,2.88,0,0,0-2.19,0,0.31,0.31,0,0,1-.34-0.53,3.41,3.41,0,0,1,2.68-.12l3.57,0.86a10.72,10.72,0,0,1,2.41.79c0.25,0.13.49,0.28,0.73,0.42a5.29,5.29,0,0,0,3,.94l0.61,0.07a4.46,4.46,0,0,1,2.73,1.14A0.31,0.31,0,0,1,955.49,1431.36Z" transform="translate(-892.83 -1380.14)"/><path class="cls-3" d="M954.78,1434.83a5.28,5.28,0,0,1-2.75-1.1,8.41,8.41,0,0,0-1.63-.88,7.54,7.54,0,0,0-2-.32c-0.34,0-.69-0.05-1-0.1a17,17,0,0,1-3.27-.92,10.21,10.21,0,0,0-4.65-.89,0.31,0.31,0,0,1-.08-0.62,10.82,10.82,0,0,1,4.94.92,16.52,16.52,0,0,0,3.15.89c0.33,0,.67.07,1,0.1a8.14,8.14,0,0,1,2.13.35,8.89,8.89,0,0,1,1.76.94,4.28,4.28,0,0,0,2.66,1,0.31,0.31,0,0,1,.07.62Z" transform="translate(-892.83 -1380.14)"/><path class="cls-3" d="M954.07,1438.17a0.31,0.31,0,0,1-.15,0,4.12,4.12,0,0,0-1.54-.38l-0.64-.09a12.29,12.29,0,0,1-2.61-.85l-0.58-.24a50.29,50.29,0,0,0-7-2l-3.13-.74a0.31,0.31,0,1,1,.14-0.61l3.13,0.75a50.74,50.74,0,0,1,7.07,2l0.59,0.24a11.83,11.83,0,0,0,2.47.81l0.61,0.08a4.65,4.65,0,0,1,1.77.45A0.31,0.31,0,0,1,954.07,1438.17Z" transform="translate(-892.83 -1380.14)"/><path class="cls-7" d="M962.73,1433.25c-1.63,1.85-3.32.78-4.46-.59s-1-3.55.5-4.35,2.31,0.9,3.28.22,2.12-.94,2.29-0.37C964.82,1429.74,964.36,1431.4,962.73,1433.25Z" transform="translate(-892.83 -1380.14)"/><path class="cls-3" d="M960.87,1434.71a4.07,4.07,0,0,1-3-1.75,3.71,3.71,0,0,1-.81-3.07,2.81,2.81,0,0,1,1.45-2,2.24,2.24,0,0,1,1-.27,3,3,0,0,1,1.34.38,1.76,1.76,0,0,0,.63.22,0.37,0.37,0,0,0,.23-0.08,3.82,3.82,0,0,1,2-.77,1,1,0,0,1,1,.64c0.54,1.8,0,3.61-1.71,5.53A3,3,0,0,1,960.87,1434.71Zm-1.27-6.14a1.3,1.3,0,0,0-.61.16,1.88,1.88,0,0,0-1,1.34,2.81,2.81,0,0,0,.61,2.29,3.34,3.34,0,0,0,2.24,1.41,2.06,2.06,0,0,0,1.51-.83c1.45-1.64,1.95-3.15,1.53-4.61h-0.11a3,3,0,0,0-1.47.6,1.31,1.31,0,0,1-.77.25,2.4,2.4,0,0,1-1-.31A2.19,2.19,0,0,0,959.6,1428.57Z" transform="translate(-892.83 -1380.14)"/></svg>