<svg id="menu" xmlns="http://www.w3.org/2000/svg" xmlns:xlink="http://www.w3.org/1999/xlink" viewBox="0 0 85.01 85.01"><defs><style>.cls-1{fill:none;}.cls-173,.cls-2{fill:#fcfcfc;}.cls-2{stroke:#9f6c00;stroke-miterlimit:10;stroke-width:5px;}.cls-3{fill:#9f6c00;}.cls-4{fill:#fff;}.cls-5{fill:#b071aa;}.cls-6{fill:#e4e2f1;}.cls-7{clip-path:url(#clip-path);}.cls-8{fill:#f7caa9;}.cls-9{fill:#f7c9a8;}.cls-10{fill:#f7c8a7;}.cls-11{fill:#f7c8a6;}.cls-12{fill:#f6c7a5;}.cls-13{fill:#f6c6a4;}.cls-14{fill:#f6c6a3;}.cls-15{fill:#f6c5a2;}.cls-16{fill:#f6c5a1;}.cls-17{fill:#f6c4a0;}.cls-18{fill:#f6c39f;}.cls-19{fill:#f6c39e;}.cls-20{fill:#f6c29d;}.cls-21{fill:#f6c19c;}.cls-22{fill:#f6c19b;}.cls-23{fill:#f5c09a;}.cls-24{fill:#f5c099;}.cls-25{fill:#f5bf98;}.cls-26{fill:#f5be97;}.cls-27{fill:#f5be96;}.cls-28{fill:#f5bd95;}.cls-29{fill:#f5bc94;}.cls-30{fill:#f5bc93;}.cls-31{fill:#f5bb92;}.cls-32{fill:#f5bb91;}.cls-33{fill:#f5ba90;}.cls-34{fill:#f4b98f;}.cls-35{fill:#f4b98e;}.cls-36{fill:#f4b88d;}.cls-37{fill:#f4b78c;}.cls-38{fill:#f4b78b;}.cls-39{fill:#f4b68a;}.cls-40{fill:#f4b689;}.cls-41{fill:#f4b588;}.cls-42{fill:#f4b487;}.cls-43{fill:#f4b486;}.cls-44{fill:#f3b385;}.cls-45{fill:#f3b284;}.cls-46{fill:#f3b283;}.cls-47{fill:#f3b182;}.cls-48{fill:#f3b181;}.cls-49{fill:#f3b080;}.cls-50{fill:#f3af7e;}.cls-51{fill:#f3af7d;}.cls-52{fill:#f3ae7c;}.cls-53{fill:#f3ae7b;}.cls-54{fill:#f3ad7a;}.cls-55{fill:#f2ac79;}.cls-56{fill:#f2ac78;}.cls-57{fill:#f2ab77;}.cls-58{fill:#f2aa76;}.cls-59{fill:#f2aa75;}.cls-60{fill:#f2a974;}.cls-61{fill:#f2a973;}.cls-62{fill:#f2a872;}.cls-63{fill:#f2a771;}.cls-64{fill:#f2a770;}.cls-65{fill:#f1a66f;}.cls-66{fill:#f1a56e;}.cls-67{fill:#f1a56d;}.cls-68{fill:#f1a46c;}.cls-69{fill:#f1a46b;}.cls-70{fill:#f1a36a;}.cls-71{fill:#f1a269;}.cls-72{fill:#f1a268;}.cls-73{fill:#f1a167;}.cls-74{fill:#f1a066;}.cls-75{fill:#f1a065;}.cls-76{fill:#f09f64;}.cls-77{fill:#f09f63;}.cls-78{fill:#f09e62;}.cls-79{fill:#f09d61;}.cls-80{fill:#f09d60;}.cls-81{fill:#f09c5f;}.cls-82{fill:#f09b5e;}.cls-83{fill:#f09b5d;}.cls-84{fill:#f09a5c;}.cls-85{fill:#f09a5b;}.cls-86{fill:#f0995a;}.cls-87{fill:#ef9859;}.cls-88{fill:#ef9858;}.cls-89{fill:#ef9757;}.cls-90{fill:#ef9656;}.cls-91{fill:#ef9655;}.cls-92{fill:#ef9554;}.cls-93{fill:#ef9553;}.cls-94{fill:#ef9452;}.cls-95{fill:#ef9351;}.cls-96{fill:#ef9350;}.cls-97{fill:#ee924f;}.cls-98{fill:#ee924e;}.cls-99{fill:#ee914d;}.cls-100{fill:#ee904c;}.cls-101{fill:#ee904b;}.cls-102{fill:#ee8f4a;}.cls-103{fill:#ee8e49;}.cls-104{fill:#ee8e48;}.cls-105{fill:#ee8d47;}.cls-106{fill:#ee8d46;}.cls-107{fill:#ee8c45;}.cls-108{fill:#ed8b44;}.cls-109{fill:#ed8b43;}.cls-110{fill:#ed8a42;}.cls-111{fill:#ed8941;}.cls-112{fill:#ed8940;}.cls-113{fill:#ed883f;}.cls-114{fill:#ed883e;}.cls-115{fill:#ed873d;}.cls-116{fill:#ed863c;}.cls-117{fill:#ed863b;}.cls-118{fill:#ec853a;}.cls-119{fill:#ec8439;}.cls-120{fill:#ec8438;}.cls-121{fill:#ec8337;}.cls-122{fill:#ec8336;}.cls-123{fill:#ec8235;}.cls-124{fill:#ec8134;}.cls-125{fill:#ec8133;}.cls-126{fill:#ec8032;}.cls-127{fill:#ec7f31;}.cls-128{fill:#ec7f30;}.cls-129{fill:#eb7e2f;}.cls-130{fill:#eb7e2e;}.cls-131{fill:#eb7d2d;}.cls-132{fill:#eb7c2c;}.cls-133{fill:#eb7c2b;}.cls-134{fill:#eb7b2a;}.cls-135{fill:#eb7b29;}.cls-136{fill:#eb7a28;}.cls-137{fill:#eb7927;}.cls-138{fill:#eb7926;}.cls-139{fill:#ea7825;}.cls-140{fill:#ea7724;}.cls-141{fill:#ea7723;}.cls-142{fill:#ea7622;}.cls-143{fill:#ea7621;}.cls-144{fill:#ea7520;}.cls-145{fill:#ea741f;}.cls-146{fill:#ea741e;}.cls-147{fill:#ea731d;}.cls-148{fill:#ea721c;}.cls-149{fill:#ea721b;}.cls-150{fill:#e9711a;}.cls-151{fill:#e97119;}.cls-152{fill:#e97018;}.cls-153{fill:#e96f17;}.cls-154{fill:#e96f16;}.cls-155{fill:#e96e15;}.cls-156{fill:#e96d14;}.cls-157{fill:#e96d13;}.cls-158{fill:#e96c12;}.cls-159{fill:#e96c11;}.cls-160{fill:#e96b10;}.cls-161{fill:#e86a0f;}.cls-162{fill:#e86a0e;}.cls-163{fill:#e8690d;}.cls-164{fill:#e8680c;}.cls-165{fill:#e8680b;}.cls-166{fill:#e8670a;}.cls-167{fill:#e86709;}.cls-168{fill:#e86608;}.cls-169{fill:#e86507;}.cls-170{fill:#e86506;}.cls-171{fill:#e76405;}.cls-172{fill:#e76304;}</style><clipPath id="clip-path" transform="translate(-788.28 -1380.14)"><path class="cls-1" d="M844.56,1412.85a10.52,10.52,0,0,1-1.63-.07c-3.84-.49-7.88-0.18-11.74-0.16h0c-4.73,0-9.63.32-14.33-.3l-0.71-.1h0c-1.11,3.57-1.16,8.35,1.69,11.08a7.61,7.61,0,0,0,2.69,1.6,0.6,0.6,0,0,1,.18.07,31.4,31.4,0,0,0,3.2.85,27.82,27.82,0,0,0,6.35.81,30.88,30.88,0,0,0,7.27-.65,20.24,20.24,0,0,0,2.52-.72,0.54,0.54,0,0,1,.44-0.18c0.2-.09.41-0.18,0.61-0.29,0.68-.36,2-0.77,2.36-1.5a11.75,11.75,0,0,0,1.76-6.49C845.13,1415.49,844.58,1414.18,844.56,1412.85Z"/></clipPath></defs><title>menu3</title><circle class="cls-2" cx="42.51" cy="42.51" r="40.01"/><path class="cls-3" d="M844.31,1412.67c0.08-.06,3.62-3,6.48-0.76s2.62,5,3.28,6.58a2.89,2.89,0,0,0,3.15,1.94,3.45,3.45,0,0,0,1.7-.6,8.13,8.13,0,0,1-4.16,2.23c-2.48.42-3.91,0.52-5-.18a9,9,0,0,1-1.75-1.46l-2.26-2.94-3.47-2.77Z" transform="translate(-788.28 -1380.14)"/><path class="cls-4" d="M843.72,1415.2a3.49,3.49,0,0,1,2.09-2.06c1.76-.78,3.37-1.06,4.64,0a6.83,6.83,0,0,1,2,4.3,3.73,3.73,0,0,0,1.3,2.7,2.33,2.33,0,0,0,1.48.65,2.38,2.38,0,0,0,1.17,0,23.61,23.61,0,0,1-4.7.68,5,5,0,0,1-3.07-1.51c-0.74-.74-1.77-1.94-2.14-2.33S843.72,1415.2,843.72,1415.2Z" transform="translate(-788.28 -1380.14)"/><path class="cls-3" d="M815.11,1411.22c-0.1,0-4.43-1.52-6.34,1.54s-0.73,5.57-.78,7.31a2.89,2.89,0,0,1-2.28,2.91,3.45,3.45,0,0,1-1.8,0,8.13,8.13,0,0,0,4.67.65c2.47-.46,3.85-0.87,4.62-1.9a9,9,0,0,0,1.13-2l1.1-3.54,2.29-3.81Z" transform="translate(-788.28 -1380.14)"/><path class="cls-4" d="M816.55,1413.39a3.49,3.49,0,0,0-2.67-1.21c-1.92-.11-3.53.18-4.33,1.65a6.83,6.83,0,0,0-.4,4.73,3.73,3.73,0,0,1-.28,3,2.33,2.33,0,0,1-1.16,1.12,2.38,2.38,0,0,1-1.11.37,23.61,23.61,0,0,0,4.64-1,5,5,0,0,0,2.36-2.49c0.43-1,1-2.44,1.19-2.92S816.55,1413.39,816.55,1413.39Z" transform="translate(-788.28 -1380.14)"/><path class="cls-3" d="M814.64,1411.78s-2-.71-1.91,1.85,1.54,2.33,1.72,2.11a3,3,0,0,0,.28-1,0.84,0.84,0,0,1-.88-0.75c-0.21-.84-0.12-1.13.31-1.45s0.64,0,.64,0Z" transform="translate(-788.28 -1380.14)"/><path class="cls-3" d="M845.78,1413.49s1.87-.92,2.1,1.64-1.28,2.48-1.48,2.28a3,3,0,0,1-.39-1,0.84,0.84,0,0,0,.79-0.84c0.11-.86,0-1.14-0.47-1.41s-0.63.07-.63,0.07Z" transform="translate(-788.28 -1380.14)"/><path class="cls-5" d="M838.69,1430.45a6,6,0,0,0-.42-2.09,22.41,22.41,0,0,1-1,2.23,10.93,10.93,0,0,1-1.74,2.51c0,0.63.16,1.22,0.22,1.85s-0.12.23,0.41,0.23H837a15.54,15.54,0,0,0,1.83,0c0.91-.11.61,0,0.39-0.85A20.48,20.48,0,0,1,838.69,1430.45Z" transform="translate(-788.28 -1380.14)"/><path class="cls-4" d="M831.93,1437.5c-0.25-.33-0.34-0.19.08-0.18h2a9.18,9.18,0,0,0,1.39-.18c0.28,0,.56-0.08.84-0.1-0.47,0-.35-0.4-0.48-0.75h-0.22c-0.89,0-1.08-1.15-1.12-2.18-1.48,1.22-3.89,3.14-5.8,2.38a8,8,0,0,1-3.4-2.79,6.35,6.35,0,0,1-.36,1c-0.16.6,0,1-.52,1.43a0.54,0.54,0,0,1-.56,0,0.63,0.63,0,0,0-.32-0.1c0,0.14,0,.28,0,0.41s-0.07.28-.09,0.44a2.25,2.25,0,0,1,.31,0c0.28,0,.56.07,0.84,0.09,0.61,0,1.22.26,1.83,0.26a0.54,0.54,0,0,1,.3.09,2.35,2.35,0,0,1,1.51-.2c0.85,0,1.7.11,2.56,0.11a0.53,0.53,0,0,1,.32.1l0.12,0A0.6,0.6,0,0,1,831.93,1437.5Z" transform="translate(-788.28 -1380.14)"/><path class="cls-4" d="M826.18,1438.33a15.67,15.67,0,0,1-1.61-.24h-0.06c0.2,0.12.41,0.23,0.62,0.33a5.3,5.3,0,0,1,1.11,1.14l0.11,0.11,0.11-.06A2.09,2.09,0,0,1,826.18,1438.33Z" transform="translate(-788.28 -1380.14)"/><path class="cls-4" d="M831.73,1438.47c0,0.11,0,.22,0,0.33a2.07,2.07,0,0,1-.06.52l0.23,0.11a15.64,15.64,0,0,1,1.43-.93A6.08,6.08,0,0,1,831.73,1438.47Z" transform="translate(-788.28 -1380.14)"/><path class="cls-4" d="M838.5,1447.44c-0.89-.1-1.8-0.17-2.7-0.18a0.57,0.57,0,0,1-.27.09c1.12-.07,2.22.61,3.33,0.8s2.12,0.2,3.17.32c0.2,0,1,0,1,0a3.41,3.41,0,0,0-.8-0.31,1.28,1.28,0,0,1-.9-0.48A28.34,28.34,0,0,1,838.5,1447.44Z" transform="translate(-788.28 -1380.14)"/><path class="cls-5" d="M836.33,1438.4A12.94,12.94,0,0,0,833,1440c1.17,0.6,2.46,1.29,2.72,2.62a6.4,6.4,0,0,1-.64,3.52c0.44,0,1.19,0,1.41,0,0.57,0,1.19.07,1.76,0.12,0.76,0.06,1.57.07,2.32,0.16,0.29,0,.58.08,0.87,0.09a12.23,12.23,0,0,0-1-4.91,8.07,8.07,0,0,0-3.94-3.09A0.6,0.6,0,0,1,836.33,1438.4Z" transform="translate(-788.28 -1380.14)"/><path class="cls-6" d="M821.44,1404.91c1.48,0,3-.06,4.47,0,2.76,0.16,5.61-.23,8.34.13s5.24,0,7.83.39c0.18,0,.48,0,0.79,0a36.9,36.9,0,0,0-2.17-5.93,12.08,12.08,0,0,0-1.38-1.79c-0.75-1.19-1.95-1-3.15-.64s-2.8,1.32-4.21,1.46a8.81,8.81,0,0,1-4.54-1.34c-1.56-.82-4.38-1.13-6-0.11-1.44.91-2,3-2.53,4.54a19.89,19.89,0,0,0-1,3.13C819.06,1404.77,820.28,1404.91,821.44,1404.91Z" transform="translate(-788.28 -1380.14)"/><path class="cls-4" d="M820,1427a0.53,0.53,0,0,1,.24-0.31,2.94,2.94,0,0,1-.28-0.74q-0.46-.18-0.91-0.4c-2.59.44-5.43,1.23-6.87,3.71a11.36,11.36,0,0,0-1.13,4.55c-0.06.48-.33,1,0,1a14.57,14.57,0,0,0,2-.18,13.51,13.51,0,0,1,1.94-.26l0.25-.05v-0.62a6.46,6.46,0,0,1,.63-3.46,5.38,5.38,0,0,1,4.08-3C819.91,1427.11,819.93,1427,820,1427Z" transform="translate(-788.28 -1380.14)"/><path class="cls-4" d="M816,1435.26a2.72,2.72,0,0,1-1.47.25c-0.77,0-1.52.25-2.3,0.3l-0.42.05a2.75,2.75,0,0,0,1.94,3.05c0.37,0.1,2.32.25,2-.77a2.24,2.24,0,0,1-.13-0.93,0.94,0.94,0,0,1,1-.91c0.59,0,.72-0.4.29-0.76a1.94,1.94,0,0,0-.93-0.3Z" transform="translate(-788.28 -1380.14)"/><path class="cls-5" d="M817.53,1408.28c1.17-.07,2.33.06,3.49,0.07,2.66,0,5.33.39,8,.46,2.88,0.08,5.76.29,8.64,0.29,1.14,0,2.31-.11,3.45-0.19,0.7,0,1.35-.19,2-0.19,0.2,0,.56.06,0.87,0.06-0.15-.4-0.36-0.82-0.5-1.17l-0.29-.71-0.06-.23c-1.08,0-2.16-.17-3.24-0.25-2.47-.19-5-0.3-7.5-0.3-2.66,0-5.31-.09-8-0.09h-3.94c-0.84,0-1.72-.11-2.56-0.11a5.78,5.78,0,0,1-.36,1.28C817.45,1407.56,816.89,1408.32,817.53,1408.28Z" transform="translate(-788.28 -1380.14)"/><path class="cls-4" d="M818.51,1447.73a0.58,0.58,0,0,1-.35.17c-0.53.06-2.56,0.65-.85,0.65,0.76,0,1.5.13,2.27,0.11s2.89-.11,3.78-0.83c-1.2,0-2.39-.11-3.63-0.11C819.35,1447.72,818.93,1447.74,818.51,1447.73Z" transform="translate(-788.28 -1380.14)"/><path class="cls-5" d="M825.23,1440.13c-0.66-.59-1.72-1.64-2.69-1.7l-0.16,0a7.37,7.37,0,0,0-3.25,2.1,8.29,8.29,0,0,0-1.44,5.06c0,0.26-.13,1,0.21,1a10.94,10.94,0,0,0,1.37,0c0.79,0,1.56.08,2.35,0.14a16.55,16.55,0,0,0,3.11-.07,22.7,22.7,0,0,1-.14-2.3,4,4,0,0,1,.39-2.56,13,13,0,0,1,1-1A4.47,4.47,0,0,1,825.23,1440.13Z" transform="translate(-788.28 -1380.14)"/><path class="cls-5" d="M823.75,1435c0.07-.42.36-1.31,0.36-1.42a4.57,4.57,0,0,1,.18-1.11c-0.3-.42-0.61-0.84-0.95-1.26-0.86-1.07-1.39-2.38-2.32-3.41l-0.11-.13a30.44,30.44,0,0,0-.63,3.31,18.52,18.52,0,0,0-.36,2.83,2.43,2.43,0,0,1-.22.69l0.07,0c0.54,0.09,1.11.11,1.63,0.23a16.56,16.56,0,0,0,2.1.22Z" transform="translate(-788.28 -1380.14)"/><path class="cls-6" d="M829.43,1435.44a9.19,9.19,0,0,0,4.86-2.74,0.5,0.5,0,0,1,.33-0.34c0.15-.17.3-0.34,0.43-0.51a18.25,18.25,0,0,0,2.38-4.73,33.16,33.16,0,0,1-15.23-.48l-1-.28c0.43,0.69,1.16,1.37,1.51,1.94a29.11,29.11,0,0,0,1.89,2.77C825.69,1432.5,827.12,1435.73,829.43,1435.44Z" transform="translate(-788.28 -1380.14)"/><path class="cls-4" d="M830.59,1438.35h0c-0.9,0-1.8-.1-2.7-0.12-0.51,0-.57-0.08-0.53.44,0,0.37.05,0.48,0.48,0.5a21.1,21.1,0,0,0,2.52-.11c0.33,0,.28-0.24.28-0.52A1.07,1.07,0,0,1,830.59,1438.35Z" transform="translate(-788.28 -1380.14)"/><path class="cls-4" d="M844.26,1436.75a6.74,6.74,0,0,1-2.12-.61,1.06,1.06,0,0,0-.84.62,6.53,6.53,0,0,1,1.59.31,1.88,1.88,0,0,1,.77,1.36c0,0.44-.19,1.34.58,1.37a2.61,2.61,0,0,0,1.67-.34c0.65-.48,1.19-1.52.55-2.22A10.12,10.12,0,0,1,844.26,1436.75Z" transform="translate(-788.28 -1380.14)"/><path class="cls-6" d="M853.86,1407.76c0.45-1,.84-2.62-0.32-3.23a2.49,2.49,0,0,0-2.83.07,15.12,15.12,0,0,1-1.72,1.51,11.67,11.67,0,0,0-2.12,1.51,3.64,3.64,0,0,1-1.09.6c-0.17.06-.44,0.2-0.68,0.29a5.3,5.3,0,0,1,.14.52,0.57,0.57,0,0,1-.26.63,2.32,2.32,0,0,1-1.37.17c-0.72,0-1.4.11-2.12,0.16-1.45.1-3,.25-4.41,0.21a90.24,90.24,0,0,1-9.31-.41c-1.59-.2-3.21-0.09-4.81-0.19a47,47,0,0,0-5-.23c-0.48,0-1.79.18-1.9-.58a2.31,2.31,0,0,1,.13-1.07l-0.34-.22a5.65,5.65,0,0,1-.75-0.61c-0.57-.46-1.25-0.82-1.8-1.3s-1-1-1.59-1.39-1.52-1.51-2.29-1.43c-1,.1-2.68.46-2.69,1.78a4.85,4.85,0,0,0,.92,2.36,8,8,0,0,0,3.48,2.79,24.88,24.88,0,0,0,9.18,1.73c3.52,0.08,7,.09,10.57.09,3,0,6-.08,9,0,1.56,0.06,3.13.18,4.69,0.16a13,13,0,0,0,4.85-1.09C850.81,1410,853.17,1409.26,853.86,1407.76Z" transform="translate(-788.28 -1380.14)"/><g class="cls-7"><rect class="cls-8" x="26.69" y="46.44" width="30.37" height="0.05"/><rect class="cls-9" x="26.69" y="46.36" width="30.37" height="0.09"/><rect class="cls-10" x="26.69" y="46.27" width="30.37" height="0.09"/><rect class="cls-11" x="26.69" y="46.18" width="30.37" height="0.09"/><rect class="cls-12" x="26.69" y="46.09" width="30.37" height="0.09"/><rect class="cls-13" x="26.69" y="46" width="30.37" height="0.09"/><rect class="cls-14" x="26.69" y="45.92" width="30.37" height="0.09"/><rect class="cls-15" x="26.69" y="45.83" width="30.37" height="0.09"/><rect class="cls-16" x="26.69" y="45.74" width="30.37" height="0.09"/><rect class="cls-17" x="26.69" y="45.65" width="30.37" height="0.09"/><rect class="cls-18" x="26.69" y="45.57" width="30.37" height="0.09"/><rect class="cls-19" x="26.69" y="45.48" width="30.37" height="0.09"/><rect class="cls-20" x="26.69" y="45.39" width="30.37" height="0.09"/><rect class="cls-21" x="26.69" y="45.3" width="30.37" height="0.09"/><rect class="cls-22" x="26.69" y="45.21" width="30.37" height="0.09"/><rect class="cls-23" x="26.69" y="45.13" width="30.37" height="0.09"/><rect class="cls-24" x="26.69" y="45.04" width="30.37" height="0.09"/><rect class="cls-25" x="26.69" y="44.95" width="30.37" height="0.09"/><rect class="cls-26" x="26.69" y="44.86" width="30.37" height="0.09"/><rect class="cls-27" x="26.69" y="44.78" width="30.37" height="0.09"/><rect class="cls-28" x="26.69" y="44.69" width="30.37" height="0.09"/><rect class="cls-29" x="26.69" y="44.6" width="30.37" height="0.09"/><rect class="cls-30" x="26.69" y="44.51" width="30.37" height="0.09"/><rect class="cls-31" x="26.69" y="44.42" width="30.37" height="0.09"/><rect class="cls-32" x="26.69" y="44.34" width="30.37" height="0.09"/><rect class="cls-33" x="26.69" y="44.25" width="30.37" height="0.09"/><rect class="cls-34" x="26.69" y="44.16" width="30.37" height="0.09"/><rect class="cls-35" x="26.69" y="44.07" width="30.37" height="0.09"/><rect class="cls-36" x="26.69" y="43.98" width="30.37" height="0.09"/><rect class="cls-37" x="26.69" y="43.9" width="30.37" height="0.09"/><rect class="cls-38" x="26.69" y="43.81" width="30.37" height="0.09"/><rect class="cls-39" x="26.69" y="43.72" width="30.37" height="0.09"/><rect class="cls-40" x="26.69" y="43.63" width="30.37" height="0.09"/><rect class="cls-41" x="26.69" y="43.55" width="30.37" height="0.09"/><rect class="cls-42" x="26.69" y="43.46" width="30.37" height="0.09"/><rect class="cls-43" x="26.69" y="43.37" width="30.37" height="0.09"/><rect class="cls-44" x="26.69" y="43.28" width="30.37" height="0.09"/><rect class="cls-45" x="26.69" y="43.19" width="30.37" height="0.09"/><rect class="cls-46" x="26.69" y="43.11" width="30.37" height="0.09"/><rect class="cls-47" x="26.69" y="43.02" width="30.37" height="0.09"/><rect class="cls-48" x="26.69" y="42.93" width="30.37" height="0.09"/><rect class="cls-49" x="26.69" y="42.84" width="30.37" height="0.09"/><rect class="cls-50" x="26.69" y="42.75" width="30.37" height="0.09"/><rect class="cls-51" x="26.69" y="42.67" width="30.37" height="0.09"/><rect class="cls-52" x="26.69" y="42.58" width="30.37" height="0.09"/><rect class="cls-53" x="26.69" y="42.49" width="30.37" height="0.09"/><rect class="cls-54" x="26.69" y="42.4" width="30.37" height="0.09"/><rect class="cls-55" x="26.69" y="42.32" width="30.37" height="0.09"/><rect class="cls-56" x="26.69" y="42.23" width="30.37" height="0.09"/><rect class="cls-57" x="26.69" y="42.14" width="30.37" height="0.09"/><rect class="cls-58" x="26.69" y="42.05" width="30.37" height="0.09"/><rect class="cls-59" x="26.69" y="41.96" width="30.37" height="0.09"/><rect class="cls-60" x="26.69" y="41.88" width="30.37" height="0.09"/><rect class="cls-61" x="26.69" y="41.79" width="30.37" height="0.09"/><rect class="cls-62" x="26.69" y="41.7" width="30.37" height="0.09"/><rect class="cls-63" x="26.69" y="41.61" width="30.37" height="0.09"/><rect class="cls-64" x="26.69" y="41.53" width="30.37" height="0.09"/><rect class="cls-65" x="26.69" y="41.44" width="30.37" height="0.09"/><rect class="cls-66" x="26.69" y="41.35" width="30.37" height="0.09"/><rect class="cls-67" x="26.69" y="41.26" width="30.37" height="0.09"/><rect class="cls-68" x="26.69" y="41.17" width="30.37" height="0.09"/><rect class="cls-69" x="26.69" y="41.09" width="30.37" height="0.09"/><rect class="cls-70" x="26.69" y="41" width="30.37" height="0.09"/><rect class="cls-71" x="26.69" y="40.91" width="30.37" height="0.09"/><rect class="cls-72" x="26.69" y="40.82" width="30.37" height="0.09"/><rect class="cls-73" x="26.69" y="40.73" width="30.37" height="0.09"/><rect class="cls-74" x="26.69" y="40.65" width="30.37" height="0.09"/><rect class="cls-75" x="26.69" y="40.56" width="30.37" height="0.09"/><rect class="cls-76" x="26.69" y="40.47" width="30.37" height="0.09"/><rect class="cls-77" x="26.69" y="40.38" width="30.37" height="0.09"/><rect class="cls-78" x="26.69" y="40.3" width="30.37" height="0.09"/><rect class="cls-79" x="26.69" y="40.21" width="30.37" height="0.09"/><rect class="cls-80" x="26.69" y="40.12" width="30.37" height="0.09"/><rect class="cls-81" x="26.69" y="40.03" width="30.37" height="0.09"/><rect class="cls-82" x="26.69" y="39.94" width="30.37" height="0.09"/><rect class="cls-83" x="26.69" y="39.86" width="30.37" height="0.09"/><rect class="cls-84" x="26.69" y="39.77" width="30.37" height="0.09"/><rect class="cls-85" x="26.69" y="39.68" width="30.37" height="0.09"/><rect class="cls-86" x="26.69" y="39.59" width="30.37" height="0.09"/><rect class="cls-87" x="26.69" y="39.5" width="30.37" height="0.09"/><rect class="cls-88" x="26.69" y="39.42" width="30.37" height="0.09"/><rect class="cls-89" x="26.69" y="39.33" width="30.37" height="0.09"/><rect class="cls-90" x="26.69" y="39.24" width="30.37" height="0.09"/><rect class="cls-91" x="26.69" y="39.15" width="30.37" height="0.09"/><rect class="cls-92" x="26.69" y="39.07" width="30.37" height="0.09"/><rect class="cls-93" x="26.69" y="38.98" width="30.37" height="0.09"/><rect class="cls-94" x="26.69" y="38.89" width="30.37" height="0.09"/><rect class="cls-95" x="26.69" y="38.8" width="30.37" height="0.09"/><rect class="cls-96" x="26.69" y="38.71" width="30.37" height="0.09"/><rect class="cls-97" x="26.69" y="38.63" width="30.37" height="0.09"/><rect class="cls-98" x="26.69" y="38.54" width="30.37" height="0.09"/><rect class="cls-99" x="26.69" y="38.45" width="30.37" height="0.09"/><rect class="cls-100" x="26.69" y="38.36" width="30.37" height="0.09"/><rect class="cls-101" x="26.69" y="38.27" width="30.37" height="0.09"/><rect class="cls-102" x="26.69" y="38.19" width="30.37" height="0.09"/><rect class="cls-103" x="26.69" y="38.1" width="30.37" height="0.09"/><rect class="cls-104" x="26.69" y="38.01" width="30.37" height="0.09"/><rect class="cls-105" x="26.69" y="37.92" width="30.37" height="0.09"/><rect class="cls-106" x="26.69" y="37.84" width="30.37" height="0.09"/><rect class="cls-107" x="26.69" y="37.75" width="30.37" height="0.09"/><rect class="cls-108" x="26.69" y="37.66" width="30.37" height="0.09"/><rect class="cls-109" x="26.69" y="37.57" width="30.37" height="0.09"/><rect class="cls-110" x="26.69" y="37.48" width="30.37" height="0.09"/><rect class="cls-111" x="26.69" y="37.4" width="30.37" height="0.09"/><rect class="cls-112" x="26.69" y="37.31" width="30.37" height="0.09"/><rect class="cls-113" x="26.69" y="37.22" width="30.37" height="0.09"/><rect class="cls-114" x="26.69" y="37.13" width="30.37" height="0.09"/><rect class="cls-115" x="26.69" y="37.05" width="30.37" height="0.09"/><rect class="cls-116" x="26.69" y="36.96" width="30.37" height="0.09"/><rect class="cls-117" x="26.69" y="36.87" width="30.37" height="0.09"/><rect class="cls-118" x="26.69" y="36.78" width="30.37" height="0.09"/><rect class="cls-119" x="26.69" y="36.69" width="30.37" height="0.09"/><rect class="cls-120" x="26.69" y="36.61" width="30.37" height="0.09"/><rect class="cls-121" x="26.69" y="36.52" width="30.37" height="0.09"/><rect class="cls-122" x="26.69" y="36.43" width="30.37" height="0.09"/><rect class="cls-123" x="26.69" y="36.34" width="30.37" height="0.09"/><rect class="cls-124" x="26.69" y="36.25" width="30.37" height="0.09"/><rect class="cls-125" x="26.69" y="36.17" width="30.37" height="0.09"/><rect class="cls-126" x="26.69" y="36.08" width="30.37" height="0.09"/><rect class="cls-127" x="26.69" y="35.99" width="30.37" height="0.09"/><rect class="cls-128" x="26.69" y="35.9" width="30.37" height="0.09"/><rect class="cls-129" x="26.69" y="35.82" width="30.37" height="0.09"/><rect class="cls-130" x="26.69" y="35.73" width="30.37" height="0.09"/><rect class="cls-131" x="26.69" y="35.64" width="30.37" height="0.09"/><rect class="cls-132" x="26.69" y="35.55" width="30.37" height="0.09"/><rect class="cls-133" x="26.69" y="35.46" width="30.37" height="0.09"/><rect class="cls-134" x="26.69" y="35.38" width="30.37" height="0.09"/><rect class="cls-135" x="26.69" y="35.29" width="30.37" height="0.09"/><rect class="cls-136" x="26.69" y="35.2" width="30.37" height="0.09"/><rect class="cls-137" x="26.69" y="35.11" width="30.37" height="0.09"/><rect class="cls-138" x="26.69" y="35.02" width="30.37" height="0.09"/><rect class="cls-139" x="26.69" y="34.94" width="30.37" height="0.09"/><rect class="cls-140" x="26.69" y="34.85" width="30.37" height="0.09"/><rect class="cls-141" x="26.69" y="34.76" width="30.37" height="0.09"/><rect class="cls-142" x="26.69" y="34.67" width="30.37" height="0.09"/><rect class="cls-143" x="26.69" y="34.59" width="30.37" height="0.09"/><rect class="cls-144" x="26.69" y="34.5" width="30.37" height="0.09"/><rect class="cls-145" x="26.69" y="34.41" width="30.37" height="0.09"/><rect class="cls-146" x="26.69" y="34.32" width="30.37" height="0.09"/><rect class="cls-147" x="26.69" y="34.23" width="30.37" height="0.09"/><rect class="cls-148" x="26.69" y="34.15" width="30.37" height="0.09"/><rect class="cls-149" x="26.69" y="34.06" width="30.37" height="0.09"/><rect class="cls-150" x="26.69" y="33.97" width="30.37" height="0.09"/><rect class="cls-151" x="26.69" y="33.88" width="30.37" height="0.09"/><rect class="cls-152" x="26.69" y="33.8" width="30.37" height="0.09"/><rect class="cls-153" x="26.69" y="33.71" width="30.37" height="0.09"/><rect class="cls-154" x="26.69" y="33.62" width="30.37" height="0.09"/><rect class="cls-155" x="26.69" y="33.53" width="30.37" height="0.09"/><rect class="cls-156" x="26.69" y="33.44" width="30.37" height="0.09"/><rect class="cls-157" x="26.69" y="33.36" width="30.37" height="0.09"/><rect class="cls-158" x="26.69" y="33.27" width="30.37" height="0.09"/><rect class="cls-159" x="26.69" y="33.18" width="30.37" height="0.09"/><rect class="cls-160" x="26.69" y="33.09" width="30.37" height="0.09"/><rect class="cls-161" x="26.69" y="33" width="30.37" height="0.09"/><rect class="cls-162" x="26.69" y="32.92" width="30.37" height="0.09"/><rect class="cls-163" x="26.69" y="32.83" width="30.37" height="0.09"/><rect class="cls-164" x="26.69" y="32.74" width="30.37" height="0.09"/><rect class="cls-165" x="26.69" y="32.65" width="30.37" height="0.09"/><rect class="cls-166" x="26.69" y="32.57" width="30.37" height="0.09"/><rect class="cls-167" x="26.69" y="32.48" width="30.37" height="0.09"/><rect class="cls-168" x="26.69" y="32.39" width="30.37" height="0.09"/><rect class="cls-169" x="26.69" y="32.3" width="30.37" height="0.09"/><rect class="cls-170" x="26.69" y="32.21" width="30.37" height="0.09"/><rect class="cls-171" x="26.69" y="32.13" width="30.37" height="0.09"/><rect class="cls-172" x="26.69" y="32.08" width="30.37" height="0.05"/></g><path class="cls-4" d="M829.28,1412.16a11.93,11.93,0,0,1-6.63,5.14c-4.86,1.67-7.45.7-7.45,0.7l0.77-6.58Z" transform="translate(-788.28 -1380.14)"/><path class="cls-4" d="M835.6,1411.94s2.67,3.38,6.13,3.92a28.62,28.62,0,0,0,4,.5l-0.88-4.21Z" transform="translate(-788.28 -1380.14)"/><path class="cls-4" d="M838.9,1426.79v0l-0.11.26a0.61,0.61,0,0,1,.11.11,3.7,3.7,0,0,1,.41.72,0.58,0.58,0,0,1,.34,0,4.39,4.39,0,0,1,3.76,4.54,7.49,7.49,0,0,1-.18,2.16c-0.28.81-.1,0.59,0.59,0.84a16.12,16.12,0,0,0,1.76.44c0.23,0.06.6,0.2,0.92,0.26a10.1,10.1,0,0,0,.42-2.69,12.54,12.54,0,0,0-.35-3.17c-0.94-2.4-3.67-3.52-6-4C840,1426.44,839.45,1426.63,838.9,1426.79Z" transform="translate(-788.28 -1380.14)"/><path class="cls-3" d="M825.74,1396.49a14.11,14.11,0,0,0-3.65,2c-0.69.43-1.32,0.93-2,1.41-0.27.2-.59,0.35-0.87,0.54a2.21,2.21,0,0,1-.54.38,0.14,0.14,0,0,0,.07.27,5.26,5.26,0,0,0,1.13-.73c0.67-.39,1.25-0.92,1.9-1.36a14.66,14.66,0,0,1,4-2.23A0.14,0.14,0,0,0,825.74,1396.49Z" transform="translate(-788.28 -1380.14)"/><path class="cls-3" d="M827.48,1397a15.2,15.2,0,0,0-2.25,1.09,26.14,26.14,0,0,0-2.65,1.7l-1.25.83c-0.49.32-.88,0.74-1.4,1s-0.76.5-1.14,0.74c-0.19.12-.4,0.23-0.6,0.34a4.57,4.57,0,0,1-.45.33c-0.17.06-.09,0.33,0.07,0.27a7.66,7.66,0,0,0,.73-0.47,10.26,10.26,0,0,0,1.14-.74c0.33-.24.73-0.38,1-0.64,0.51-.42,1-0.79,1.57-1.16,0.89-.6,1.76-1.24,2.69-1.78a14.68,14.68,0,0,1,2.45-1.23,0.14,0.14,0,0,0,.22-0.11v-0.07A0.14,0.14,0,0,0,827.48,1397Z" transform="translate(-788.28 -1380.14)"/><path class="cls-3" d="M830,1397.53a5.3,5.3,0,0,0-2.72,1.41c-1,.77-2.21,1.39-3.29,2.12s-2.38,1.53-3.59,2.27a24,24,0,0,0-3.11,1.83c-0.14.12,0.06,0.31,0.2,0.2a23.58,23.58,0,0,1,3.06-1.79c1.13-.69,2.26-1.39,3.37-2.12,0.5-.33,1-0.69,1.48-1a10.47,10.47,0,0,0,1.42-.88c0.37-.32.83-0.59,1.23-0.88a3.82,3.82,0,0,1,1.95-.89A0.14,0.14,0,0,0,830,1397.53Z" transform="translate(-788.28 -1380.14)"/><path class="cls-3" d="M831.7,1398c-0.89.42-1.66,1.12-2.51,1.63s-1.85,1.29-2.8,1.9c-1.83,1.18-3.6,2.49-5.35,3.78-0.14.11,0,.35,0.14,0.24,0.87-.64,1.74-1.28,2.64-1.86s1.77-1.33,2.71-1.92,1.82-1.32,2.8-1.9,1.63-1.22,2.51-1.63C832,1398.13,831.86,1397.89,831.7,1398Z" transform="translate(-788.28 -1380.14)"/><path class="cls-3" d="M836.19,1396.91a6.46,6.46,0,0,0-2.28,1.55c-1.09.85-2.12,1.75-3.25,2.55s-2.05,1.41-3,2.16a26.42,26.42,0,0,0-2.62,2,0.14,0.14,0,0,0,.1.24h0.07a0.13,0.13,0,0,0,.13-0.14,29.23,29.23,0,0,1,2.46-1.85c0.93-.7,1.88-1.35,2.84-2s1.83-1.35,2.71-2.08c0.47-.39,1-0.76,1.43-1.14a4,4,0,0,1,1.54-1C836.44,1397.15,836.37,1396.88,836.19,1396.91Z" transform="translate(-788.28 -1380.14)"/><path class="cls-3" d="M839.57,1396.78a11.89,11.89,0,0,0-2.67,1.8c-1,.82-2,1.62-3,2.39s-1.8,1.29-2.66,2-2,1.3-2.86,2.12a0.14,0.14,0,0,0,.2.2c0.75-.71,1.68-1.17,2.48-1.82,1-.78,2-1.51,3-2.26s1.87-1.55,2.87-2.24c0.52-.36,1-0.83,1.46-1.2a8.26,8.26,0,0,1,1.39-.75C839.87,1396.95,839.73,1396.71,839.57,1396.78Z" transform="translate(-788.28 -1380.14)"/><path class="cls-3" d="M840.68,1398.66a13.86,13.86,0,0,0-2.23,1.53c-0.73.55-1.42,1.15-2.12,1.73s-1.61,1.13-2.32,1.8c-0.36.34-.75,0.65-1.12,1a4.15,4.15,0,0,0-.76.69,0.14,0.14,0,0,0,.24.14,2.58,2.58,0,0,1,.54-0.46c0.4-.35.78-0.71,1.18-1,0.72-.6,1.5-1.13,2.23-1.74s1.5-1.28,2.27-1.86a13.87,13.87,0,0,1,2.23-1.53C841,1398.83,840.84,1398.59,840.68,1398.66Z" transform="translate(-788.28 -1380.14)"/><path class="cls-3" d="M841.47,1400.53a3.32,3.32,0,0,1-.94.69l-1,.65c-0.7.45-1.44,0.86-2.11,1.36s-1.19.9-1.76,1.37a2.8,2.8,0,0,0-.73.69,0.12,0.12,0,0,0-.06.11v0.07a0.14,0.14,0,0,0,.28,0,0.81,0.81,0,0,1,.29-0.28c0.27-.21.51-0.48,0.78-0.7,0.69-.55,1.4-1.07,2.13-1.55s1.41-.9,2.1-1.36a5.38,5.38,0,0,0,1.13-.78,0.13,0.13,0,0,0,.12-0.13v-0.07A0.14,0.14,0,0,0,841.47,1400.53Z" transform="translate(-788.28 -1380.14)"/><path class="cls-3" d="M841.9,1402.48a2.66,2.66,0,0,0-1,.56c-0.45.31-.95,0.56-1.42,0.85s-1.66.79-1.74,1.51c0,0.18.26,0.18,0.28,0a2.23,2.23,0,0,1,1-.9c0.33-.22.69-0.42,1-0.62s0.67-.39,1-0.6a2.65,2.65,0,0,1,.92-0.53C842.15,1402.72,842.08,1402.45,841.9,1402.48Z" transform="translate(-788.28 -1380.14)"/><path class="cls-3" d="M843,1403.49a14.66,14.66,0,0,1-1.46,1,8.12,8.12,0,0,1-.81.66,0.59,0.59,0,0,0-.27.31c-0.06.17,0.21,0.24,0.27,0.07a1.73,1.73,0,0,1,.52-0.43c0.25-.19.48-0.41,0.74-0.59a4.94,4.94,0,0,0,1.21-.81C843.33,1403.55,843.14,1403.35,843,1403.49Z" transform="translate(-788.28 -1380.14)"/><path class="cls-3" d="M810.29,1402.45c-0.7.58-1.38,1.17-2.09,1.74a5.26,5.26,0,0,0-.79,1,3.05,3.05,0,0,0-.57.86,0.14,0.14,0,0,0,.27.07,3.82,3.82,0,0,1,.54-0.8,5.09,5.09,0,0,1,1-1.12c0.64-.51,1.25-1.05,1.88-1.57C810.63,1402.53,810.43,1402.33,810.29,1402.45Z" transform="translate(-788.28 -1380.14)"/><path class="cls-3" d="M811.93,1403.41a3.15,3.15,0,0,1-.87,1c-0.4.42-.77,0.87-1.15,1.31l-1.28,1.46a7.42,7.42,0,0,1-.81,1,0.14,0.14,0,0,0,.07.26H808a0.13,0.13,0,0,0,.13-0.14c0.21-.22.36-0.49,0.58-0.71,0.5-.52,1-1.08,1.44-1.62s0.87-1,1.33-1.49a2.48,2.48,0,0,0,.77-0.94A0.14,0.14,0,0,0,811.93,1403.41Z" transform="translate(-788.28 -1380.14)"/><path class="cls-3" d="M813.25,1405a9.22,9.22,0,0,1-1.72,2.5c-0.46.58-1.24,1.07-1.35,1.85,0,0.18.26,0.18,0.28,0a2.39,2.39,0,0,1,.79-1.16,15.42,15.42,0,0,0,1.09-1.26,6.74,6.74,0,0,0,1.17-1.87C813.58,1404.92,813.31,1404.85,813.25,1405Z" transform="translate(-788.28 -1380.14)"/><path class="cls-3" d="M814.85,1406.27a4.71,4.71,0,0,1-.56.93,10.48,10.48,0,0,1-1,1.24,4.08,4.08,0,0,0-1.15,1.67c0,0.18.23,0.25,0.27,0.07a6.27,6.27,0,0,1,1.67-2.25,4.31,4.31,0,0,0,1.05-1.58A0.14,0.14,0,0,0,814.85,1406.27Z" transform="translate(-788.28 -1380.14)"/><path class="cls-3" d="M816.4,1407.14c-0.41.66-.89,1.24-1.32,1.88a16.12,16.12,0,0,0-1.32,1.6c-0.08.16,0.16,0.3,0.24,0.14a11.26,11.26,0,0,1,1.18-1.41c0.27-.38.57-0.74,0.86-1.1a8.8,8.8,0,0,0,.6-1A0.14,0.14,0,0,0,816.4,1407.14Z" transform="translate(-788.28 -1380.14)"/><path class="cls-3" d="M817.88,1408.78c-0.36.46-.78,0.88-1.12,1.37a3.57,3.57,0,0,0-.79,1.27c0,0.18.24,0.25,0.27,0.07a3.51,3.51,0,0,1,.77-1.21c0.31-.47.73-0.87,1.08-1.31C818.19,1408.84,818,1408.64,817.88,1408.78Z" transform="translate(-788.28 -1380.14)"/><path class="cls-3" d="M820.56,1409a2,2,0,0,1-.38.36c-0.22.27-.48,0.5-0.7,0.77a7.85,7.85,0,0,0-1.14,1.35c-0.08.16,0.16,0.3,0.24,0.14a2.93,2.93,0,0,1,.65-0.76c0.25-.24.43-0.54,0.67-0.8a5.2,5.2,0,0,1,.68-0.69,0.6,0.6,0,0,0,.25-0.29C820.89,1408.89,820.63,1408.82,820.56,1409Z" transform="translate(-788.28 -1380.14)"/><path class="cls-3" d="M822.86,1409a1.48,1.48,0,0,1-.47.57c-0.22.25-.38,0.54-0.6,0.79a3.76,3.76,0,0,0-.8,1.18c-0.06.17,0.21,0.24,0.27,0.07a9.78,9.78,0,0,1,1.1-1.5,2.88,2.88,0,0,1,.61-0.73,0.42,0.42,0,0,0,.18-0.38C823.12,1408.84,822.84,1408.84,822.86,1409Z" transform="translate(-788.28 -1380.14)"/><path class="cls-3" d="M825.37,1409.4a6.22,6.22,0,0,1-1,1.33,2.63,2.63,0,0,0-.65,1.21c0,0.18.26,0.18,0.28,0a3.29,3.29,0,0,1,.89-1.39,3.29,3.29,0,0,0,.77-1.08C825.7,1409.31,825.43,1409.24,825.37,1409.4Z" transform="translate(-788.28 -1380.14)"/><path class="cls-3" d="M828.22,1409.4c0,0.06-.36.45-0.42,0.54l-0.43.61a4,4,0,0,1-.48.71,0.54,0.54,0,0,0-.2.37c0,0.18.24,0.25,0.27,0.07a1.15,1.15,0,0,1,.29-0.45c0.19-.26.35-0.54,0.53-0.81a2.12,2.12,0,0,1,.46-0.6,0.56,0.56,0,0,0,.24-0.37A0.14,0.14,0,0,0,828.22,1409.4Z" transform="translate(-788.28 -1380.14)"/><path class="cls-3" d="M830.4,1409.58a1.81,1.81,0,0,1-.38.39,4.15,4.15,0,0,0-.46.53,7.48,7.48,0,0,1-.47.59,3.54,3.54,0,0,0-.43.45c-0.11.14,0.13,0.28,0.24,0.14a3.8,3.8,0,0,1,.47-0.46c0.18-.17.31-0.42,0.47-0.61a9.47,9.47,0,0,0,.8-0.88C830.74,1409.57,830.5,1409.43,830.4,1409.58Z" transform="translate(-788.28 -1380.14)"/><path class="cls-3" d="M832.68,1409.75a2.14,2.14,0,0,1-.44.53c-0.12.15-.21,0.31-0.33,0.46a2.74,2.74,0,0,0-.62,1c0,0.18.24,0.25,0.27,0.07a3.69,3.69,0,0,1,.75-1.19,3.39,3.39,0,0,0,.64-0.83A0.14,0.14,0,0,0,832.68,1409.75Z" transform="translate(-788.28 -1380.14)"/><path class="cls-3" d="M835.92,1409.27c-0.62.64-1.08,1.42-1.67,2.09-0.12.13,0.08,0.33,0.2,0.2,0.59-.67,1-1.45,1.67-2.09A0.14,0.14,0,0,0,835.92,1409.27Z" transform="translate(-788.28 -1380.14)"/><path class="cls-3" d="M838.11,1409.4a2.24,2.24,0,0,1-.26.45,4.08,4.08,0,0,1-.42.65,6.53,6.53,0,0,0-.7,1,0.14,0.14,0,0,0,.24.14,14.36,14.36,0,0,1,.84-1.22,3.37,3.37,0,0,0,.57-1A0.14,0.14,0,0,0,838.11,1409.4Z" transform="translate(-788.28 -1380.14)"/><path class="cls-3" d="M840.86,1409.34a11.68,11.68,0,0,0-.95,1.12,8,8,0,0,0-1,1.2c-0.08.16,0.16,0.3,0.24,0.14a6.5,6.5,0,0,1,.84-1.06,14.81,14.81,0,0,1,1-1.21A0.14,0.14,0,0,0,840.86,1409.34Z" transform="translate(-788.28 -1380.14)"/><path class="cls-3" d="M842.79,1409.16c-0.11.18-.26,0.32-0.37,0.5s-0.27.49-.43,0.72c-0.28.4-.62,0.78-0.87,1.21a0.14,0.14,0,0,0,.24.14c0.22-.38.53-0.71,0.78-1.08s0.61-.9.9-1.36A0.14,0.14,0,0,0,842.79,1409.16Z" transform="translate(-788.28 -1380.14)"/><path class="cls-3" d="M845.7,1407.7a4.48,4.48,0,0,1-.45,1.09,13.67,13.67,0,0,1-.62,1.28,7.26,7.26,0,0,0-.52,1.12c0,0.09-.2.63-0.3,0.84a0.13,0.13,0,0,0-.12.13v0.07a0.14,0.14,0,0,0,.21.12,0.82,0.82,0,0,0,.27-0.5,10.34,10.34,0,0,1,.7-1.64c0.27-.48.5-1,0.72-1.51a3.55,3.55,0,0,0,.39-1C846,1407.52,845.71,1407.52,845.7,1407.7Z" transform="translate(-788.28 -1380.14)"/><path class="cls-3" d="M848.69,1405.68a4.72,4.72,0,0,1-.69,1.64c-0.27.52-.58,1-0.85,1.55a15.24,15.24,0,0,1-1.2,2.57c-0.11.14,0.09,0.34,0.2,0.2a16.9,16.9,0,0,0,1.36-2.85c0.31-.6.67-1.17,1-1.78a3.65,3.65,0,0,0,.51-1.32A0.14,0.14,0,0,0,848.69,1405.68Z" transform="translate(-788.28 -1380.14)"/><path class="cls-3" d="M852.39,1403.34a11.21,11.21,0,0,1-.77,1.7,19.51,19.51,0,0,1-1.11,2.06,22.78,22.78,0,0,0-1.07,2.12,15.39,15.39,0,0,0-.88,1.65,0.14,0.14,0,0,0,.27.07,3.35,3.35,0,0,1,.46-0.77,8.68,8.68,0,0,0,.5-1,22.52,22.52,0,0,1,1.08-2.09,19.92,19.92,0,0,0,1.1-2.1,10,10,0,0,0,.69-1.53A0.14,0.14,0,0,0,852.39,1403.34Z" transform="translate(-788.28 -1380.14)"/><path class="cls-3" d="M854.06,1404.18a15.56,15.56,0,0,1-1.21,2.94c-0.4.9-.77,1.77-1.08,2.7-0.06.17,0.21,0.24,0.27,0.07,0.33-1,.74-1.91,1.16-2.86a14.76,14.76,0,0,0,1.14-2.78C854.36,1404.08,854.1,1404,854.06,1404.18Z" transform="translate(-788.28 -1380.14)"/><path class="cls-3" d="M818.05,1422.11a1.72,1.72,0,0,1-.31.72,1.7,1.7,0,0,0-.24.75c0,0.18.27,0.18,0.28,0,0-.55.53-0.91,0.56-1.46C818.34,1421.93,818.06,1421.93,818.05,1422.11Z" transform="translate(-788.28 -1380.14)"/><path class="cls-3" d="M821.13,1423.3c-0.18.31-.33,0.63-0.5,0.94a1.87,1.87,0,0,0-.36.8c0,0.18.27,0.18,0.28,0a2,2,0,0,1,.38-0.77c0.15-.28.28-0.56,0.44-0.84A0.14,0.14,0,0,0,821.13,1423.3Z" transform="translate(-788.28 -1380.14)"/><path class="cls-3" d="M823.69,1424.34a1.43,1.43,0,0,1-.39.81c-0.17.22-.27,0.49-0.42,0.72s0.14,0.29.24,0.14c0.2-.3.35-0.62,0.57-0.91a1.35,1.35,0,0,0,.29-0.76C824,1424.16,823.7,1424.16,823.69,1424.34Z" transform="translate(-788.28 -1380.14)"/><path class="cls-3" d="M827.39,1424.86a2.34,2.34,0,0,1-.46.73,7.08,7.08,0,0,0-.57.91c-0.08.16,0.16,0.3,0.24,0.14a10.21,10.21,0,0,1,.57-0.91,2.82,2.82,0,0,0,.49-0.8A0.14,0.14,0,0,0,827.39,1424.86Z" transform="translate(-788.28 -1380.14)"/><path class="cls-3" d="M831.08,1425a3.54,3.54,0,0,1-.31.74,7.43,7.43,0,0,1-.44.83c-0.1.15,0.14,0.29,0.24,0.14a6.2,6.2,0,0,0,.44-0.83,4.29,4.29,0,0,0,.34-0.81A0.14,0.14,0,0,0,831.08,1425Z" transform="translate(-788.28 -1380.14)"/><path class="cls-3" d="M833.79,1424.86a4.2,4.2,0,0,1-.51.89c-0.14.31-.27,0.61-0.4,0.92s0.2,0.24.27,0.07c0.15-.36.3-0.73,0.47-1.08a2.83,2.83,0,0,0,.43-0.73C834.09,1424.76,833.82,1424.68,833.79,1424.86Z" transform="translate(-788.28 -1380.14)"/><path class="cls-3" d="M837.62,1424.36a1,1,0,0,0-.39.74,3.69,3.69,0,0,1-.68,1.44c-0.11.14,0.09,0.34,0.2,0.2a3.94,3.94,0,0,0,.52-0.93l0.21-.53a1,1,0,0,1,.28-0.68C837.91,1424.5,837.77,1424.26,837.62,1424.36Z" transform="translate(-788.28 -1380.14)"/><path class="cls-3" d="M840.61,1423.75c0-.18-0.3-0.1-0.27.07a1.63,1.63,0,0,1-.39.69,2.49,2.49,0,0,0-.38.83,0.14,0.14,0,0,0,.27.07,6,6,0,0,1,.5-1A1.1,1.1,0,0,0,840.61,1423.75Z" transform="translate(-788.28 -1380.14)"/><path class="cls-3" d="M842.77,1422.74a4.9,4.9,0,0,1-.47,1.88c-0.07.16,0.17,0.3,0.24,0.14a5.27,5.27,0,0,0,.51-2A0.14,0.14,0,0,0,842.77,1422.74Z" transform="translate(-788.28 -1380.14)"/><path class="cls-3" d="M825.85,1434.3h-0.07a0.14,0.14,0,0,0-.11.23,3,3,0,0,1-.35.54c-0.13.19-.24,0.4-0.38,0.59a5.06,5.06,0,0,0-.83,1.32,0.14,0.14,0,0,0,.27.07,5.43,5.43,0,0,1,.89-1.38c0.13-.19.24-0.4,0.37-0.59a1.49,1.49,0,0,0,.34-0.61A0.14,0.14,0,0,0,825.85,1434.3Z" transform="translate(-788.28 -1380.14)"/><path class="cls-3" d="M826.87,1435a7.22,7.22,0,0,0-1.43,2.29,0.14,0.14,0,0,0,.27.07,6.92,6.92,0,0,1,1.36-2.17C827.18,1435,827,1434.83,826.87,1435Z" transform="translate(-788.28 -1380.14)"/><path class="cls-3" d="M828.05,1435.66a4.38,4.38,0,0,0-1.22,1.73c-0.06.17,0.21,0.24,0.27,0.07a4.11,4.11,0,0,1,1.15-1.61A0.14,0.14,0,0,0,828.05,1435.66Z" transform="translate(-788.28 -1380.14)"/><path class="cls-3" d="M830.07,1435.87c-0.19.2-.31,0.45-0.5,0.65a1.48,1.48,0,0,0-.37.6,0.14,0.14,0,0,0,.27.07,1.43,1.43,0,0,1,.4-0.58c0.16-.16.24-0.37,0.4-0.54A0.14,0.14,0,0,0,830.07,1435.87Z" transform="translate(-788.28 -1380.14)"/><path class="cls-3" d="M832.23,1435.45a8.83,8.83,0,0,0-.65.86,2.84,2.84,0,0,0-.43.73,0.14,0.14,0,0,0,.27.07c0.08-.25.3-0.42,0.4-0.66a2.38,2.38,0,0,1,.25-0.35,3.84,3.84,0,0,1,.35-0.45A0.14,0.14,0,0,0,832.23,1435.45Z" transform="translate(-788.28 -1380.14)"/><path class="cls-3" d="M834.39,1434.55a10.16,10.16,0,0,0-1.69,2.6c-0.08.16,0.16,0.3,0.24,0.14a9.94,9.94,0,0,1,1.65-2.55A0.14,0.14,0,0,0,834.39,1434.55Z" transform="translate(-788.28 -1380.14)"/><path class="cls-3" d="M835.34,1435.2c-0.41.68-.89,1.31-1.25,2-0.08.16,0.16,0.3,0.24,0.14,0.36-.71.84-1.34,1.25-2A0.14,0.14,0,0,0,835.34,1435.2Z" transform="translate(-788.28 -1380.14)"/><path class="cls-3" d="M819.31,1445.4a3.37,3.37,0,0,1-.38.81c-0.14.23-.22,0.47-0.37,0.69s0.14,0.29.24,0.14,0.26-.52.42-0.77a3.33,3.33,0,0,0,.36-0.8A0.14,0.14,0,0,0,819.31,1445.4Z" transform="translate(-788.28 -1380.14)"/><path class="cls-3" d="M821.61,1445.4a3.18,3.18,0,0,1-.36.79c-0.14.25-.05,0.53-0.18,0.78a0.14,0.14,0,0,0,.24.14c0.13-.25.06-0.54,0.18-0.78a3.79,3.79,0,0,0,.39-0.86A0.14,0.14,0,0,0,821.61,1445.4Z" transform="translate(-788.28 -1380.14)"/><path class="cls-3" d="M823.35,1445.68a4.14,4.14,0,0,1-.4.94c-0.1.15,0.14,0.29,0.24,0.14a4.44,4.44,0,0,0,.43-1C823.68,1445.59,823.41,1445.52,823.35,1445.68Z" transform="translate(-788.28 -1380.14)"/><path class="cls-3" d="M837,1445.1a0.71,0.71,0,0,0-.45.5c-0.07.19-.11,0.38-0.19,0.56a1.58,1.58,0,0,0-.15.53c0,0.18.26,0.18,0.28,0a2.62,2.62,0,0,1,.25-0.71,0.79,0.79,0,0,1,.35-0.62C837.27,1445.31,837.2,1445,837,1445.1Z" transform="translate(-788.28 -1380.14)"/><path class="cls-3" d="M839.1,1445.09a4.28,4.28,0,0,0-.79,1.53,0.14,0.14,0,0,0,.28,0,4.1,4.1,0,0,1,.75-1.39C839.42,1445.07,839.18,1444.93,839.1,1445.09Z" transform="translate(-788.28 -1380.14)"/><path class="cls-3" d="M840.65,1445.2a4.72,4.72,0,0,0-.79,1.21c-0.08.16,0.16,0.3,0.24,0.14a4.49,4.49,0,0,1,.74-1.16A0.14,0.14,0,0,0,840.65,1445.2Z" transform="translate(-788.28 -1380.14)"/><path class="cls-3" d="M812.27,1433a1.28,1.28,0,0,0-.37.66,4.82,4.82,0,0,0-.39,1.13c0,0.18.27,0.18,0.28,0a2.4,2.4,0,0,1,.28-0.75,2,2,0,0,1,.35-0.8C812.55,1433.13,812.41,1432.89,812.27,1433Z" transform="translate(-788.28 -1380.14)"/><path class="cls-3" d="M813.59,1433.32a5.52,5.52,0,0,1-.48,1.29c-0.06.17,0.21,0.24,0.27,0.07a5.63,5.63,0,0,0,.49-1.36C813.88,1433.15,813.61,1433.15,813.59,1433.32Z" transform="translate(-788.28 -1380.14)"/><path class="cls-3" d="M844,1434.13a1.57,1.57,0,0,0-.38.55c-0.09.22-.13,0.47-0.21,0.7a0.14,0.14,0,0,0,.27.07c0.06-.19.11-0.38,0.17-0.56a1.27,1.27,0,0,1,.35-0.56A0.14,0.14,0,0,0,844,1434.13Z" transform="translate(-788.28 -1380.14)"/><path class="cls-3" d="M845.3,1434.44c-0.2.4-.43,0.79-0.63,1.18-0.08.16,0.16,0.3,0.24,0.14,0.2-.4.43-0.79,0.63-1.18C845.62,1434.42,845.38,1434.28,845.3,1434.44Z" transform="translate(-788.28 -1380.14)"/><path class="cls-3" d="M846.09,1415.14c0-.8-0.42-1.57-0.42-2.37a0.56,0.56,0,0,0-1.11,0c0,1.35.58,2.69,0.65,4a11.75,11.75,0,0,1-1.76,6.49c-0.39.73-1.68,1.14-2.36,1.5a14.54,14.54,0,0,1-3.56,1.19,30.88,30.88,0,0,1-7.27.65,27.83,27.83,0,0,1-6.35-.81c-2.14-.5-4.44-0.95-6.08-2.52-2.85-2.73-2.81-7.51-1.69-11.08a0.56,0.56,0,0,0-1.07-.3,20,20,0,0,0-.65,6,8.84,8.84,0,0,0,2,5.59c1.42,1.78,3.82,2.61,5.94,3.13a33.8,33.8,0,0,0,7,1.1c5.12,0.14,10.55-.32,14.77-3.49a5.91,5.91,0,0,0,1.26-2.05,8.2,8.2,0,0,0,.91-3.44c0-.66.08-1.31,0.08-2S846.09,1415.69,846.09,1415.14Z" transform="translate(-788.28 -1380.14)"/><path class="cls-3" d="M855.39,1405.17c-0.06-1.24-1.93-2.25-3-2.2-2.09.09-2.94,1.66-4.64,2.58-1,.56-1.65,1.42-2.84,1.8-0.19.06-.39,0-0.58,0.11a1,1,0,0,0,.54,1.12,3.73,3.73,0,0,0,1-.35,3.63,3.63,0,0,0,1.09-.6,11.67,11.67,0,0,1,2.12-1.51,15.12,15.12,0,0,0,1.72-1.51,2.49,2.49,0,0,1,2.83-.07c1.16,0.61.77,2.26,0.32,3.23-0.69,1.5-3.06,2.26-4.46,2.84a13,13,0,0,1-4.85,1.09c-1.56,0-3.13-.1-4.69-0.16-3-.11-6,0-9,0-3.52,0-7,0-10.57-.09a24.88,24.88,0,0,1-9.18-1.73,8,8,0,0,1-3.48-2.79,4.85,4.85,0,0,1-.92-2.36c0-1.32,1.68-1.68,2.69-1.78,0.77-.08,1.71,1,2.29,1.43s1.06,0.93,1.59,1.39,1.23,0.84,1.8,1.3a5.63,5.63,0,0,0,.75.61,3.73,3.73,0,0,0,.69.4,0.73,0.73,0,0,0,.58-0.51c0.4-.7-1.17-1.23-1.58-1.56-0.83-.66-1.68-1.26-2.48-2-1.16-1-2.38-2.35-4-2.18-1.14.12-3,.72-3.31,2.05a3.89,3.89,0,0,0,.09,2.14,6.92,6.92,0,0,0,1.26,2.21c2.71,2.65,6,3.73,9.74,4.22,4.7,0.62,9.6.3,14.33,0.3h0c3.87,0,7.91-.33,11.74.16a12.75,12.75,0,0,0,5.56-.65,17.19,17.19,0,0,0,5.12-2.45A5,5,0,0,0,855.39,1405.17Z" transform="translate(-788.28 -1380.14)"/><path class="cls-3" d="M845.26,1409c-0.21-1-.78-2-1.08-3-0.22-.72-1.6-0.52-2.1-0.59-2.59-.36-5.24-0.05-7.83-0.39s-5.59,0-8.34-.13c-1.48-.09-3,0-4.47,0-1.32,0-2.71-.18-4-0.09a0.57,0.57,0,0,0-.56.56v0.09a0.61,0.61,0,0,0,0,.11,0.62,0.62,0,0,0,0,.08c0,1.09-.95,2-0.79,3.13,0.11,0.76,1.42.61,1.9,0.58a46.9,46.9,0,0,1,5,.23c1.6,0.1,3.22,0,4.81.19a90.24,90.24,0,0,0,9.31.41c1.46,0,3-.11,4.41-0.21,0.71-.05,1.4-0.16,2.12-0.16a2.32,2.32,0,0,0,1.37-.17A0.57,0.57,0,0,0,845.26,1409Zm-2.11-.32c-0.7,0-1.35.14-2,.19-1.13.08-2.31,0.19-3.45,0.19-2.89,0-5.77-.21-8.64-0.29-2.66-.07-5.33-0.43-8-0.46-1.16,0-2.32-.14-3.49-0.07-0.64,0-.07-0.72.06-1.08a5.78,5.78,0,0,0,.36-1.28c0.85,0,1.72.11,2.56,0.11h3.94c2.65,0,5.31.09,8,.09,2.47,0,5,.11,7.5.3,1.08,0.08,2.16.21,3.24,0.25l0.06,0.23,0.29,0.71c0.14,0.35.35,0.77,0.5,1.17C843.71,1408.78,843.34,1408.72,843.15,1408.72Z" transform="translate(-788.28 -1380.14)"/><path class="cls-3" d="M844,1405.62a2.32,2.32,0,0,1-.08-0.3,7.23,7.23,0,0,0-.19-0.93,21.52,21.52,0,0,1-.73-2.2,7.75,7.75,0,0,0-1-2.06,7.13,7.13,0,0,1-.46-1.21,4.9,4.9,0,0,0-.71-1c-0.88-1.17-1.59-2.17-3.14-2.25-1.89-.1-3.82,1.12-5.55,1.69-2.08.7-4.2-1.59-6.21-1.83a8.43,8.43,0,0,0-5.56.85c-1.28.8-1.87,2.85-2.38,4.18a15.37,15.37,0,0,0-1.41,5.07,0.56,0.56,0,0,0,1.11,0,13.1,13.1,0,0,1,1.09-4c0.54-1.51,1.09-3.64,2.53-4.54,1.62-1,4.44-.71,6,0.11a8.8,8.8,0,0,0,4.54,1.34c1.41-.14,2.86-1,4.21-1.46s2.4-.54,3.15.64a12.05,12.05,0,0,1,1.38,1.79c0.85,2.14,2,4.3,2.29,6.6a0.53,0.53,0,0,0,.39.39h0.08A0.6,0.6,0,0,0,844,1405.62Z" transform="translate(-788.28 -1380.14)"/><path class="cls-3" d="M834.21,1398.48a4.07,4.07,0,0,1-2.18,1.13c-0.6,0-1.19,0-1.79,0a8.79,8.79,0,0,1-3.06-.85,2.43,2.43,0,0,1-.91-1c-0.45-.56-1.23.23-0.79,0.79a3.66,3.66,0,0,0,1.58,1.39,10.84,10.84,0,0,0,3.18.81,5.79,5.79,0,0,0,4.76-1.46C835.56,1398.82,834.76,1398,834.21,1398.48Z" transform="translate(-788.28 -1380.14)"/><path class="cls-3" d="M837.93,1426.27a23.32,23.32,0,0,1-2.73,5.58,9.76,9.76,0,0,1-5.61,3.59c-2.31.28-3.75-2.94-4.89-4.37a29.07,29.07,0,0,1-1.89-2.77c-0.52-.82-1.81-1.88-1.85-2.88a0.56,0.56,0,0,0-1.11,0,3.77,3.77,0,0,0,1.18,2.34c0.93,1,1.46,2.34,2.32,3.41,1.63,2,2.71,4.28,5.27,5.31,2.07,0.83,4.73-1.49,6.15-2.67a10.13,10.13,0,0,0,2.52-3.24c0.66-1.25,1.05-2.47,1.6-3.76C839.17,1426.18,838.21,1425.61,837.93,1426.27Z" transform="translate(-788.28 -1380.14)"/><path class="cls-3" d="M833.86,1428.57c-2.14.94-5.74,1.4-7.5-.56-0.48-.54-1.27.25-0.79,0.79,2.12,2.37,6.24,1.88,8.85.74C835.07,1429.25,834.51,1428.29,833.86,1428.57Z" transform="translate(-788.28 -1380.14)"/><path class="cls-3" d="M831.3,1432.23c-0.68.13-2.12,0.35-2.62-.3s-1.4,0-1,.56c0.88,1.16,2.59,1.06,3.88.81C832.3,1433.17,832,1432.1,831.3,1432.23Z" transform="translate(-788.28 -1380.14)"/><path class="cls-3" d="M820,1427.17a5.38,5.38,0,0,0-4.19,3,6.47,6.47,0,0,0-.63,3.46v0.62l-0.25.05a13.51,13.51,0,0,0-1.94.26,14.48,14.48,0,0,1-2,.18c-0.33,0-.06-0.54,0-1a11.36,11.36,0,0,1,1.13-4.55c1.46-2.52,4.38-3.3,7-3.74,0.71-.12.41-1.19-0.3-1.07a14.33,14.33,0,0,0-3.85,1,11.3,11.3,0,0,0-3.27,2.59,6.11,6.11,0,0,0-1.56,3.55,13.56,13.56,0,0,0-.35,3.86c0.16,0.88,1.9.44,2.39,0.41,0.77,0,1.52-.26,2.3-0.3a2.71,2.71,0,0,0,1.47-.25,0.94,0.94,0,0,0,.31-0.75c0.15-1.15-.24-2.28.28-3.38a4.64,4.64,0,0,1,3.43-2.85C820.7,1428.19,820.71,1427.08,820,1427.17Z" transform="translate(-788.28 -1380.14)"/><path class="cls-3" d="M847.93,1432.6a10.26,10.26,0,0,0-.74-3.67,6.94,6.94,0,0,0-2.91-2.52,10.93,10.93,0,0,0-3.73-1.31c-0.7-.14-1,0.93-0.3,1.07,2.43,0.48,5.33,1.6,6.3,4.09a12.54,12.54,0,0,1,.35,3.17,10.1,10.1,0,0,1-.42,2.69c-0.32-.06-0.69-0.2-0.92-0.26a16.06,16.06,0,0,1-1.76-.44c-0.69-.26-0.87,0-0.59-0.84a7.5,7.5,0,0,0,.18-2.16,4.39,4.39,0,0,0-3.76-4.54c-0.7-.12-1,1-0.3,1.07,1.26,0.21,2.83,1.35,3,2.7a14.31,14.31,0,0,1-.06,2c0,0.69-.44,1.25-0.43,1.93,0,1,1.83,1,2.44,1.19a7.33,7.33,0,0,0,2.9.46,0.55,0.55,0,0,0,.41-0.54,16,16,0,0,1,.44-2.17A7.79,7.79,0,0,0,847.93,1432.6Z" transform="translate(-788.28 -1380.14)"/><path class="cls-3" d="M824.32,1432.34a5,5,0,0,0-.21,1.22c0,0.1-.29,1-0.36,1.42l-0.22,0a16.62,16.62,0,0,1-2.1-.22c-0.53-.12-1.1-0.14-1.63-0.23l-0.07,0a2.43,2.43,0,0,0,.22-0.69,18.52,18.52,0,0,1,.36-2.83,26.27,26.27,0,0,1,.74-3.71,0.56,0.56,0,0,0-1.07-.3c-0.49,1.59-.41,3.36-1,4.91a4.94,4.94,0,0,0-.17,1.46,12.08,12.08,0,0,0-.24,1.8,0.53,0.53,0,0,0,.39.39c0.85,0.12,1.74.2,2.58,0.39a6.63,6.63,0,0,0,.86.18,3.28,3.28,0,0,1,1.37.06,0.54,0.54,0,0,0,.56,0c0.54-.4.35-0.83,0.52-1.43a3.64,3.64,0,0,0,.36-1.15,3.81,3.81,0,0,1,.17-0.92A0.56,0.56,0,0,0,824.32,1432.34Z" transform="translate(-788.28 -1380.14)"/><path class="cls-3" d="M840.52,1434.76a14.3,14.3,0,0,1-.56-3.63,8,8,0,0,0-1.07-3.93c-0.43-.57-1.39,0-1,0.56a4.93,4.93,0,0,1,.76,2.69,20.47,20.47,0,0,0,.58,3.86c0.22,0.88.52,0.74-.39,0.85a15.55,15.55,0,0,1-1.83,0h-0.86c-0.53,0-.35.41-0.41-0.23a19.82,19.82,0,0,1-.24-2.09,0.56,0.56,0,0,0-1.11,0c0,0.87-.21,3.44,1.11,3.44h2.67a4.59,4.59,0,0,0,2.17-.26A1,1,0,0,0,840.52,1434.76Z" transform="translate(-788.28 -1380.14)"/><path class="cls-3" d="M836.81,1436c-0.27-.66-1.35-0.37-1.07.3,0.14,0.35,0,.82.49,0.79-0.28,0-.56.06-0.84,0.1a9.22,9.22,0,0,1-1.39.18h-1.43l-0.56,0c-0.42,0-.33-0.16-0.08.18a0.6,0.6,0,0,0-.79-0.16l-0.12,0a0.53,0.53,0,0,0-.32-0.1c-0.85,0-1.7-.07-2.56-0.11a2.35,2.35,0,0,0-1.51.2,0.54,0.54,0,0,0-.3-0.09c-0.61,0-1.22-.22-1.83-0.26-0.28,0-.56-0.07-0.84-0.09a2.28,2.28,0,0,0-.31,0c0-.15.08-0.33,0.09-0.44,0-.27,0-0.54,0-0.81a0.56,0.56,0,0,0-1.11,0c0,0.65-.46,2.32.64,2.36a13.35,13.35,0,0,1,1.58.08,15.76,15.76,0,0,0,1.61.24,1.67,1.67,0,0,0,1,1.82,7.56,7.56,0,0,0,3.88-.09,1.18,1.18,0,0,0,.71-1.25c0-.11,0-0.22,0-0.33a12,12,0,0,0,2.58,0,9.35,9.35,0,0,0,2.18-.3C837.34,1437.9,837,1436.52,836.81,1436Zm-6.48,3.08a21.1,21.1,0,0,1-2.52.11c-0.42,0-.45-0.14-0.48-0.5,0-.52,0-0.46.53-0.44,0.9,0,1.8.12,2.7,0.12h0a1.08,1.08,0,0,0,0,.18C830.61,1438.81,830.66,1439,830.33,1439Z" transform="translate(-788.28 -1380.14)"/><path class="cls-3" d="M827.1,1440.56a5.44,5.44,0,0,0-.85-1,5.29,5.29,0,0,0-1.11-1.14c-0.55-.26-1.05-0.61-1.6-0.85a0.52,0.52,0,0,0-.68-0.51,9.41,9.41,0,0,0-4.74,2.92c-1.22,1.46-1.48,3.73-1.54,5.58,0,0.46,0,1.66.49,1.91a6.41,6.41,0,0,0,2.68.25,39.57,39.57,0,0,0,5.72,0,0.55,0.55,0,0,0,.41-0.54,35.5,35.5,0,0,1-.19-3.74c0-1.1.64-1.32,1.25-2A0.84,0.84,0,0,0,827.1,1440.56Zm-2.13,1.25a4,4,0,0,0-.39,2.56,22.7,22.7,0,0,0,.14,2.3,16.53,16.53,0,0,1-3.11.07c-0.79-.06-1.56-0.14-2.35-0.14a10.94,10.94,0,0,1-1.37,0c-0.33,0-.21-0.74-0.21-1a8.29,8.29,0,0,1,1.44-5.06,7.37,7.37,0,0,1,3.25-2.1l0.16,0c1,0.06,2,1.11,2.69,1.7a4.48,4.48,0,0,0,.76.71A12.88,12.88,0,0,0,825,1441.81Z" transform="translate(-788.28 -1380.14)"/><path class="cls-3" d="M841.3,1440.76a4,4,0,0,0-1.59-1.59,14,14,0,0,0-2.81-1.69,0.52,0.52,0,0,0-.59-0.23,14,14,0,0,0-4.8,2.46,0.56,0.56,0,0,0,.11.87c1,0.56,2.93,1.14,3,2.58a9.91,9.91,0,0,1-.82,3.29,0.56,0.56,0,0,0,.14.54,2.09,2.09,0,0,0,1.6.26,26.61,26.61,0,0,1,3,.19,27.83,27.83,0,0,0,3.06.19,0.81,0.81,0,0,0,.93-0.65A13.7,13.7,0,0,0,841.3,1440.76Zm-3.08,5.5c-0.57,0-1.19-.12-1.76-0.12-0.22,0-1,0-1.41,0a6.4,6.4,0,0,0,.64-3.52c-0.26-1.33-1.55-2-2.72-2.62a12.93,12.93,0,0,1,3.36-1.62,0.6,0.6,0,0,0,.17.1,8.07,8.07,0,0,1,3.94,3.09,12.23,12.23,0,0,1,1,4.91c-0.29,0-.58-0.05-0.87-0.09C839.79,1446.33,839,1446.32,838.22,1446.26Z" transform="translate(-788.28 -1380.14)"/><path class="cls-3" d="M828.19,1439.73a0.56,0.56,0,0,0-.56-0.56,2.21,2.21,0,0,0-.86.32,1.65,1.65,0,0,0-.74.4,0.56,0.56,0,0,0,.79.79l0,0,0.09-.06c0.06,0,.08,0,0,0l0.06,0,0.11,0a1.82,1.82,0,0,0,.36-0.18l0.13-.06s0.13,0,0,0A0.57,0.57,0,0,0,828.19,1439.73Z" transform="translate(-788.28 -1380.14)"/><path class="cls-3" d="M832.26,1439.86a1,1,0,0,0-.73-0.59,2.21,2.21,0,0,0-.74-0.19,0.56,0.56,0,0,0-.56.56v0.09a0.54,0.54,0,0,0,.71.52l0.17,0.06,0.05,0,0.1,0,0,0a0.58,0.58,0,0,0,.55.16A0.57,0.57,0,0,0,832.26,1439.86Z" transform="translate(-788.28 -1380.14)"/><path class="cls-3" d="M823.76,1447.2c-0.19,1.31-3.26,1.43-4.17,1.46s-1.51-.11-2.27-0.11c-1.71,0,.32-0.59.85-0.65,0.7-.08.71-1.2,0-1.11s-2.7.45-3,1.49c-0.33,1.2,1.33,1.39,2.14,1.39a21.24,21.24,0,0,0,4.8-.21c0.93-.21,2.55-0.88,2.71-2C824.93,1446.79,823.86,1446.49,823.76,1447.2Z" transform="translate(-788.28 -1380.14)"/><path class="cls-3" d="M843.81,1447.6c-0.27-.18-1.46-0.46-1.57-0.63a0.56,0.56,0,0,0-1,.56,1.25,1.25,0,0,0,1,.57,3.41,3.41,0,0,1,.8.31s-0.8.07-1,0c-1.05-.12-2.13-0.14-3.17-0.32s-2.21-.87-3.33-0.8c0.71,0,.72-1.16,0-1.11s-1.68,1.26-.67,1.81a15.06,15.06,0,0,0,6,1.42c0.78,0.05,3.13.76,3.39-.57A1.14,1.14,0,0,0,843.81,1447.6Z" transform="translate(-788.28 -1380.14)"/><path class="cls-3" d="M847.14,1436.34c-0.54-.47-1.33.32-0.79,0.79,0.8,0.7.24,1.82-.44,2.33a2.61,2.61,0,0,1-1.67.34c-0.76,0-.55-0.93-0.58-1.37a1.88,1.88,0,0,0-.77-1.36,6.54,6.54,0,0,0-1.59-.31,1.24,1.24,0,0,1,1.34-.65,0.56,0.56,0,0,0,0-1.11c-1,0-3,.59-2.57,2.06a1.28,1.28,0,0,0,1.47.85c1.56-.08.67,1.47,1.17,2.32,0.79,1.34,3.27.65,4.18-.12A2.54,2.54,0,0,0,847.14,1436.34Z" transform="translate(-788.28 -1380.14)"/><path class="cls-3" d="M815.68,1434.09c-0.72-.06-0.71,1.05,0,1.11a2.58,2.58,0,0,1,1.24.33c0.43,0.37.31,0.76-.29,0.76a0.94,0.94,0,0,0-1,.91,2.24,2.24,0,0,0,.13.93c0.27,1-1.68.87-2,.77a2.78,2.78,0,0,1-1.94-3.15,0.56,0.56,0,0,0-1.11,0,3.92,3.92,0,0,0,2.23,4c1.3,0.6,3.43.51,4-1a2.08,2.08,0,0,0,0-.94c-0.08-.54-0.34-0.33.21-0.45a1.55,1.55,0,0,0,1.26-1.14C818.88,1434.79,816.68,1434.18,815.68,1434.09Z" transform="translate(-788.28 -1380.14)"/><path class="cls-3" d="M834.78,1412.33a12.69,12.69,0,0,0,6,4.09c3.78,1.1,5.36.38,5.36,0.38l0-1s-1.88.7-5.21-.65-3.94-2.85-3.94-2.85Z" transform="translate(-788.28 -1380.14)"/><path class="cls-3" d="M839.51,1412.42s1.87,2.5,3.63,2.67a10.14,10.14,0,0,0,2.91-.08s-2.42.49-3.7-.71a4.42,4.42,0,0,1-1.43-1.92Z" transform="translate(-788.28 -1380.14)"/><path class="cls-3" d="M830,1412.11s-1.66,3.21-6.92,5.35-8.54,1-8.54,1l0-.92s4.62,0.74,8.06-.79a15.6,15.6,0,0,0,5.57-4,4.71,4.71,0,0,0,.57-1.15Z" transform="translate(-788.28 -1380.14)"/><path class="cls-3" d="M823.78,1412.47a11.49,11.49,0,0,1-4.64,2.86,12,12,0,0,1-4.29.76s4-1,5.22-1.82a11.27,11.27,0,0,0,2-1.75Z" transform="translate(-788.28 -1380.14)"/><circle class="cls-4" cx="72.97" cy="55.38"/><rect class="cls-173" x="40.01" y="35.73" width="8.69" height="7.56" rx="3.78" ry="3.78"/><rect class="cls-3" x="40.23" y="37.86" width="8.33" height="3.97"/><path class="cls-3" d="M835.84,1423.9h-6.42a1.61,1.61,0,0,1-1.61-1.61V1417a1.61,1.61,0,0,1,1.61-1.61h6.42a1.61,1.61,0,0,1,1.61,1.61v5.29A1.61,1.61,0,0,1,835.84,1423.9Zm-6.42-7.56a0.67,0.67,0,0,0-.66.66v5.29a0.67,0.67,0,0,0,.66.66h6.42a0.67,0.67,0,0,0,.66-0.66V1417a0.67,0.67,0,0,0-.66-0.66h-6.42Z" transform="translate(-788.28 -1380.14)"/></svg>