<svg id="menu" xmlns="http://www.w3.org/2000/svg" viewBox="0 0 85.01 85.01"><defs><style>.cls-1,.cls-6{fill:#fcfcfc;}.cls-1{stroke:#9f6c00;stroke-miterlimit:10;stroke-width:5px;}.cls-2{fill:#9f6c00;}.cls-3{fill:#fff;}.cls-4{fill:#b071aa;}.cls-5{fill:#e4e2f1;}.cls-7{fill:#9fe8ff;}.cls-8{fill:#f7a61d;}</style></defs><title>menu5</title><circle class="cls-1" cx="42.51" cy="42.51" r="40.01"/><path class="cls-2" d="M1055.52,1411.74c0.08-.06,3.62-3,6.48-0.76s2.62,5,3.28,6.58a2.89,2.89,0,0,0,3.15,1.94,3.45,3.45,0,0,0,1.7-.6,8.13,8.13,0,0,1-4.16,2.23c-2.48.42-3.91,0.52-5-.18a9,9,0,0,1-1.75-1.46l-2.26-2.94-3.47-2.77Z" transform="translate(-997.39 -1380.14)"/><path class="cls-3" d="M1054.93,1414.28a3.49,3.49,0,0,1,2.09-2.06c1.76-.78,3.37-1.06,4.64,0a6.83,6.83,0,0,1,2,4.3,3.73,3.73,0,0,0,1.3,2.7,2.33,2.33,0,0,0,1.48.65,2.38,2.38,0,0,0,1.17,0,23.61,23.61,0,0,1-4.7.68,5,5,0,0,1-3.07-1.51c-0.74-.74-1.77-1.94-2.14-2.33S1054.93,1414.28,1054.93,1414.28Z" transform="translate(-997.39 -1380.14)"/><path class="cls-2" d="M1026.32,1410.3c-0.1,0-4.43-1.52-6.34,1.54s-0.73,5.57-.78,7.31a2.89,2.89,0,0,1-2.28,2.91,3.45,3.45,0,0,1-1.8,0,8.13,8.13,0,0,0,4.67.65c2.47-.46,3.85-0.87,4.62-1.9a9,9,0,0,0,1.13-2l1.1-3.54,2.29-3.81Z" transform="translate(-997.39 -1380.14)"/><path class="cls-3" d="M1027.76,1412.46a3.49,3.49,0,0,0-2.67-1.21c-1.92-.11-3.53.18-4.33,1.65a6.83,6.83,0,0,0-.4,4.73,3.73,3.73,0,0,1-.28,3,2.33,2.33,0,0,1-1.16,1.12,2.38,2.38,0,0,1-1.11.37,23.61,23.61,0,0,0,4.64-1,5,5,0,0,0,2.36-2.49c0.43-1,1-2.44,1.19-2.92S1027.76,1412.46,1027.76,1412.46Z" transform="translate(-997.39 -1380.14)"/><path class="cls-2" d="M1025.85,1410.85s-2-.71-1.91,1.85,1.54,2.33,1.72,2.11a3,3,0,0,0,.28-1,0.84,0.84,0,0,1-.88-0.75c-0.21-.84-0.12-1.13.31-1.45s0.64,0,.64,0Z" transform="translate(-997.39 -1380.14)"/><path class="cls-2" d="M1057,1412.57s1.87-.92,2.1,1.64-1.28,2.48-1.48,2.28a3,3,0,0,1-.39-1,0.84,0.84,0,0,0,.79-0.84c0.11-.86,0-1.14-0.47-1.41s-0.63.07-.63,0.07Z" transform="translate(-997.39 -1380.14)"/><path class="cls-4" d="M1049.9,1429.52a6,6,0,0,0-.42-2.09,22.41,22.41,0,0,1-1,2.23,10.93,10.93,0,0,1-1.74,2.51c0,0.63.16,1.22,0.22,1.85s-0.12.23,0.41,0.23h0.86a15.54,15.54,0,0,0,1.83,0c0.91-.11.61,0,0.39-0.85A20.48,20.48,0,0,1,1049.9,1429.52Z" transform="translate(-997.39 -1380.14)"/><path class="cls-3" d="M1043.13,1436.57c-0.25-.33-0.34-0.19.08-0.18h2a9.18,9.18,0,0,0,1.39-.18c0.28,0,.56-0.08.84-0.1-0.47,0-.35-0.4-0.48-0.75h-0.22c-0.89,0-1.08-1.15-1.12-2.18-1.48,1.22-3.89,3.14-5.8,2.38a8,8,0,0,1-3.4-2.79,6.35,6.35,0,0,1-.36,1c-0.16.6,0,1-.52,1.43a0.54,0.54,0,0,1-.56,0,0.63,0.63,0,0,0-.32-0.1c0,0.14,0,.28,0,0.41s-0.07.28-.09,0.44a2.25,2.25,0,0,1,.31,0c0.28,0,.56.07,0.84,0.09,0.61,0,1.22.26,1.83,0.26a0.54,0.54,0,0,1,.3.09,2.35,2.35,0,0,1,1.51-.2c0.85,0,1.7.11,2.56,0.11a0.53,0.53,0,0,1,.32.1l0.12,0A0.6,0.6,0,0,1,1043.13,1436.57Z" transform="translate(-997.39 -1380.14)"/><path class="cls-3" d="M1037.39,1437.4a15.67,15.67,0,0,1-1.61-.24h-0.06c0.2,0.12.41,0.23,0.62,0.33a5.3,5.3,0,0,1,1.11,1.14l0.11,0.11,0.11-.06A2.09,2.09,0,0,1,1037.39,1437.4Z" transform="translate(-997.39 -1380.14)"/><path class="cls-3" d="M1042.94,1437.55c0,0.11,0,.22,0,0.33a2.07,2.07,0,0,1-.06.52l0.23,0.11a15.64,15.64,0,0,1,1.43-.93A6.08,6.08,0,0,1,1042.94,1437.55Z" transform="translate(-997.39 -1380.14)"/><path class="cls-3" d="M1049.71,1446.51c-0.89-.1-1.8-0.17-2.7-0.18a0.57,0.57,0,0,1-.27.09c1.12-.07,2.22.61,3.33,0.8s2.12,0.2,3.17.32c0.2,0,1,0,1,0a3.41,3.41,0,0,0-.8-0.31,1.28,1.28,0,0,1-.9-0.48A28.34,28.34,0,0,1,1049.71,1446.51Z" transform="translate(-997.39 -1380.14)"/><path class="cls-4" d="M1047.54,1437.48a12.94,12.94,0,0,0-3.36,1.62c1.17,0.6,2.46,1.29,2.72,2.62a6.4,6.4,0,0,1-.64,3.52c0.44,0,1.19,0,1.41,0,0.57,0,1.19.07,1.76,0.12,0.76,0.06,1.57.07,2.32,0.16,0.29,0,.58.08,0.87,0.09a12.23,12.23,0,0,0-1-4.91,8.07,8.07,0,0,0-3.94-3.09A0.6,0.6,0,0,1,1047.54,1437.48Z" transform="translate(-997.39 -1380.14)"/><path class="cls-5" d="M1032.65,1404c1.48,0,3-.06,4.47,0,2.76,0.16,5.61-.23,8.34.13s5.24,0,7.83.39c0.18,0,.48,0,0.79,0a36.9,36.9,0,0,0-2.17-5.93,12.08,12.08,0,0,0-1.38-1.79c-0.75-1.19-1.95-1-3.15-.64s-2.8,1.32-4.21,1.46a8.81,8.81,0,0,1-4.54-1.34c-1.56-.82-4.38-1.13-6-0.11-1.44.91-2,3-2.53,4.54a19.89,19.89,0,0,0-1,3.13C1030.27,1403.85,1031.48,1404,1032.65,1404Z" transform="translate(-997.39 -1380.14)"/><path class="cls-3" d="M1031.16,1426a0.53,0.53,0,0,1,.24-0.31,2.94,2.94,0,0,1-.28-0.74q-0.46-.18-0.91-0.4c-2.59.44-5.43,1.23-6.87,3.71a11.36,11.36,0,0,0-1.13,4.55c-0.06.48-.33,1,0,1a14.57,14.57,0,0,0,2-.18,13.51,13.51,0,0,1,1.94-.26l0.25-.05v-0.62a6.46,6.46,0,0,1,.63-3.46,5.38,5.38,0,0,1,4.08-3C1031.12,1426.19,1031.14,1426.11,1031.16,1426Z" transform="translate(-997.39 -1380.14)"/><path class="cls-3" d="M1027.18,1434.33a2.72,2.72,0,0,1-1.47.25c-0.77,0-1.52.25-2.3,0.3l-0.42.05a2.75,2.75,0,0,0,1.94,3.05c0.37,0.1,2.32.25,2-.77a2.24,2.24,0,0,1-.13-0.93,0.94,0.94,0,0,1,1-.91c0.59,0,.72-0.4.29-0.76a1.94,1.94,0,0,0-.93-0.3Z" transform="translate(-997.39 -1380.14)"/><path class="cls-4" d="M1028.74,1407.35c1.17-.07,2.33.06,3.49,0.07,2.66,0,5.33.39,8,.46,2.88,0.08,5.76.29,8.64,0.29,1.14,0,2.31-.11,3.45-0.19,0.7,0,1.35-.19,2-0.19,0.2,0,.56.06,0.87,0.06-0.15-.4-0.36-0.82-0.5-1.17l-0.29-.71-0.06-.23c-1.08,0-2.16-.17-3.24-0.25-2.47-.19-5-0.3-7.5-0.3-2.66,0-5.31-.09-8-0.09h-3.94c-0.84,0-1.72-.11-2.56-0.11a5.78,5.78,0,0,1-.36,1.28C1028.66,1406.63,1028.1,1407.39,1028.74,1407.35Z" transform="translate(-997.39 -1380.14)"/><path class="cls-3" d="M1029.72,1446.81a0.58,0.58,0,0,1-.35.17c-0.53.06-2.56,0.65-.85,0.65,0.76,0,1.5.13,2.27,0.11s2.89-.11,3.78-0.83c-1.2,0-2.39-.11-3.63-0.11C1030.56,1446.79,1030.14,1446.82,1029.72,1446.81Z" transform="translate(-997.39 -1380.14)"/><path class="cls-4" d="M1036.44,1439.2c-0.66-.59-1.72-1.64-2.69-1.7l-0.16,0a7.37,7.37,0,0,0-3.25,2.1,8.29,8.29,0,0,0-1.44,5.06c0,0.26-.13,1,0.21,1a10.94,10.94,0,0,0,1.37,0c0.79,0,1.56.08,2.35,0.14a16.55,16.55,0,0,0,3.11-.07,22.7,22.7,0,0,1-.14-2.3,4,4,0,0,1,.39-2.56,13,13,0,0,1,1-1A4.47,4.47,0,0,1,1036.44,1439.2Z" transform="translate(-997.39 -1380.14)"/><path class="cls-4" d="M1035,1434c0.07-.42.36-1.31,0.36-1.42a4.57,4.57,0,0,1,.18-1.11c-0.3-.42-0.61-0.84-0.95-1.26-0.86-1.07-1.39-2.38-2.32-3.41l-0.11-.13a30.44,30.44,0,0,0-.63,3.31,18.52,18.52,0,0,0-.36,2.83,2.43,2.43,0,0,1-.22.69l0.07,0c0.54,0.09,1.11.11,1.63,0.23a16.56,16.56,0,0,0,2.1.22Z" transform="translate(-997.39 -1380.14)"/><path class="cls-5" d="M1040.64,1434.52a9.19,9.19,0,0,0,4.86-2.74,0.5,0.5,0,0,1,.33-0.34c0.15-.17.3-0.34,0.43-0.51a18.25,18.25,0,0,0,2.38-4.73,33.16,33.16,0,0,1-15.23-.48l-1-.28c0.43,0.69,1.16,1.37,1.51,1.94a29.11,29.11,0,0,0,1.89,2.77C1036.89,1431.58,1038.33,1434.8,1040.64,1434.52Z" transform="translate(-997.39 -1380.14)"/><path class="cls-3" d="M1041.8,1437.42h0c-0.9,0-1.8-.1-2.7-0.12-0.51,0-.57-0.08-0.53.44,0,0.37.05,0.48,0.48,0.5a21.1,21.1,0,0,0,2.52-.11c0.33,0,.28-0.24.28-0.52A1.07,1.07,0,0,1,1041.8,1437.42Z" transform="translate(-997.39 -1380.14)"/><path class="cls-5" d="M1065.07,1406.84c0.45-1,.84-2.62-0.32-3.23a2.49,2.49,0,0,0-2.83.07,15.12,15.12,0,0,1-1.72,1.51,11.67,11.67,0,0,0-2.12,1.51,3.64,3.64,0,0,1-1.09.6c-0.17.06-.44,0.2-0.68,0.29a5.3,5.3,0,0,1,.14.52,0.57,0.57,0,0,1-.26.63,2.32,2.32,0,0,1-1.37.17c-0.72,0-1.4.11-2.12,0.16-1.45.1-3,.25-4.41,0.21a90.24,90.24,0,0,1-9.31-.41c-1.59-.2-3.21-0.09-4.81-0.19a47,47,0,0,0-5-.23c-0.48,0-1.79.18-1.9-.58a2.31,2.31,0,0,1,.13-1.07l-0.34-.22a5.65,5.65,0,0,1-.75-0.61c-0.57-.46-1.25-0.82-1.8-1.3s-1-1-1.59-1.39-1.52-1.51-2.29-1.43c-1,.1-2.68.46-2.69,1.78a4.85,4.85,0,0,0,.92,2.36,8,8,0,0,0,3.48,2.79,24.88,24.88,0,0,0,9.18,1.73c3.52,0.08,7,.09,10.57.09,3,0,6-.08,9,0,1.56,0.06,3.13.18,4.69,0.16a13,13,0,0,0,4.85-1.09C1062,1409.1,1064.38,1408.34,1065.07,1406.84Z" transform="translate(-997.39 -1380.14)"/><path class="cls-3" d="M1055.77,1411.93a10.52,10.52,0,0,1-1.63-.07c-3.84-.49-7.88-0.18-11.74-0.16h0c-4.73,0-9.63.32-14.33-.3l-0.71-.1h0c-1.11,3.57-1.16,8.35,1.69,11.08a7.61,7.61,0,0,0,2.69,1.6,0.6,0.6,0,0,1,.18.07,31.4,31.4,0,0,0,3.2.85,27.82,27.82,0,0,0,6.35.81,30.88,30.88,0,0,0,7.27-.65,20.24,20.24,0,0,0,2.52-.72,0.54,0.54,0,0,1,.44-0.18c0.2-.09.41-0.18,0.61-0.29,0.68-.36,2-0.77,2.36-1.5a11.75,11.75,0,0,0,1.76-6.49C1056.34,1414.57,1055.79,1413.25,1055.77,1411.93Z" transform="translate(-997.39 -1380.14)"/><path class="cls-2" d="M1037,1395.57a14.11,14.11,0,0,0-3.65,2c-0.69.43-1.32,0.93-2,1.41-0.27.2-.59,0.35-0.87,0.54a2.21,2.21,0,0,1-.54.38,0.14,0.14,0,0,0,.07.27,5.26,5.26,0,0,0,1.13-.73c0.67-.39,1.25-0.92,1.9-1.36a14.66,14.66,0,0,1,4-2.23A0.14,0.14,0,0,0,1037,1395.57Z" transform="translate(-997.39 -1380.14)"/><path class="cls-2" d="M1038.69,1396.05a15.2,15.2,0,0,0-2.25,1.09,26.14,26.14,0,0,0-2.65,1.7l-1.25.83c-0.49.32-.88,0.74-1.4,1s-0.76.5-1.14,0.74c-0.19.12-.4,0.23-0.6,0.34a4.57,4.57,0,0,1-.45.33c-0.17.06-.09,0.33,0.07,0.27a7.66,7.66,0,0,0,.73-0.47,10.26,10.26,0,0,0,1.14-.74c0.33-.24.73-0.38,1-0.64,0.51-.42,1-0.79,1.57-1.16,0.89-.6,1.76-1.24,2.69-1.78a14.68,14.68,0,0,1,2.45-1.23,0.14,0.14,0,0,0,.22-0.11v-0.07A0.14,0.14,0,0,0,1038.69,1396.05Z" transform="translate(-997.39 -1380.14)"/><path class="cls-2" d="M1041.17,1396.61a5.3,5.3,0,0,0-2.72,1.41c-1,.77-2.21,1.39-3.29,2.12s-2.38,1.53-3.59,2.27a24,24,0,0,0-3.11,1.83c-0.14.12,0.06,0.31,0.2,0.2a23.58,23.58,0,0,1,3.06-1.79c1.13-.69,2.26-1.39,3.37-2.12,0.5-.33,1-0.69,1.48-1a10.47,10.47,0,0,0,1.42-.88c0.37-.32.83-0.59,1.23-0.88a3.82,3.82,0,0,1,1.95-.89A0.14,0.14,0,0,0,1041.17,1396.61Z" transform="translate(-997.39 -1380.14)"/><path class="cls-2" d="M1042.91,1397c-0.89.42-1.66,1.12-2.51,1.63s-1.85,1.29-2.8,1.9c-1.83,1.18-3.6,2.49-5.35,3.78-0.14.11,0,.35,0.14,0.24,0.87-.64,1.74-1.28,2.64-1.86s1.77-1.33,2.71-1.92,1.82-1.32,2.8-1.9,1.63-1.22,2.51-1.63C1043.21,1397.21,1043.07,1397,1042.91,1397Z" transform="translate(-997.39 -1380.14)"/><path class="cls-2" d="M1047.4,1396a6.46,6.46,0,0,0-2.28,1.55c-1.09.85-2.12,1.75-3.25,2.55s-2.05,1.41-3,2.16a26.42,26.42,0,0,0-2.62,2,0.14,0.14,0,0,0,.1.24h0.07a0.13,0.13,0,0,0,.13-0.14,29.23,29.23,0,0,1,2.46-1.85c0.93-.7,1.88-1.35,2.84-2s1.83-1.35,2.71-2.08c0.47-.39,1-0.76,1.43-1.14a4,4,0,0,1,1.54-1C1047.65,1396.22,1047.57,1396,1047.4,1396Z" transform="translate(-997.39 -1380.14)"/><path class="cls-2" d="M1050.78,1395.86a11.89,11.89,0,0,0-2.67,1.8c-1,.82-2,1.62-3,2.39s-1.8,1.29-2.66,2-2,1.3-2.86,2.12a0.14,0.14,0,0,0,.2.2c0.75-.71,1.68-1.17,2.48-1.82,1-.78,2-1.51,3-2.26s1.87-1.55,2.87-2.24c0.52-.36,1-0.83,1.46-1.2a8.26,8.26,0,0,1,1.39-.75C1051.08,1396,1050.94,1395.78,1050.78,1395.86Z" transform="translate(-997.39 -1380.14)"/><path class="cls-2" d="M1051.89,1397.74a13.86,13.86,0,0,0-2.23,1.53c-0.73.55-1.42,1.15-2.12,1.73s-1.61,1.13-2.32,1.8c-0.36.34-.75,0.65-1.12,1a4.15,4.15,0,0,0-.76.69,0.14,0.14,0,0,0,.24.14,2.58,2.58,0,0,1,.54-0.46c0.4-.35.78-0.71,1.18-1,0.72-.6,1.5-1.13,2.23-1.74s1.5-1.28,2.27-1.86A13.87,13.87,0,0,1,1052,1398C1052.19,1397.9,1052.05,1397.66,1051.89,1397.74Z" transform="translate(-997.39 -1380.14)"/><path class="cls-2" d="M1052.68,1399.6a3.32,3.32,0,0,1-.94.69l-1,.65c-0.7.45-1.44,0.86-2.11,1.36s-1.19.9-1.76,1.37a2.8,2.8,0,0,0-.73.69,0.12,0.12,0,0,0-.06.11v0.07a0.14,0.14,0,0,0,.28,0,0.81,0.81,0,0,1,.29-0.28c0.27-.21.51-0.48,0.78-0.7,0.69-.55,1.4-1.07,2.13-1.55s1.41-.9,2.1-1.36a5.38,5.38,0,0,0,1.13-.78,0.13,0.13,0,0,0,.12-0.13v-0.07A0.14,0.14,0,0,0,1052.68,1399.6Z" transform="translate(-997.39 -1380.14)"/><path class="cls-2" d="M1053.11,1401.55a2.66,2.66,0,0,0-1,.56c-0.45.31-.95,0.56-1.42,0.85s-1.66.79-1.74,1.51c0,0.18.26,0.18,0.28,0a2.23,2.23,0,0,1,1-.9c0.33-.22.69-0.42,1-0.62s0.67-.39,1-0.6a2.65,2.65,0,0,1,.92-0.53C1053.36,1401.79,1053.28,1401.52,1053.11,1401.55Z" transform="translate(-997.39 -1380.14)"/><path class="cls-2" d="M1054.23,1402.57a14.66,14.66,0,0,1-1.46,1,8.12,8.12,0,0,1-.81.66,0.59,0.59,0,0,0-.27.31c-0.06.17,0.21,0.24,0.27,0.07a1.73,1.73,0,0,1,.52-0.43c0.25-.19.48-0.41,0.74-0.59a4.94,4.94,0,0,0,1.21-.81C1054.54,1402.62,1054.34,1402.43,1054.23,1402.57Z" transform="translate(-997.39 -1380.14)"/><path class="cls-2" d="M1021.5,1401.52c-0.7.58-1.38,1.17-2.09,1.74a5.26,5.26,0,0,0-.79,1,3.05,3.05,0,0,0-.57.86,0.14,0.14,0,0,0,.27.07,3.82,3.82,0,0,1,.54-0.8,5.09,5.09,0,0,1,1-1.12c0.64-.51,1.25-1.05,1.88-1.57C1021.84,1401.6,1021.64,1401.41,1021.5,1401.52Z" transform="translate(-997.39 -1380.14)"/><path class="cls-2" d="M1023.14,1402.49a3.15,3.15,0,0,1-.87,1c-0.4.42-.77,0.87-1.15,1.31l-1.28,1.46a7.42,7.42,0,0,1-.81,1,0.14,0.14,0,0,0,.07.26h0.07a0.13,0.13,0,0,0,.13-0.14c0.21-.22.36-0.49,0.58-0.71,0.5-.52,1-1.08,1.44-1.62s0.87-1,1.33-1.49a2.48,2.48,0,0,0,.77-0.94A0.14,0.14,0,0,0,1023.14,1402.49Z" transform="translate(-997.39 -1380.14)"/><path class="cls-2" d="M1024.46,1404.09a9.22,9.22,0,0,1-1.72,2.5c-0.46.58-1.24,1.07-1.35,1.85,0,0.18.26,0.18,0.28,0a2.39,2.39,0,0,1,.79-1.16,15.42,15.42,0,0,0,1.09-1.26,6.74,6.74,0,0,0,1.17-1.87C1024.79,1404,1024.52,1403.92,1024.46,1404.09Z" transform="translate(-997.39 -1380.14)"/><path class="cls-2" d="M1026.06,1405.34a4.71,4.71,0,0,1-.56.93,10.48,10.48,0,0,1-1,1.24,4.08,4.08,0,0,0-1.15,1.67c0,0.18.23,0.25,0.27,0.07a6.27,6.27,0,0,1,1.67-2.25,4.31,4.31,0,0,0,1.05-1.58A0.14,0.14,0,0,0,1026.06,1405.34Z" transform="translate(-997.39 -1380.14)"/><path class="cls-2" d="M1027.61,1406.21c-0.41.66-.89,1.24-1.32,1.88a16.12,16.12,0,0,0-1.32,1.6c-0.08.16,0.16,0.3,0.24,0.14a11.26,11.26,0,0,1,1.18-1.41c0.27-.38.57-0.74,0.86-1.1a8.8,8.8,0,0,0,.6-1A0.14,0.14,0,0,0,1027.61,1406.21Z" transform="translate(-997.39 -1380.14)"/><path class="cls-2" d="M1029.09,1407.86c-0.36.46-.78,0.88-1.12,1.37a3.57,3.57,0,0,0-.79,1.27c0,0.18.24,0.25,0.27,0.07a3.51,3.51,0,0,1,.77-1.21c0.31-.47.73-0.87,1.08-1.31C1029.4,1407.92,1029.2,1407.72,1029.09,1407.86Z" transform="translate(-997.39 -1380.14)"/><path class="cls-2" d="M1031.77,1408.06a2,2,0,0,1-.38.36c-0.22.27-.48,0.5-0.7,0.77a7.85,7.85,0,0,0-1.14,1.35c-0.08.16,0.16,0.3,0.24,0.14a2.93,2.93,0,0,1,.65-0.76c0.25-.24.43-0.54,0.67-0.8a5.2,5.2,0,0,1,.68-0.69,0.6,0.6,0,0,0,.25-0.29C1032.1,1408,1031.83,1407.89,1031.77,1408.06Z" transform="translate(-997.39 -1380.14)"/><path class="cls-2" d="M1034.07,1408.1a1.48,1.48,0,0,1-.47.57c-0.22.25-.38,0.54-0.6,0.79a3.76,3.76,0,0,0-.8,1.18c-0.06.17,0.21,0.24,0.27,0.07a9.78,9.78,0,0,1,1.1-1.5,2.88,2.88,0,0,1,.61-0.73,0.42,0.42,0,0,0,.18-0.38C1034.33,1407.92,1034.05,1407.92,1034.07,1408.1Z" transform="translate(-997.39 -1380.14)"/><path class="cls-2" d="M1036.58,1408.48a6.22,6.22,0,0,1-1,1.33,2.63,2.63,0,0,0-.65,1.21c0,0.18.26,0.18,0.28,0a3.29,3.29,0,0,1,.89-1.39,3.29,3.29,0,0,0,.77-1.08C1036.91,1408.38,1036.64,1408.31,1036.58,1408.48Z" transform="translate(-997.39 -1380.14)"/><path class="cls-2" d="M1039.43,1408.48c0,0.06-.36.45-0.42,0.54l-0.43.61a4,4,0,0,1-.48.71,0.54,0.54,0,0,0-.2.37c0,0.18.24,0.25,0.27,0.07a1.15,1.15,0,0,1,.29-0.45c0.19-.26.35-0.54,0.53-0.81a2.12,2.12,0,0,1,.46-0.6,0.56,0.56,0,0,0,.24-0.37A0.14,0.14,0,0,0,1039.43,1408.48Z" transform="translate(-997.39 -1380.14)"/><path class="cls-2" d="M1041.61,1408.65a1.81,1.81,0,0,1-.38.39,4.15,4.15,0,0,0-.46.53,7.48,7.48,0,0,1-.47.59,3.54,3.54,0,0,0-.43.45c-0.11.14,0.13,0.28,0.24,0.14a3.8,3.8,0,0,1,.47-0.46c0.18-.17.31-0.42,0.47-0.61a9.47,9.47,0,0,0,.8-0.88C1041.95,1408.64,1041.7,1408.5,1041.61,1408.65Z" transform="translate(-997.39 -1380.14)"/><path class="cls-2" d="M1043.89,1408.82a2.14,2.14,0,0,1-.44.53c-0.12.15-.21,0.31-0.33,0.46a2.74,2.74,0,0,0-.62,1c0,0.18.24,0.25,0.27,0.07a3.69,3.69,0,0,1,.75-1.19,3.39,3.39,0,0,0,.64-0.83A0.14,0.14,0,0,0,1043.89,1408.82Z" transform="translate(-997.39 -1380.14)"/><path class="cls-2" d="M1047.13,1408.35c-0.62.64-1.08,1.42-1.67,2.09-0.12.13,0.08,0.33,0.2,0.2,0.59-.67,1-1.45,1.67-2.09A0.14,0.14,0,0,0,1047.13,1408.35Z" transform="translate(-997.39 -1380.14)"/><path class="cls-2" d="M1049.32,1408.48a2.24,2.24,0,0,1-.26.45,4.08,4.08,0,0,1-.42.65,6.53,6.53,0,0,0-.7,1,0.14,0.14,0,0,0,.24.14,14.36,14.36,0,0,1,.84-1.22,3.37,3.37,0,0,0,.57-1A0.14,0.14,0,0,0,1049.32,1408.48Z" transform="translate(-997.39 -1380.14)"/><path class="cls-2" d="M1052.07,1408.41a11.68,11.68,0,0,0-.95,1.12,8,8,0,0,0-1,1.2c-0.08.16,0.16,0.3,0.24,0.14a6.5,6.5,0,0,1,.84-1.06,14.81,14.81,0,0,1,1-1.21A0.14,0.14,0,0,0,1052.07,1408.41Z" transform="translate(-997.39 -1380.14)"/><path class="cls-2" d="M1054,1408.23c-0.11.18-.26,0.32-0.37,0.5s-0.27.49-.43,0.72c-0.28.4-.62,0.78-0.87,1.21a0.14,0.14,0,0,0,.24.14c0.22-.38.53-0.71,0.78-1.08s0.61-.9.9-1.36A0.14,0.14,0,0,0,1054,1408.23Z" transform="translate(-997.39 -1380.14)"/><path class="cls-2" d="M1056.91,1406.77a4.48,4.48,0,0,1-.45,1.09,13.67,13.67,0,0,1-.62,1.28,7.26,7.26,0,0,0-.52,1.12c0,0.09-.2.63-0.3,0.84a0.13,0.13,0,0,0-.12.13v0.07a0.14,0.14,0,0,0,.21.12,0.82,0.82,0,0,0,.27-0.5,10.34,10.34,0,0,1,.7-1.64c0.27-.48.5-1,0.72-1.51a3.55,3.55,0,0,0,.39-1C1057.2,1406.59,1056.92,1406.6,1056.91,1406.77Z" transform="translate(-997.39 -1380.14)"/><path class="cls-2" d="M1059.9,1404.75a4.72,4.72,0,0,1-.69,1.64c-0.27.52-.58,1-0.85,1.55a15.24,15.24,0,0,1-1.2,2.57c-0.11.14,0.09,0.34,0.2,0.2a16.9,16.9,0,0,0,1.36-2.85c0.31-.6.67-1.17,1-1.78a3.65,3.65,0,0,0,.51-1.32A0.14,0.14,0,0,0,1059.9,1404.75Z" transform="translate(-997.39 -1380.14)"/><path class="cls-2" d="M1063.6,1402.42a11.21,11.21,0,0,1-.77,1.7,19.51,19.51,0,0,1-1.11,2.06,22.78,22.78,0,0,0-1.07,2.12,15.39,15.39,0,0,0-.88,1.65,0.14,0.14,0,0,0,.27.07,3.35,3.35,0,0,1,.46-0.77,8.68,8.68,0,0,0,.5-1,22.52,22.52,0,0,1,1.08-2.09,19.92,19.92,0,0,0,1.1-2.1,10,10,0,0,0,.69-1.53A0.14,0.14,0,0,0,1063.6,1402.42Z" transform="translate(-997.39 -1380.14)"/><path class="cls-2" d="M1065.27,1403.25a15.56,15.56,0,0,1-1.21,2.94c-0.4.9-.77,1.77-1.08,2.7-0.06.17,0.21,0.24,0.27,0.07,0.33-1,.74-1.91,1.16-2.86a14.76,14.76,0,0,0,1.14-2.78C1065.57,1403.15,1065.3,1403.08,1065.27,1403.25Z" transform="translate(-997.39 -1380.14)"/><path class="cls-2" d="M1029.26,1421.19a1.72,1.72,0,0,1-.31.72,1.7,1.7,0,0,0-.24.75c0,0.18.27,0.18,0.28,0,0-.55.53-0.91,0.56-1.46C1029.55,1421,1029.27,1421,1029.26,1421.19Z" transform="translate(-997.39 -1380.14)"/><path class="cls-2" d="M1032.34,1422.37c-0.18.31-.33,0.63-0.5,0.94a1.87,1.87,0,0,0-.36.8c0,0.18.27,0.18,0.28,0a2,2,0,0,1,.38-0.77c0.15-.28.28-0.56,0.44-0.84A0.14,0.14,0,0,0,1032.34,1422.37Z" transform="translate(-997.39 -1380.14)"/><path class="cls-2" d="M1034.9,1423.42a1.43,1.43,0,0,1-.39.81c-0.17.22-.27,0.49-0.42,0.72s0.14,0.29.24,0.14c0.2-.3.35-0.62,0.57-0.91a1.35,1.35,0,0,0,.29-0.76C1035.19,1423.24,1034.91,1423.24,1034.9,1423.42Z" transform="translate(-997.39 -1380.14)"/><path class="cls-2" d="M1038.6,1423.94a2.34,2.34,0,0,1-.46.73,7.08,7.08,0,0,0-.57.91c-0.08.16,0.16,0.3,0.24,0.14a10.21,10.21,0,0,1,.57-0.91,2.82,2.82,0,0,0,.49-0.8A0.14,0.14,0,0,0,1038.6,1423.94Z" transform="translate(-997.39 -1380.14)"/><path class="cls-2" d="M1042.29,1424.08a3.54,3.54,0,0,1-.31.74,7.43,7.43,0,0,1-.44.83c-0.1.15,0.14,0.29,0.24,0.14a6.2,6.2,0,0,0,.44-0.83,4.29,4.29,0,0,0,.34-0.81A0.14,0.14,0,0,0,1042.29,1424.08Z" transform="translate(-997.39 -1380.14)"/><path class="cls-2" d="M1045,1423.94a4.2,4.2,0,0,1-.51.89c-0.14.31-.27,0.61-0.4,0.92s0.2,0.24.27,0.07c0.15-.36.3-0.73,0.47-1.08a2.83,2.83,0,0,0,.43-0.73C1045.3,1423.83,1045,1423.76,1045,1423.94Z" transform="translate(-997.39 -1380.14)"/><path class="cls-2" d="M1048.83,1423.43a1,1,0,0,0-.39.74,3.69,3.69,0,0,1-.68,1.44c-0.11.14,0.09,0.34,0.2,0.2a3.94,3.94,0,0,0,.52-0.93l0.21-.53a1,1,0,0,1,.28-0.68C1049.12,1423.58,1049,1423.33,1048.83,1423.43Z" transform="translate(-997.39 -1380.14)"/><path class="cls-2" d="M1051.82,1422.82c0-.18-0.3-0.1-0.27.07a1.63,1.63,0,0,1-.39.69,2.49,2.49,0,0,0-.38.83,0.14,0.14,0,0,0,.27.07,6,6,0,0,1,.5-1A1.1,1.1,0,0,0,1051.82,1422.82Z" transform="translate(-997.39 -1380.14)"/><path class="cls-2" d="M1054,1421.81a4.9,4.9,0,0,1-.47,1.88c-0.07.16,0.17,0.3,0.24,0.14a5.27,5.27,0,0,0,.51-2A0.14,0.14,0,0,0,1054,1421.81Z" transform="translate(-997.39 -1380.14)"/><path class="cls-2" d="M1037.06,1433.37H1037a0.14,0.14,0,0,0-.11.23,3,3,0,0,1-.35.54c-0.13.19-.24,0.4-0.38,0.59a5.06,5.06,0,0,0-.83,1.32,0.14,0.14,0,0,0,.27.07,5.43,5.43,0,0,1,.89-1.38c0.13-.19.24-0.4,0.37-0.59a1.49,1.49,0,0,0,.34-0.61A0.14,0.14,0,0,0,1037.06,1433.37Z" transform="translate(-997.39 -1380.14)"/><path class="cls-2" d="M1038.08,1434a7.22,7.22,0,0,0-1.43,2.29,0.14,0.14,0,0,0,.27.07,6.92,6.92,0,0,1,1.36-2.17C1038.39,1434.1,1038.19,1433.9,1038.08,1434Z" transform="translate(-997.39 -1380.14)"/><path class="cls-2" d="M1039.26,1434.74a4.38,4.38,0,0,0-1.22,1.73c-0.06.17,0.21,0.24,0.27,0.07a4.11,4.11,0,0,1,1.15-1.61A0.14,0.14,0,0,0,1039.26,1434.74Z" transform="translate(-997.39 -1380.14)"/><path class="cls-2" d="M1041.28,1434.95c-0.19.2-.31,0.45-0.5,0.65a1.48,1.48,0,0,0-.37.6,0.14,0.14,0,0,0,.27.07,1.43,1.43,0,0,1,.4-0.58c0.16-.16.24-0.37,0.4-0.54A0.14,0.14,0,0,0,1041.28,1434.95Z" transform="translate(-997.39 -1380.14)"/><path class="cls-2" d="M1043.44,1434.53a8.83,8.83,0,0,0-.65.86,2.84,2.84,0,0,0-.43.73,0.14,0.14,0,0,0,.27.07c0.08-.25.3-0.42,0.4-0.66a2.38,2.38,0,0,1,.25-0.35,3.84,3.84,0,0,1,.35-0.45A0.14,0.14,0,0,0,1043.44,1434.53Z" transform="translate(-997.39 -1380.14)"/><path class="cls-2" d="M1045.6,1433.62a10.16,10.16,0,0,0-1.69,2.6c-0.08.16,0.16,0.3,0.24,0.14a9.94,9.94,0,0,1,1.65-2.55A0.14,0.14,0,0,0,1045.6,1433.62Z" transform="translate(-997.39 -1380.14)"/><path class="cls-2" d="M1046.55,1434.28c-0.41.68-.89,1.31-1.25,2-0.08.16,0.16,0.3,0.24,0.14,0.36-.71.84-1.34,1.25-2A0.14,0.14,0,0,0,1046.55,1434.28Z" transform="translate(-997.39 -1380.14)"/><path class="cls-2" d="M1030.52,1444.48a3.37,3.37,0,0,1-.38.81c-0.14.23-.22,0.47-0.37,0.69s0.14,0.29.24,0.14,0.26-.52.42-0.77a3.33,3.33,0,0,0,.36-0.8A0.14,0.14,0,0,0,1030.52,1444.48Z" transform="translate(-997.39 -1380.14)"/><path class="cls-2" d="M1032.82,1444.48a3.18,3.18,0,0,1-.36.79c-0.14.25-.05,0.53-0.18,0.78a0.14,0.14,0,0,0,.24.14c0.13-.25.06-0.54,0.18-0.78a3.79,3.79,0,0,0,.39-0.86A0.14,0.14,0,0,0,1032.82,1444.48Z" transform="translate(-997.39 -1380.14)"/><path class="cls-2" d="M1034.56,1444.76a4.14,4.14,0,0,1-.4.94c-0.1.15,0.14,0.29,0.24,0.14a4.44,4.44,0,0,0,.43-1C1034.89,1444.66,1034.62,1444.59,1034.56,1444.76Z" transform="translate(-997.39 -1380.14)"/><path class="cls-2" d="M1048.23,1444.17a0.71,0.71,0,0,0-.45.5c-0.07.19-.11,0.38-0.19,0.56a1.58,1.58,0,0,0-.15.53c0,0.18.26,0.18,0.28,0a2.62,2.62,0,0,1,.25-0.71,0.79,0.79,0,0,1,.35-0.62C1048.48,1444.38,1048.4,1444.11,1048.23,1444.17Z" transform="translate(-997.39 -1380.14)"/><path class="cls-2" d="M1050.31,1444.17a4.28,4.28,0,0,0-.79,1.53,0.14,0.14,0,0,0,.28,0,4.1,4.1,0,0,1,.75-1.39C1050.63,1444.15,1050.39,1444,1050.31,1444.17Z" transform="translate(-997.39 -1380.14)"/><path class="cls-2" d="M1051.86,1444.28a4.72,4.72,0,0,0-.79,1.21c-0.08.16,0.16,0.3,0.24,0.14a4.49,4.49,0,0,1,.74-1.16A0.14,0.14,0,0,0,1051.86,1444.28Z" transform="translate(-997.39 -1380.14)"/><path class="cls-2" d="M1023.48,1432.07a1.28,1.28,0,0,0-.37.66,4.82,4.82,0,0,0-.39,1.13c0,0.18.27,0.18,0.28,0a2.4,2.4,0,0,1,.28-0.75,2,2,0,0,1,.35-0.8C1023.76,1432.2,1023.62,1432,1023.48,1432.07Z" transform="translate(-997.39 -1380.14)"/><path class="cls-2" d="M1024.8,1432.4a5.52,5.52,0,0,1-.48,1.29c-0.06.17,0.21,0.24,0.27,0.07a5.63,5.63,0,0,0,.49-1.36C1025.09,1432.22,1024.82,1432.22,1024.8,1432.4Z" transform="translate(-997.39 -1380.14)"/><path class="cls-2" d="M1055.21,1433.21a1.57,1.57,0,0,0-.38.55c-0.09.22-.13,0.47-0.21,0.7a0.14,0.14,0,0,0,.27.07c0.06-.19.11-0.38,0.17-0.56a1.27,1.27,0,0,1,.35-0.56A0.14,0.14,0,0,0,1055.21,1433.21Z" transform="translate(-997.39 -1380.14)"/><path class="cls-2" d="M1056.51,1433.51c-0.2.4-.43,0.79-0.63,1.18-0.08.16,0.16,0.3,0.24,0.14,0.2-.4.43-0.79,0.63-1.18C1056.83,1433.49,1056.59,1433.35,1056.51,1433.51Z" transform="translate(-997.39 -1380.14)"/><path class="cls-2" d="M1057.29,1414.22c0-.8-0.42-1.57-0.42-2.37a0.56,0.56,0,0,0-1.11,0c0,1.35.58,2.69,0.65,4a11.75,11.75,0,0,1-1.76,6.49c-0.39.73-1.68,1.14-2.36,1.5a14.54,14.54,0,0,1-3.56,1.19,30.88,30.88,0,0,1-7.27.65,27.83,27.83,0,0,1-6.35-.81c-2.14-.5-4.44-0.95-6.08-2.52-2.85-2.73-2.81-7.51-1.69-11.08a0.56,0.56,0,0,0-1.07-.3,20,20,0,0,0-.65,6,8.84,8.84,0,0,0,2,5.59c1.42,1.78,3.82,2.61,5.94,3.13a33.8,33.8,0,0,0,7,1.1c5.12,0.14,10.55-.32,14.77-3.49a5.91,5.91,0,0,0,1.26-2.05,8.2,8.2,0,0,0,.91-3.44c0-.66.08-1.31,0.08-2S1057.29,1414.76,1057.29,1414.22Z" transform="translate(-997.39 -1380.14)"/><path class="cls-2" d="M1066.6,1404.24c-0.06-1.24-1.93-2.25-3-2.2-2.09.09-2.94,1.66-4.64,2.58-1,.56-1.65,1.42-2.84,1.8-0.19.06-.39,0-0.58,0.11a1,1,0,0,0,.54,1.12,3.73,3.73,0,0,0,1-.35,3.63,3.63,0,0,0,1.09-.6,11.67,11.67,0,0,1,2.12-1.51,15.12,15.12,0,0,0,1.72-1.51,2.49,2.49,0,0,1,2.83-.07c1.16,0.61.77,2.26,0.32,3.23-0.69,1.5-3.06,2.26-4.46,2.84a13,13,0,0,1-4.85,1.09c-1.56,0-3.13-.1-4.69-0.16-3-.11-6,0-9,0-3.52,0-7,0-10.57-.09a24.88,24.88,0,0,1-9.18-1.73,8,8,0,0,1-3.48-2.79,4.85,4.85,0,0,1-.92-2.36c0-1.32,1.68-1.68,2.69-1.78,0.77-.08,1.71,1,2.29,1.43s1.06,0.93,1.59,1.39,1.23,0.84,1.8,1.3a5.63,5.63,0,0,0,.75.61,3.73,3.73,0,0,0,.69.4,0.73,0.73,0,0,0,.58-0.51c0.4-.7-1.17-1.23-1.58-1.56-0.83-.66-1.68-1.26-2.48-2-1.16-1-2.38-2.35-4-2.18-1.14.12-3,.72-3.31,2.05a3.89,3.89,0,0,0,.09,2.14,6.92,6.92,0,0,0,1.26,2.21c2.71,2.65,6,3.73,9.74,4.22,4.7,0.62,9.6.3,14.33,0.3h0c3.87,0,7.91-.33,11.74.16a12.75,12.75,0,0,0,5.56-.65,17.19,17.19,0,0,0,5.12-2.45A5,5,0,0,0,1066.6,1404.24Z" transform="translate(-997.39 -1380.14)"/><path class="cls-2" d="M1056.47,1408.11c-0.21-1-.78-2-1.08-3-0.22-.72-1.6-0.52-2.1-0.59-2.59-.36-5.24-0.05-7.83-0.39s-5.59,0-8.34-.13c-1.48-.09-3,0-4.47,0-1.32,0-2.71-.18-4-0.09a0.57,0.57,0,0,0-.56.56v0.09a0.61,0.61,0,0,0,0,.11,0.62,0.62,0,0,0,0,.08c0,1.09-.95,2-0.79,3.13,0.11,0.76,1.42.61,1.9,0.58a46.9,46.9,0,0,1,5,.23c1.6,0.1,3.22,0,4.81.19a90.24,90.24,0,0,0,9.31.41c1.46,0,3-.11,4.41-0.21,0.71-.05,1.4-0.16,2.12-0.16a2.32,2.32,0,0,0,1.37-.17A0.57,0.57,0,0,0,1056.47,1408.11Zm-2.11-.32c-0.7,0-1.35.14-2,.19-1.13.08-2.31,0.19-3.45,0.19-2.89,0-5.77-.21-8.64-0.29-2.66-.07-5.33-0.43-8-0.46-1.16,0-2.32-.14-3.49-0.07-0.64,0-.07-0.72.06-1.08a5.78,5.78,0,0,0,.36-1.28c0.85,0,1.72.11,2.56,0.11h3.94c2.65,0,5.31.09,8,.09,2.47,0,5,.11,7.5.3,1.08,0.08,2.16.21,3.24,0.25l0.06,0.23,0.29,0.71c0.14,0.35.35,0.77,0.5,1.17C1054.92,1407.86,1054.55,1407.79,1054.36,1407.79Z" transform="translate(-997.39 -1380.14)"/><path class="cls-2" d="M1055.24,1404.69a2.32,2.32,0,0,1-.08-0.3,7.23,7.23,0,0,0-.19-0.93,21.52,21.52,0,0,1-.73-2.2,7.75,7.75,0,0,0-1-2.06,7.13,7.13,0,0,1-.46-1.21,4.9,4.9,0,0,0-.71-1c-0.88-1.17-1.59-2.17-3.14-2.25-1.89-.1-3.82,1.12-5.55,1.69-2.08.7-4.2-1.59-6.21-1.83a8.43,8.43,0,0,0-5.56.85c-1.28.8-1.87,2.85-2.38,4.18a15.37,15.37,0,0,0-1.41,5.07,0.56,0.56,0,0,0,1.11,0,13.1,13.1,0,0,1,1.09-4c0.54-1.51,1.09-3.64,2.53-4.54,1.62-1,4.44-.71,6,0.11a8.8,8.8,0,0,0,4.54,1.34c1.41-.14,2.86-1,4.21-1.46s2.4-.54,3.15.64a12.05,12.05,0,0,1,1.38,1.79c0.85,2.14,2,4.3,2.29,6.6a0.53,0.53,0,0,0,.39.39h0.08A0.6,0.6,0,0,0,1055.24,1404.69Z" transform="translate(-997.39 -1380.14)"/><path class="cls-2" d="M1045.42,1397.56a4.07,4.07,0,0,1-2.18,1.13c-0.6,0-1.19,0-1.79,0a8.79,8.79,0,0,1-3.06-.85,2.43,2.43,0,0,1-.91-1c-0.45-.56-1.23.23-0.79,0.79a3.66,3.66,0,0,0,1.58,1.39,10.84,10.84,0,0,0,3.18.81,5.79,5.79,0,0,0,4.76-1.46C1046.77,1397.9,1046,1397.11,1045.42,1397.56Z" transform="translate(-997.39 -1380.14)"/><path class="cls-2" d="M1049.14,1425.34a23.32,23.32,0,0,1-2.73,5.58,9.76,9.76,0,0,1-5.61,3.59c-2.31.28-3.75-2.94-4.89-4.37a29.07,29.07,0,0,1-1.89-2.77c-0.52-.82-1.81-1.88-1.85-2.88a0.56,0.56,0,0,0-1.11,0,3.77,3.77,0,0,0,1.18,2.34c0.93,1,1.46,2.34,2.32,3.41,1.63,2,2.71,4.28,5.27,5.31,2.07,0.83,4.73-1.49,6.15-2.67a10.13,10.13,0,0,0,2.52-3.24c0.66-1.25,1.05-2.47,1.6-3.76C1050.38,1425.25,1049.42,1424.68,1049.14,1425.34Z" transform="translate(-997.39 -1380.14)"/><path class="cls-2" d="M1045.07,1427.65c-2.14.94-5.74,1.4-7.5-.56-0.48-.54-1.27.25-0.79,0.79,2.12,2.37,6.24,1.88,8.85.74C1046.28,1428.32,1045.72,1427.36,1045.07,1427.65Z" transform="translate(-997.39 -1380.14)"/><path class="cls-2" d="M1042.51,1431.3c-0.68.13-2.12,0.35-2.62-.3s-1.4,0-1,.56c0.88,1.16,2.59,1.06,3.88.81C1043.51,1432.25,1043.21,1431.17,1042.51,1431.3Z" transform="translate(-997.39 -1380.14)"/><path class="cls-2" d="M1031.21,1426.24a5.38,5.38,0,0,0-4.19,3,6.47,6.47,0,0,0-.63,3.46v0.62l-0.25.05a13.51,13.51,0,0,0-1.94.26,14.48,14.48,0,0,1-2,.18c-0.33,0-.06-0.54,0-1a11.36,11.36,0,0,1,1.13-4.55c1.46-2.52,4.38-3.3,7-3.74,0.71-.12.41-1.19-0.3-1.07a14.33,14.33,0,0,0-3.85,1,11.3,11.3,0,0,0-3.27,2.59,6.11,6.11,0,0,0-1.56,3.55,13.56,13.56,0,0,0-.35,3.86c0.16,0.88,1.9.44,2.39,0.41,0.77,0,1.52-.26,2.3-0.3a2.71,2.71,0,0,0,1.47-.25,0.94,0.94,0,0,0,.31-0.75c0.15-1.15-.24-2.28.28-3.38a4.64,4.64,0,0,1,3.43-2.85C1031.91,1427.27,1031.92,1426.15,1031.21,1426.24Z" transform="translate(-997.39 -1380.14)"/><path class="cls-2" d="M1035.52,1431.42a5,5,0,0,0-.21,1.22c0,0.1-.29,1-0.36,1.42l-0.22,0a16.62,16.62,0,0,1-2.1-.22c-0.53-.12-1.1-0.14-1.63-0.23l-0.07,0a2.43,2.43,0,0,0,.22-0.69,18.52,18.52,0,0,1,.36-2.83,26.27,26.27,0,0,1,.74-3.71,0.56,0.56,0,0,0-1.07-.3c-0.49,1.59-.41,3.36-1,4.91a4.94,4.94,0,0,0-.17,1.46,12.08,12.08,0,0,0-.24,1.8,0.53,0.53,0,0,0,.39.39c0.85,0.12,1.74.2,2.58,0.39a6.63,6.63,0,0,0,.86.18,3.28,3.28,0,0,1,1.37.06,0.54,0.54,0,0,0,.56,0c0.54-.4.35-0.83,0.52-1.43a3.64,3.64,0,0,0,.36-1.15,3.81,3.81,0,0,1,.17-0.92A0.56,0.56,0,0,0,1035.52,1431.42Z" transform="translate(-997.39 -1380.14)"/><path class="cls-2" d="M1051.73,1433.83a14.3,14.3,0,0,1-.56-3.63,8,8,0,0,0-1.07-3.93c-0.43-.57-1.39,0-1,0.56a4.93,4.93,0,0,1,.76,2.69,20.47,20.47,0,0,0,.58,3.86c0.22,0.88.52,0.74-.39,0.85a15.55,15.55,0,0,1-1.83,0h-0.86c-0.53,0-.35.41-0.41-0.23a19.82,19.82,0,0,1-.24-2.09,0.56,0.56,0,0,0-1.11,0c0,0.87-.21,3.44,1.11,3.44h2.67a4.59,4.59,0,0,0,2.17-.26A1,1,0,0,0,1051.73,1433.83Z" transform="translate(-997.39 -1380.14)"/><path class="cls-2" d="M1048,1435c-0.27-.66-1.35-0.37-1.07.3,0.14,0.35,0,.82.49,0.79-0.28,0-.56.06-0.84,0.1a9.22,9.22,0,0,1-1.39.18h-1.43l-0.56,0c-0.42,0-.33-0.16-0.08.18a0.6,0.6,0,0,0-.79-0.16l-0.12,0a0.53,0.53,0,0,0-.32-0.1c-0.85,0-1.7-.07-2.56-0.11a2.35,2.35,0,0,0-1.51.2,0.54,0.54,0,0,0-.3-0.09c-0.61,0-1.22-.22-1.83-0.26-0.28,0-.56-0.07-0.84-0.09a2.28,2.28,0,0,0-.31,0c0-.15.08-0.33,0.09-0.44,0-.27,0-0.54,0-0.81a0.56,0.56,0,0,0-1.11,0c0,0.65-.46,2.32.64,2.36a13.35,13.35,0,0,1,1.58.08,15.75,15.75,0,0,0,1.61.24,1.67,1.67,0,0,0,1,1.82,7.56,7.56,0,0,0,3.88-.09,1.18,1.18,0,0,0,.71-1.25c0-.11,0-0.22,0-0.33a12,12,0,0,0,2.58,0,9.35,9.35,0,0,0,2.18-.3C1048.55,1437,1048.25,1435.59,1048,1435Zm-6.48,3.08a21.1,21.1,0,0,1-2.52.11c-0.42,0-.45-0.14-0.48-0.5,0-.52,0-0.46.53-0.44,0.9,0,1.8.12,2.7,0.12h0a1.08,1.08,0,0,0,0,.18C1041.82,1437.88,1041.87,1438.1,1041.54,1438.12Z" transform="translate(-997.39 -1380.14)"/><path class="cls-2" d="M1038.31,1439.64a5.44,5.44,0,0,0-.85-1,5.29,5.29,0,0,0-1.11-1.14c-0.55-.26-1.05-0.61-1.6-0.85a0.52,0.52,0,0,0-.68-0.51,9.41,9.41,0,0,0-4.74,2.92c-1.22,1.46-1.48,3.73-1.54,5.58,0,0.46,0,1.66.49,1.91a6.41,6.41,0,0,0,2.68.25,39.57,39.57,0,0,0,5.72,0,0.55,0.55,0,0,0,.41-0.54,35.5,35.5,0,0,1-.19-3.74c0-1.1.64-1.32,1.25-2A0.84,0.84,0,0,0,1038.31,1439.64Zm-2.13,1.25a4,4,0,0,0-.39,2.56,22.7,22.7,0,0,0,.14,2.3,16.53,16.53,0,0,1-3.11.07c-0.79-.06-1.56-0.14-2.35-0.14a10.94,10.94,0,0,1-1.37,0c-0.33,0-.21-0.74-0.21-1a8.29,8.29,0,0,1,1.44-5.06,7.37,7.37,0,0,1,3.25-2.1l0.16,0c1,0.06,2,1.11,2.69,1.7a4.48,4.48,0,0,0,.76.71A12.88,12.88,0,0,0,1036.18,1440.89Z" transform="translate(-997.39 -1380.14)"/><path class="cls-2" d="M1052.51,1439.83a4,4,0,0,0-1.59-1.59,14,14,0,0,0-2.81-1.69,0.52,0.52,0,0,0-.59-0.23,14,14,0,0,0-4.8,2.46,0.56,0.56,0,0,0,.11.87c1,0.56,2.93,1.14,3,2.58a9.91,9.91,0,0,1-.82,3.29,0.56,0.56,0,0,0,.14.54,2.09,2.09,0,0,0,1.6.26,26.61,26.61,0,0,1,3,.19,27.83,27.83,0,0,0,3.06.19,0.81,0.81,0,0,0,.93-0.65A13.7,13.7,0,0,0,1052.51,1439.83Zm-3.08,5.5c-0.57,0-1.19-.12-1.76-0.12-0.22,0-1,0-1.41,0a6.4,6.4,0,0,0,.64-3.52c-0.26-1.33-1.55-2-2.72-2.62a12.93,12.93,0,0,1,3.36-1.62,0.6,0.6,0,0,0,.17.1,8.07,8.07,0,0,1,3.94,3.09,12.23,12.23,0,0,1,1,4.91c-0.29,0-.58-0.05-0.87-0.09C1051,1445.41,1050.19,1445.39,1049.43,1445.33Z" transform="translate(-997.39 -1380.14)"/><path class="cls-2" d="M1039.4,1438.81a0.56,0.56,0,0,0-.56-0.56,2.21,2.21,0,0,0-.86.32,1.65,1.65,0,0,0-.74.4,0.56,0.56,0,0,0,.79.79l0,0,0.09-.06c0.06,0,.08,0,0,0l0.06,0,0.11,0a1.82,1.82,0,0,0,.36-0.18l0.13-.06s0.13,0,0,0A0.57,0.57,0,0,0,1039.4,1438.81Z" transform="translate(-997.39 -1380.14)"/><path class="cls-2" d="M1043.47,1438.94a1,1,0,0,0-.73-0.59,2.21,2.21,0,0,0-.74-0.19,0.56,0.56,0,0,0-.56.56v0.09a0.54,0.54,0,0,0,.71.52l0.17,0.06,0.05,0,0.1,0,0,0a0.58,0.58,0,0,0,.55.16A0.57,0.57,0,0,0,1043.47,1438.94Z" transform="translate(-997.39 -1380.14)"/><path class="cls-2" d="M1035,1446.27c-0.19,1.31-3.26,1.43-4.17,1.46s-1.51-.11-2.27-0.11c-1.71,0,.32-0.59.85-0.65,0.7-.08.71-1.2,0-1.11s-2.7.45-3,1.49c-0.33,1.2,1.33,1.39,2.14,1.39a21.24,21.24,0,0,0,4.8-.21c0.93-.21,2.55-0.88,2.71-2C1036.14,1445.86,1035.07,1445.56,1035,1446.27Z" transform="translate(-997.39 -1380.14)"/><path class="cls-2" d="M1055,1446.68c-0.27-.18-1.46-0.46-1.57-0.63a0.56,0.56,0,0,0-1,.56,1.25,1.25,0,0,0,1,.57,3.41,3.41,0,0,1,.8.31s-0.8.07-1,0c-1.05-.12-2.13-0.14-3.17-0.32s-2.21-.87-3.33-0.8c0.71,0,.72-1.16,0-1.11s-1.68,1.26-.67,1.81a15.06,15.06,0,0,0,6,1.42c0.78,0.05,3.13.76,3.39-.57A1.14,1.14,0,0,0,1055,1446.68Z" transform="translate(-997.39 -1380.14)"/><path class="cls-2" d="M1026.89,1433.16c-0.72-.06-0.71,1.05,0,1.11a2.58,2.58,0,0,1,1.24.33c0.43,0.37.31,0.76-.29,0.76a0.94,0.94,0,0,0-1,.91,2.24,2.24,0,0,0,.13.93c0.27,1-1.68.87-2,.77a2.78,2.78,0,0,1-1.94-3.15,0.56,0.56,0,0,0-1.11,0,3.92,3.92,0,0,0,2.23,4c1.3,0.6,3.43.51,4-1a2.08,2.08,0,0,0,0-.94c-0.08-.54-0.34-0.33.21-0.45a1.55,1.55,0,0,0,1.26-1.14C1030.09,1433.86,1027.89,1433.26,1026.89,1433.16Z" transform="translate(-997.39 -1380.14)"/><path class="cls-6" d="M1034.06,1418.06c0.15,0,16.72-1.06,16.72-1.06a7.52,7.52,0,0,1-7.77,6.27c-6.88,0-9-5.21-9-5.21" transform="translate(-997.39 -1380.14)"/><path class="cls-2" d="M1043,1423.74a10.41,10.41,0,0,1-7.38-2.73,8.59,8.59,0,0,1-2-2.77,0.47,0.47,0,0,1,.29-0.62c0.08,0,.21-0.07,16.84-1.08a0.47,0.47,0,0,1,.49.53A8,8,0,0,1,1043,1423.74Zm-8.22-5.27c0.75,1.31,3,4.33,8.22,4.33a6.94,6.94,0,0,0,7.18-5.29C1046,1417.77,1037.27,1418.31,1034.79,1418.48Z" transform="translate(-997.39 -1380.14)"/><path class="cls-2" d="M1046,1411.41a12.69,12.69,0,0,0,6,4.09c3.78,1.1,5.36.38,5.36,0.38l0-1s-1.88.7-5.21-.65-3.94-2.85-3.94-2.85Z" transform="translate(-997.39 -1380.14)"/><path class="cls-2" d="M1050.72,1411.5s1.87,2.5,3.63,2.67a10.14,10.14,0,0,0,2.91-.08s-2.42.49-3.7-.71a4.42,4.42,0,0,1-1.43-1.92Z" transform="translate(-997.39 -1380.14)"/><path class="cls-2" d="M1041.25,1411.18s-1.66,3.21-6.92,5.35-8.54,1-8.54,1l0-.92s4.62,0.74,8.06-.79a15.6,15.6,0,0,0,5.57-4,4.71,4.71,0,0,0,.57-1.15Z" transform="translate(-997.39 -1380.14)"/><path class="cls-2" d="M1035,1411.54a11.49,11.49,0,0,1-4.64,2.86,12,12,0,0,1-4.29.76s4-1,5.22-1.82a11.27,11.27,0,0,0,2-1.75Z" transform="translate(-997.39 -1380.14)"/><path class="cls-3" d="M1040.15,1437.42c1.15,0.37,2.34.69,3.46,1.13s1.26-1.27,1.6-2c0.26-.57.44-1.16,0.65-1.75s-0.39-.58-0.89-0.74a33.36,33.36,0,0,0-3.69-1.14,32,32,0,0,1-3.56-.83c-0.55-.18-1.11-0.25-1.67-0.38-0.29-.07-0.62-0.21-0.93-0.28a12.66,12.66,0,0,0-1,3c0,0.11,0,.22-0.07.32a17.24,17.24,0,0,1,2.42,1.2A21.73,21.73,0,0,0,1040.15,1437.42Z" transform="translate(-997.39 -1380.14)"/><path class="cls-7" d="M1015.83,1423.63c-0.7-.21-3-1.57-3.5-0.72l-0.09.1c-0.5,1.27-2.47,4.77-1,5.62a10.11,10.11,0,0,0,3.35,1c1.09,0.18,1.51-.76,1.81-1.64C1017,1426.47,1018.06,1424.28,1015.83,1423.63Z" transform="translate(-997.39 -1380.14)"/><path class="cls-3" d="M1034.11,1431.26l0-.1c-3-1-12.6-4.11-16-5.16a16.33,16.33,0,0,1-.86,2.69c1.33,0.48,2.62.88,3.92,1.49,1.47,0.69,10.33,3.68,11.88,4.19h0A19.93,19.93,0,0,1,1034.11,1431.26Z" transform="translate(-997.39 -1380.14)"/><path class="cls-7" d="M1053.91,1439.74c0.21-.85.22-2.18-0.7-2.67a2.2,2.2,0,0,0-1.94-.28,3.39,3.39,0,0,0-2,2.71,3,3,0,0,0,.79,2.25,2.32,2.32,0,0,0,2.94-.19A3.77,3.77,0,0,0,1053.91,1439.74Z" transform="translate(-997.39 -1380.14)"/><path class="cls-8" d="M1061.27,1442.12c1.11-3.39,1.83-7.55-.21-10.75s-7.67-2.84-10.52-.88c-0.72.5-2.51,1.42-3.37,0.76a4.53,4.53,0,0,1-1.16-.85,4.28,4.28,0,0,1-.58-1.67,3.76,3.76,0,0,0-4.35-2.87,9.14,9.14,0,0,0-2.62.89,6,6,0,0,0-2.12,2.37c-0.26.43-.51,0.88-0.75,1.35,0.26,0.08.53,0.18,0.79,0.24,0.69,0.15,1.35.3,2,.47,1.55,0.37,3.12.65,4.63,1.14l2.66,0.87a2,2,0,0,1,1.23.61c0.45,0.89-.49,2.22-0.76,3a10.43,10.43,0,0,1-.7,1.64,2.71,2.71,0,0,1-.66,1.18c-0.73.54-2.33-.4-3.06-0.64-1.55-.51-3.07-1.05-4.58-1.68-1.17-.49-2.2-1.22-3.38-1.66a6.31,6.31,0,0,0-.18.89,9,9,0,0,0,.17,2.59c0.31,1.93,1.16,3.55,3.16,4.08a5.08,5.08,0,0,0,2.59.07c0.87-.22,1.59-0.85,2.44-1a2.83,2.83,0,0,1,2.8.78,5.58,5.58,0,0,1,.78,2.61c0.33,1.85,1.3,4.35,3.28,5,1.58,0.48,3.43,1.17,5.1.84C1058.07,1450.69,1060.11,1445.63,1061.27,1442.12Zm-11.64.59a4.26,4.26,0,0,1-1.07-4.63,3.61,3.61,0,0,1,.61-1,3.53,3.53,0,0,1,3.86-1.21c2.35,1,2.27,3.28,1.46,5.35C1053.84,1442.87,1051.08,1444,1049.62,1442.7Zm4.7,1.52a0.5,0.5,0,0,1,.1-0.17c0.49-1.52.91-3.06,1.41-4.58a8.29,8.29,0,0,1,.85-2.52,1.26,1.26,0,0,1,1.74-.47c0.79,0.64.56,1.29,0.27,2.17-0.7,2.15-1.18,4.34-2.08,6.43A1.23,1.23,0,1,1,1054.33,1444.22Z" transform="translate(-997.39 -1380.14)"/><path class="cls-3" d="M1056.82,1441.61c0.19-.67.41-1.4,0.62-2.1a10.36,10.36,0,0,0,.33-1.17,1.73,1.73,0,0,0,0-.54c-0.07-.5-0.39-0.21-0.47.15s-0.2.62-.27,0.94-0.26.9-.4,1.36c-0.28.9-.55,1.8-0.82,2.7-0.13.42-.92,1.84-0.16,1.93C1056.07,1444.93,1056.71,1442,1056.82,1441.61Z" transform="translate(-997.39 -1380.14)"/><path class="cls-2" d="M1012.52,1426.64l2.57,0.91c0.74,0.26,1.42.59,2.17,0.86a23.8,23.8,0,0,0,2.52.84,16.22,16.22,0,0,1,2.57.8c0.87,0.36,1.85.46,2.75,0.76s1.92,0.71,2.9,1a17,17,0,0,1,2.58.88,17.69,17.69,0,0,0,2.53,1c0.9,0.27,1.76.66,2.64,1s1.91,0.67,2.87,1a20.78,20.78,0,0,1,2.44,1c0.75,0.36,1.58.57,2.35,0.91s1.57,0.59,2.36.87,1.72,0.69,2.59,1c1.87,0.7,3.73,1.4,5.61,2.07l1.19,0.42a0.13,0.13,0,0,0,.09-0.24c-3.61-1.28-7.15-2.71-10.76-4-1.58-.56-3.1-1.26-4.66-1.86-1.84-.71-3.72-1.29-5.56-2a24.32,24.32,0,0,1-2.59-1,14.82,14.82,0,0,0-2.5-1c-1.87-.58-3.72-1.36-5.64-1.79a8,8,0,0,1-1.33-.39,5,5,0,0,0-1-.37,17.61,17.61,0,0,1-2.78-.81,15,15,0,0,1-2.32-.94,5,5,0,0,0-.92-0.3c-0.5-.16-1-0.35-1.5-0.53l-1.07-.38A0.13,0.13,0,0,0,1012.52,1426.64Z" transform="translate(-997.39 -1380.14)"/><path class="cls-2" d="M1012.82,1425.8l2.57,0.91c0.74,0.26,1.42.59,2.17,0.86a23.79,23.79,0,0,0,2.52.84,16.24,16.24,0,0,1,2.57.8c0.87,0.36,1.85.46,2.75,0.76s1.92,0.71,2.9,1a17,17,0,0,1,2.58.88,17.67,17.67,0,0,0,2.53,1c0.9,0.28,1.76.66,2.64,1s1.91,0.67,2.87,1a20.8,20.8,0,0,1,2.44,1c0.75,0.36,1.58.57,2.35,0.91s1.57,0.59,2.36.87,1.72,0.69,2.59,1c1.87,0.7,3.73,1.4,5.61,2.07l1.19,0.42a0.13,0.13,0,0,0,.09-0.24c-3.61-1.28-7.15-2.71-10.76-4-1.58-.56-3.1-1.26-4.66-1.86-1.84-.71-3.72-1.29-5.56-2a24.22,24.22,0,0,1-2.59-1,14.83,14.83,0,0,0-2.5-1c-1.87-.58-3.72-1.36-5.64-1.79a8,8,0,0,1-1.33-.39,5,5,0,0,0-1-.37,17.63,17.63,0,0,1-2.78-.81,15,15,0,0,1-2.32-.94,5,5,0,0,0-.92-0.3c-0.5-.16-1-0.35-1.5-0.53l-1.07-.38A0.13,0.13,0,0,0,1012.82,1425.8Z" transform="translate(-997.39 -1380.14)"/><path class="cls-2" d="M1013.12,1425l2.57,0.91c0.74,0.26,1.42.59,2.17,0.86a23.7,23.7,0,0,0,2.52.84,16.26,16.26,0,0,1,2.57.8c0.87,0.36,1.85.46,2.75,0.76s1.92,0.71,2.9,1a16.94,16.94,0,0,1,2.58.88,17.69,17.69,0,0,0,2.53,1c0.9,0.27,1.76.66,2.64,1s1.91,0.67,2.87,1a20.78,20.78,0,0,1,2.44,1c0.75,0.36,1.58.57,2.35,0.91s1.57,0.59,2.36.87,1.72,0.69,2.59,1c1.87,0.7,3.73,1.4,5.61,2.07l1.19,0.42a0.13,0.13,0,0,0,.09-0.24c-3.61-1.28-7.15-2.71-10.76-4-1.58-.56-3.1-1.26-4.66-1.86-1.84-.71-3.72-1.29-5.56-2a24.29,24.29,0,0,1-2.59-1,14.85,14.85,0,0,0-2.5-1c-1.87-.58-3.72-1.36-5.64-1.79a8,8,0,0,1-1.33-.39,5,5,0,0,0-1-.37,17.66,17.66,0,0,1-2.78-.81,15,15,0,0,1-2.32-.94,5,5,0,0,0-.92-0.3c-0.5-.16-1-0.35-1.5-0.53l-1.07-.38A0.13,0.13,0,0,0,1013.12,1425Z" transform="translate(-997.39 -1380.14)"/><path class="cls-2" d="M1056,1449.41a6.69,6.69,0,0,0,.78.07,5.66,5.66,0,0,1,.85-0.07,0.13,0.13,0,0,0,0-.25,3.11,3.11,0,0,0-.72,0,4.5,4.5,0,0,1-.91,0A0.13,0.13,0,0,0,1056,1449.41Z" transform="translate(-997.39 -1380.14)"/><path class="cls-2" d="M1057.64,1447.45a2.43,2.43,0,0,1,.68,0,2.54,2.54,0,0,0,.66-0.17,0.13,0.13,0,0,0-.11-0.23,1.31,1.31,0,0,1-.78.11,1,1,0,0,0-.57,0C1057.38,1447.28,1057.49,1447.51,1057.64,1447.45Z" transform="translate(-997.39 -1380.14)"/><path class="cls-2" d="M1058.67,1445.54c0.3,0,.58-0.09.88-0.12a7.31,7.31,0,0,0,1-.19,0.13,0.13,0,0,0,0-.25l-0.83.19a3.82,3.82,0,0,1-.51,0c-0.18,0-.31.1-0.5,0.12S1058.51,1445.55,1058.67,1445.54Z" transform="translate(-997.39 -1380.14)"/><path class="cls-2" d="M1059.52,1443.37a7.35,7.35,0,0,1,1.71-.19,0.13,0.13,0,0,0,0-.25,7.53,7.53,0,0,0-1.78.21C1059.25,1443.2,1059.36,1443.43,1059.52,1443.37Z" transform="translate(-997.39 -1380.14)"/><path class="cls-2" d="M1060.36,1441.27a4.58,4.58,0,0,1,.85-0.1c0.29,0,.56-0.16.86-0.17s0.19-.26,0-0.25c-0.32,0-.61.13-0.93,0.17a4.51,4.51,0,0,0-.91.12C1060.09,1441.09,1060.2,1441.32,1060.36,1441.27Z" transform="translate(-997.39 -1380.14)"/><path class="cls-2" d="M1060.5,1438.86a0.66,0.66,0,0,0,.69-0.11,3.75,3.75,0,0,1,1.44-.34c0.16,0,.12-0.26,0-0.25a4.81,4.81,0,0,0-1,.2,2.35,2.35,0,0,0-.4.12,0.7,0.7,0,0,1-.5.17A0.13,0.13,0,0,0,1060.5,1438.86Z" transform="translate(-997.39 -1380.14)"/><path class="cls-2" d="M1060.73,1436.13a5.46,5.46,0,0,1,1.6-.42,0.13,0.13,0,0,0,0-.25,5.7,5.7,0,0,0-1.67.44A0.13,0.13,0,0,0,1060.73,1436.13Z" transform="translate(-997.39 -1380.14)"/><path class="cls-2" d="M1060.21,1433.25a1.26,1.26,0,0,0,.66-0.22c0.34-.19.75-0.23,1.1-0.39a0.13,0.13,0,0,0-.11-0.23c-0.26.11-.54,0.16-0.8,0.26a2.55,2.55,0,0,1-.83.33C1060.06,1433,1060,1433.24,1060.21,1433.25Z" transform="translate(-997.39 -1380.14)"/><path class="cls-2" d="M1059.36,1431.48a5.62,5.62,0,0,1,1.61-.56,0.13,0.13,0,0,0,0-.25,5.85,5.85,0,0,0-1.67.58A0.13,0.13,0,0,0,1059.36,1431.48Z" transform="translate(-997.39 -1380.14)"/><path class="cls-2" d="M1057.21,1430a2.73,2.73,0,0,0,.73-0.27c0.29-.14.59-0.16,0.89-0.28s0-.29-0.11-0.23-0.52.11-.78,0.23a2.92,2.92,0,0,1-.77.3A0.13,0.13,0,0,0,1057.21,1430Z" transform="translate(-997.39 -1380.14)"/><path class="cls-2" d="M1044.9,1431.16c0.49-.22,1-0.35,1.5-0.57a0.13,0.13,0,0,0-.11-0.23c-0.49.22-1,.35-1.5,0.57A0.13,0.13,0,0,0,1044.9,1431.16Z" transform="translate(-997.39 -1380.14)"/><path class="cls-2" d="M1044.31,1429.32l1.21-.58a0.13,0.13,0,0,0-.11-0.23l-1.21.58A0.13,0.13,0,0,0,1044.31,1429.32Z" transform="translate(-997.39 -1380.14)"/><path class="cls-2" d="M1043.74,1427.82l1.33-.63a0.13,0.13,0,0,0-.11-0.23l-1.33.63A0.13,0.13,0,0,0,1043.74,1427.82Z" transform="translate(-997.39 -1380.14)"/><path class="cls-2" d="M1036.23,1441.24c0.19,0,.38,0,0.57,0a0.73,0.73,0,0,0,.21-0.09l0.28-.14a0.13,0.13,0,0,0-.11-0.23,1.46,1.46,0,0,1-.53.21c-0.16,0-.31,0-0.47,0S1036.07,1441.26,1036.23,1441.24Z" transform="translate(-997.39 -1380.14)"/><path class="cls-2" d="M1035.78,1439.77a6.76,6.76,0,0,1,1.15-.34,0.13,0.13,0,0,0,0-.25,7.12,7.12,0,0,0-1.21.36A0.13,0.13,0,0,0,1035.78,1439.77Z" transform="translate(-997.39 -1380.14)"/><path class="cls-2" d="M1049.39,1447.21c0.16-.06.32-0.09,0.48-0.15s0.34-.1.5-0.17a0.13,0.13,0,0,0-.11-0.23c-0.32.14-.66,0.2-1,0.33C1049.12,1447,1049.24,1447.27,1049.39,1447.21Z" transform="translate(-997.39 -1380.14)"/><path class="cls-2" d="M1048.75,1445.89a3.43,3.43,0,0,1,.77-0.09,0.13,0.13,0,0,0,0-.25,3.62,3.62,0,0,0-.83.11A0.13,0.13,0,0,0,1048.75,1445.89Z" transform="translate(-997.39 -1380.14)"/><path class="cls-2" d="M1017.31,1427.35a18.79,18.79,0,0,0,1.35,2.37,0.13,0.13,0,0,0,.15,0l0.06,0a0.13,0.13,0,0,0,.06-0.17l-0.06-.12a0.12,0.12,0,0,0-.16-0.06c-0.12-.22-0.45-0.7-0.51-0.79a10.81,10.81,0,0,1-.67-1.34A0.13,0.13,0,0,0,1017.31,1427.35Z" transform="translate(-997.39 -1380.14)"/><path class="cls-2" d="M1017.73,1426.3c0.56,1.16,1.29,2.18,1.92,3.29a0.13,0.13,0,0,0,.16.18l0.06,0a0.13,0.13,0,0,0,.06-0.17c-0.64-1.14-1.4-2.19-2-3.38A0.13,0.13,0,0,0,1017.73,1426.3Z" transform="translate(-997.39 -1380.14)"/><path class="cls-2" d="M1018.34,1425.65c0.81,1.7,1.84,3.27,2.65,5a0.13,0.13,0,0,0,.23-0.11l-0.06-.12h0c-0.8-1.64-1.8-3.18-2.59-4.84A0.13,0.13,0,0,0,1018.34,1425.65Z" transform="translate(-997.39 -1380.14)"/><path class="cls-2" d="M1019.56,1426.13c0.85,1.77,1.85,3.46,2.71,5.22a0.13,0.13,0,0,0,.23-0.11c-0.85-1.77-1.85-3.46-2.71-5.22A0.13,0.13,0,0,0,1019.56,1426.13Z" transform="translate(-997.39 -1380.14)"/><path class="cls-2" d="M1020.64,1426.75l0.06,0.12h0c0.81,1.64,1.79,3.19,2.59,4.84a0.13,0.13,0,0,0,.23-0.11l0-.06h0c-0.81-1.67-1.81-3.24-2.62-4.9A0.13,0.13,0,0,0,1020.64,1426.75Z" transform="translate(-997.39 -1380.14)"/><path class="cls-2" d="M1021.27,1426.45l1.18,2.48c0.44,0.92,1,1.76,1.49,2.68a0.13,0.13,0,0,0,.23-0.11l-0.08-.17,0,0c-0.39-.78-0.84-1.52-1.28-2.28s-0.84-1.71-1.24-2.56h0l-0.06-.12A0.13,0.13,0,0,0,1021.27,1426.45Z" transform="translate(-997.39 -1380.14)"/><path class="cls-2" d="M1022.38,1426.84l0.06,0.12v0c0.81,1.58,1.61,3.16,2.45,4.72a0.12,0.12,0,0,0,0,.13l0.17,0.2a0.13,0.13,0,0,0,.21-0.14c-0.93-1.7-1.79-3.44-2.68-5.16A0.13,0.13,0,0,0,1022.38,1426.84Z" transform="translate(-997.39 -1380.14)"/><path class="cls-2" d="M1023.12,1426.76c1,1.9,2.09,3.82,3,5.77a0.13,0.13,0,0,0,.23-0.11l-0.08-.17h0c-0.92-1.89-1.94-3.74-2.95-5.58C1023.27,1426.51,1023,1426.62,1023.12,1426.76Z" transform="translate(-997.39 -1380.14)"/><path class="cls-2" d="M1024.78,1427.67a1.17,1.17,0,0,0,.22.65c0.29,0.53.53,1.1,0.79,1.64,0.49,1,1,2,1.54,3.08a0.13,0.13,0,0,0,.23-0.11l0-.06h0c-0.42-.86-0.87-1.7-1.29-2.56-0.22-.44-0.43-0.89-0.64-1.34a4.85,4.85,0,0,1-.55-1.16,0.11,0.11,0,0,0,0-.12l0-.06A0.13,0.13,0,0,0,1024.78,1427.67Z" transform="translate(-997.39 -1380.14)"/><path class="cls-2" d="M1025.73,1428.07l0.06,0.12h0c0.76,1.59,1.57,3.16,2.34,4.75a0.13,0.13,0,0,0,.23-0.11l0-.06h0c-0.78-1.61-1.6-3.2-2.37-4.81A0.13,0.13,0,0,0,1025.73,1428.07Z" transform="translate(-997.39 -1380.14)"/><path class="cls-2" d="M1027,1428.68a1.11,1.11,0,0,0,.19.61c0.23,0.42.42,0.87,0.63,1.31,0.45,0.95,1,1.87,1.42,2.82a0.13,0.13,0,0,0,.23-0.11c-0.39-.81-0.82-1.59-1.21-2.39l-0.49-1a4.64,4.64,0,0,1-.5-1.08,0.11,0.11,0,0,0,0-.12l0-.06A0.13,0.13,0,0,0,1027,1428.68Z" transform="translate(-997.39 -1380.14)"/><path class="cls-2" d="M1028,1428.93a6.23,6.23,0,0,0,.85,2.09l1.36,2.84a0.13,0.13,0,0,0,.23-0.11l-1.16-2.42a10.45,10.45,0,0,1-1-2.16,0.12,0.12,0,0,0,0-.15l-0.08-.17A0.13,0.13,0,0,0,1028,1428.93Z" transform="translate(-997.39 -1380.14)"/><path class="cls-2" d="M1029,1429a12.83,12.83,0,0,0,.89,2.32l0.68,1.43a7.46,7.46,0,0,1,.73,1.52,0.13,0.13,0,0,0,.25,0,3.35,3.35,0,0,0-.45-1c-0.26-.47-0.46-1-0.69-1.45a17.11,17.11,0,0,1-1.1-2.65,0.14,0.14,0,0,0,0-.23l-0.06-.05A0.13,0.13,0,0,0,1029,1429Z" transform="translate(-997.39 -1380.14)"/><path class="cls-2" d="M1029.91,1428.88a0.76,0.76,0,0,0,.17.59c0.27,0.5.45,1.08,0.69,1.6,0.56,1.19,1.15,2.36,1.76,3.53a0.13,0.13,0,0,0,.23-0.11c-0.5-1-1-1.93-1.47-2.92-0.22-.47-0.45-0.93-0.66-1.41-0.09-.2-0.17-0.4-0.25-0.6a1.79,1.79,0,0,1-.23-0.59C1030.19,1428.8,1029.95,1428.72,1029.91,1428.88Z" transform="translate(-997.39 -1380.14)"/><path class="cls-2" d="M1031.76,1430.6a11.17,11.17,0,0,0,.91,2.21c0.39,0.84.71,1.7,1.08,2.55a0.13,0.13,0,0,0,.23-0.11c-0.34-.77-0.65-1.55-1-2.33a13.88,13.88,0,0,1-1-2.36A0.13,0.13,0,0,0,1031.76,1430.6Z" transform="translate(-997.39 -1380.14)"/><path class="cls-2" d="M1032.48,1430.79l0,0.06h0c0.87,1.8,1.83,3.56,2.7,5.36a0.13,0.13,0,0,0,.23-0.11c-0.88-1.82-1.85-3.6-2.73-5.42A0.13,0.13,0,0,0,1032.48,1430.79Z" transform="translate(-997.39 -1380.14)"/><path class="cls-2" d="M1033.74,1430.9a18.8,18.8,0,0,0,1.07,2.39c0.5,0.84.85,1.77,1.27,2.65a0.13,0.13,0,0,0,.23-0.11c-0.39-.82-0.74-1.65-1.16-2.46s-0.81-1.7-1.18-2.59C1033.9,1430.64,1033.67,1430.75,1033.74,1430.9Z" transform="translate(-997.39 -1380.14)"/><path class="cls-2" d="M1034.93,1430.86a9.42,9.42,0,0,0,1.08,2.71c0.48,1,.77,2,1.16,3a0.13,0.13,0,0,0,.15.2l0.06,0a0.13,0.13,0,0,0,.06-0.17c-0.38-1-.67-1.94-1.1-2.88a11.15,11.15,0,0,1-1.16-2.87A0.13,0.13,0,0,0,1034.93,1430.86Z" transform="translate(-997.39 -1380.14)"/><path class="cls-2" d="M1036.42,1431.77a17,17,0,0,0,1.06,2.83c0.21,0.46.4,0.93,0.61,1.4a6.49,6.49,0,0,1,.49,1.47,0.13,0.13,0,0,0,.25,0c-0.06-.44-0.31-0.85-0.41-1.29a8,8,0,0,0-.54-1.25,21.47,21.47,0,0,1-1.21-3.16C1036.64,1431.57,1036.38,1431.61,1036.42,1431.77Z" transform="translate(-997.39 -1380.14)"/><path class="cls-2" d="M1037.34,1431.9a16.66,16.66,0,0,0,1,2.53c0.44,1.14,1,2.29,1.48,3.4a0.13,0.13,0,0,0,.23-0.11c-0.46-1-.84-2-1.3-3a14.21,14.21,0,0,1-1.16-2.86A0.13,0.13,0,0,0,1037.34,1431.9Z" transform="translate(-997.39 -1380.14)"/><path class="cls-2" d="M1038.11,1431.75a3.79,3.79,0,0,0,.37,1.06c0.22,0.59.54,1.15,0.81,1.72l1.6,3.36a0.13,0.13,0,0,0,.23-0.11l-2.23-4.67a5.55,5.55,0,0,1-.52-1.28,0.12,0.12,0,0,0,0-.11l0-.06A0.13,0.13,0,0,0,1038.11,1431.75Z" transform="translate(-997.39 -1380.14)"/><path class="cls-2" d="M1039.62,1432.55c0.82,1.92,1.57,3.87,2.47,5.76a0.13,0.13,0,0,0,.23-0.11c-0.9-1.89-1.65-3.84-2.47-5.76A0.13,0.13,0,0,0,1039.62,1432.55Z" transform="translate(-997.39 -1380.14)"/><path class="cls-2" d="M1040.6,1432.37c0.2,0.46.32,0.95,0.52,1.4s0.45,1.09.71,1.62,0.6,1.18.88,1.79,0.33,1,.54,1.47v0l0,0.06a0.13,0.13,0,0,0,.23-0.11c-0.2-.42-0.3-0.89-0.47-1.32-0.25-.62-0.58-1.2-0.87-1.79-0.53-1.06-.87-2.17-1.34-3.25A0.13,0.13,0,0,0,1040.6,1432.37Z" transform="translate(-997.39 -1380.14)"/><path class="cls-2" d="M1042.07,1433.08c0.27,0.82.62,1.69,1,2.51,0.5,1.19.92,2.4,1.45,3.57a0.13,0.13,0,0,0,.06.2l0,0a0.13,0.13,0,0,0,.23-0.11c-0.58-1.24-1-2.53-1.55-3.79-0.33-.79-0.66-1.6-0.93-2.4a0.13,0.13,0,0,0-.15-0.2l-0.06,0A0.13,0.13,0,0,0,1042.07,1433.08Z" transform="translate(-997.39 -1380.14)"/><path class="cls-2" d="M1043.42,1433.89a2.78,2.78,0,0,0,.54,1.56c0.45,0.88.76,1.84,1.19,2.74a0.13,0.13,0,0,0,.23-0.11c-0.15-.32-0.3-0.63-0.45-0.95s-0.24-.81-0.43-1.18-0.35-.68-0.52-1a2.14,2.14,0,0,1-.32-1C1043.71,1433.82,1043.47,1433.73,1043.42,1433.89Z" transform="translate(-997.39 -1380.14)"/><path class="cls-2" d="M1044.42,1434c0.19,0.45.26,0.93,0.45,1.39s0.55,1.17.83,1.75a0.13,0.13,0,0,0,.23-0.11l-0.75-1.56c-0.23-.48-0.32-1-0.5-1.48a0.13,0.13,0,0,0,0,0l0-.06A0.13,0.13,0,0,0,1044.42,1434Z" transform="translate(-997.39 -1380.14)"/><path class="cls-2" d="M1045.07,1433.87a1.61,1.61,0,0,0,.31.71c0.24,0.35.43,0.76,0.64,1.14,0.08,0.14.31,0,.23-0.11s-0.32-.53-0.46-0.81a3.31,3.31,0,0,1-.47-1C1045.3,1433.66,1045.05,1433.71,1045.07,1433.87Z" transform="translate(-997.39 -1380.14)"/><path class="cls-2" d="M1052.5,1428.43a12.78,12.78,0,0,0-3.65,1.75c-1.17.69-2.14-.41-2.37-1.33a7.48,7.48,0,0,0-.81-2.12c-1.34-2.43-4.76-2-6.89-1.23-2.5.91-3.59,3.52-4.67,5.76a28.43,28.43,0,0,0-1.14,3.58,8.42,8.42,0,0,0-.37,3.35c0.21,2.3,1,4.35,2.94,5.65a5.11,5.11,0,0,0,3.48.64,5.24,5.24,0,0,0,1.66-.47c0.86-.45,2.66-1.51,3.42-0.26a6.23,6.23,0,0,1,.49,2.15,10.71,10.71,0,0,0,.7,2.37,6,6,0,0,0,2.63,3.11,22.74,22.74,0,0,0,2.41.73,5.83,5.83,0,0,0,2.14.43c0.57-.07,1.13,0,1.72-0.05a4.75,4.75,0,0,0,2.08-.81,11.26,11.26,0,0,0,3.49-3.67,28.7,28.7,0,0,0,3.45-9.81c0.51-2.82-.06-6.63-2.3-8.63S1055.19,1427.87,1052.5,1428.43Zm8.56,2.94c2,3.2,1.32,7.36.21,10.75s-3.2,8.57-7.3,9.37c-1.67.32-3.52-.36-5.1-0.84-2-.61-2.95-3.1-3.28-5a5.58,5.58,0,0,0-.78-2.61,2.83,2.83,0,0,0-2.8-.78c-0.85.19-1.58,0.81-2.44,1a5.08,5.08,0,0,1-2.59-.07c-2-.53-2.85-2.15-3.16-4.08a9,9,0,0,1-.17-2.59c0.09-.76.38-1.46,0.52-2.21a16.36,16.36,0,0,1,2.19-5.25,6,6,0,0,1,2.12-2.37,9.14,9.14,0,0,1,2.62-.89,3.76,3.76,0,0,1,4.35,2.87,4.28,4.28,0,0,0,.58,1.67,4.52,4.52,0,0,0,1.16.85c0.86,0.66,2.64-.26,3.37-0.76C1053.39,1428.53,1059,1428.06,1061.06,1431.37Z" transform="translate(-997.39 -1380.14)"/><path class="cls-2" d="M1049.17,1437.07a3.62,3.62,0,0,0-.61,1,4.26,4.26,0,0,0,1.07,4.63c1.46,1.29,4.21.16,4.86-1.48,0.81-2.08.89-4.38-1.46-5.35A3.53,3.53,0,0,0,1049.17,1437.07Zm4,0c0.93,0.49.92,1.82,0.71,2.67a3.77,3.77,0,0,1-.89,1.81,2.32,2.32,0,0,1-2.94.19,3,3,0,0,1-.79-2.25,3.39,3.39,0,0,1,2-2.71A2.2,2.2,0,0,1,1053.21,1437.07Z" transform="translate(-997.39 -1380.14)"/><path class="cls-2" d="M1056.69,1436.95a8.28,8.28,0,0,0-.85,2.52c-0.5,1.52-.92,3.06-1.41,4.58a0.5,0.5,0,0,0-.1.17,1.23,1.23,0,1,0,2.3.86c0.9-2.09,1.37-4.28,2.08-6.43,0.29-.89.52-1.53-0.27-2.17A1.26,1.26,0,0,0,1056.69,1436.95Zm1.08,1.39a10.36,10.36,0,0,1-.33,1.17c-0.21.69-.43,1.43-0.62,2.1-0.11.38-.75,3.32-1.14,3.27-0.76-.09,0-1.51.16-1.93,0.27-.9.54-1.81,0.82-2.7,0.14-.46.29-0.9,0.4-1.36s0.2-.62.27-0.94,0.4-.64.47-0.15A1.73,1.73,0,0,1,1057.77,1438.34Z" transform="translate(-997.39 -1380.14)"/><path class="cls-2" d="M1015.42,1422.41c-0.67-.25-1.34-0.49-2-0.71a1.6,1.6,0,0,0-1.91.64l0,0.08a0.51,0.51,0,0,0-.14.21c-0.62,1.67-3,5.64-.57,6.85a14.23,14.23,0,0,0,4.21,1.25c1.13,0.19,1.78-.75,2.2-1.7a16.11,16.11,0,0,0,1.15-3.8c0.19-1.16-.52-1.42-1.17-2.11A4.39,4.39,0,0,0,1015.42,1422.41Zm0.41,1.21c2.23,0.66,1.16,2.84.63,4.38-0.31.89-.72,1.83-1.81,1.64a10.11,10.11,0,0,1-3.34-1c-1.52-.85.45-4.35,0.95-5.62l0.09-.1C1012.88,1422.06,1015.13,1423.42,1015.83,1423.63Z" transform="translate(-997.39 -1380.14)"/><path class="cls-2" d="M1010.41,1429.46c-0.05.17-.1,0.34-0.15,0.51l-0.11.31v0a0.53,0.53,0,0,0,.31.91c0.57,0,.74-0.73.87-1.23a0.51,0.51,0,0,0-.21-0.82l-0.06,0A0.52,0.52,0,0,0,1010.41,1429.46Z" transform="translate(-997.39 -1380.14)"/><path class="cls-2" d="M1012.27,1429.94l-0.25.76a0.47,0.47,0,0,0-.1.58l0,0.08a0.52,0.52,0,0,0,.94-0.07l0.34-1A0.51,0.51,0,0,0,1012.27,1429.94Z" transform="translate(-997.39 -1380.14)"/><path class="cls-2" d="M1013.79,1430.43l-0.32,1a0.51,0.51,0,0,0,1,.32l0.32-1A0.51,0.51,0,0,0,1013.79,1430.43Z" transform="translate(-997.39 -1380.14)"/><path class="cls-2" d="M1013.63,1420.09a1.89,1.89,0,0,0-.33.73c-0.09.3-.18,0.6-0.28,0.9a0.51,0.51,0,0,0,1,.32c0.08-.23.16-0.47,0.23-0.7a1.76,1.76,0,0,1,.27-0.67,0.51,0.51,0,0,0-.14-0.71A0.52,0.52,0,0,0,1013.63,1420.09Z" transform="translate(-997.39 -1380.14)"/><path class="cls-2" d="M1015,1420.69a2.52,2.52,0,0,0-.22.36,2.85,2.85,0,0,0-.12.43,1.86,1.86,0,0,0-.21.45,0.51,0.51,0,0,0,1,.32l0-.14,0,0a1.52,1.52,0,0,0,.15-0.3c0-.11,0-0.21.08-0.32a1,1,0,0,1,.14-0.19A0.51,0.51,0,0,0,1015,1420.69Z" transform="translate(-997.39 -1380.14)"/><path class="cls-2" d="M1016.55,1421.59c-0.07.2-.17,0.38-0.25,0.57a1.39,1.39,0,0,0-.06.22l0,0.06a0.47,0.47,0,0,0-.16.48,0.51,0.51,0,0,0,.61.39,0.78,0.78,0,0,0,.54-0.61,8.36,8.36,0,0,1,.31-0.79A0.51,0.51,0,0,0,1016.55,1421.59Z" transform="translate(-997.39 -1380.14)"/><path class="cls-2" d="M1016.39,1428.86l0,0.06a0.52,0.52,0,0,0,.33.64c1.43,0.53,10.14,3.39,11.52,4a39,39,0,0,0,4.54,1.74,0.51,0.51,0,0,0,.32-1c-1.55-.51-10.4-3.49-11.88-4.19-1.31-.62-2.62-1-4-1.5A0.51,0.51,0,0,0,1016.39,1428.86Z" transform="translate(-997.39 -1380.14)"/><path class="cls-2" d="M1018.08,1424.91a0.51,0.51,0,0,0-.32,1c3.06,0.93,13.45,4.31,16.49,5.31a0.51,0.51,0,0,0,.32-1C1031.53,1429.22,1021.14,1425.84,1018.08,1424.91Z" transform="translate(-997.39 -1380.14)"/><path class="cls-2" d="M1045.72,1433.19l-2.66-.87c-1.52-.5-3.08-0.78-4.63-1.14-0.69-.16-1.35-0.32-2-0.47a7.1,7.1,0,0,0-1.46-.36,0.52,0.52,0,0,0-.51.35l0,0.06a0.52,0.52,0,0,0,.68.63c0.33,0.05.68,0.22,1,.29,0.56,0.13,1.11.2,1.67,0.38a32.1,32.1,0,0,0,3.56.83A33.36,33.36,0,0,1,1045,1434c0.5,0.16,1.12.13,0.89,0.74s-0.4,1.18-.65,1.75c-0.34.76-.56,2.44-1.6,2s-2.32-.76-3.46-1.13a21.74,21.74,0,0,1-3.64-1.52,13.89,13.89,0,0,0-2.88-1.35,0.51,0.51,0,0,0-.32,1,35.89,35.89,0,0,1,3.89,1.83c1.51,0.63,3,1.17,4.58,1.68,0.73,0.24,2.33,1.18,3.06.64a2.71,2.71,0,0,0,.66-1.18,10.43,10.43,0,0,0,.7-1.64c0.27-.82,1.21-2.16.76-3A2,2,0,0,0,1045.72,1433.19Z" transform="translate(-997.39 -1380.14)"/><path class="cls-3" d="M1052,1436.8a6.74,6.74,0,0,1-1.9-1.13,1.06,1.06,0,0,0-1,.38,6.53,6.53,0,0,1,1.46.7,1.88,1.88,0,0,1,.4,1.51c-0.09.43-.52,1.25,0.21,1.48a2.61,2.61,0,0,0,1.7.1c0.75-.3,1.54-1.17,1.1-2A10.12,10.12,0,0,1,1052,1436.8Z" transform="translate(-997.39 -1380.14)"/><path class="cls-3" d="M1049.83,1426.7a0.36,0.36,0,0,0,0,.34,4.39,4.39,0,0,1,2.48,5.35,7.5,7.5,0,0,1-.72,2c-0.48.71-.25,0.54,0.35,1a16.12,16.12,0,0,0,1.59.88c0.2,0.11.53,0.34,0.82,0.48a10.1,10.1,0,0,0,1.09-2.49,12.54,12.54,0,0,0,.48-3.15c-0.29-2.56-2.76-4.41-4.92-5.51a5.64,5.64,0,0,0-.9.26Z" transform="translate(-997.39 -1380.14)"/><path class="cls-2" d="M1056.67,1433.72a10.26,10.26,0,0,0,.23-3.74,6.94,6.94,0,0,0-2.17-3.18,10.93,10.93,0,0,0-3.27-2.22c-0.64-.31-1.21.65-0.56,1,2.22,1.09,4.74,2.91,5,5.57a12.54,12.54,0,0,1-.48,3.15,10.1,10.1,0,0,1-1.09,2.49c-0.29-.14-0.62-0.37-0.82-0.48a16.06,16.06,0,0,1-1.59-.88c-0.6-.43-0.84-0.25-0.35-1a7.5,7.5,0,0,0,.72-2,4.39,4.39,0,0,0-2.48-5.35c-0.65-.3-1.21.67-0.56,1,1.16,0.53,2.39,2,2.18,3.37a14.31,14.31,0,0,1-.56,1.9c-0.2.66-.75,1.1-0.91,1.76-0.23,1,1.52,1.43,2.05,1.77a7.33,7.33,0,0,0,2.68,1.19,0.55,0.55,0,0,0,.53-0.41,16,16,0,0,1,1-2A7.79,7.79,0,0,0,1056.67,1433.72Z" transform="translate(-997.39 -1380.14)"/><path class="cls-2" d="M1054.94,1437.14c-0.4-.59-1.37,0-1,0.56,0.6,0.88-.23,1.82-1,2.14a2.61,2.61,0,0,1-1.7-.1c-0.73-.23-0.3-1-0.21-1.48a1.88,1.88,0,0,0-.4-1.51,6.54,6.54,0,0,0-1.46-.7,1.24,1.24,0,0,1,1.46-.29,0.56,0.56,0,0,0,.28-1.08c-1-.27-3-0.19-3,1.34a1.28,1.28,0,0,0,1.21,1.19c1.53,0.32.27,1.59,0.54,2.54,0.42,1.5,3,1.46,4.07,1A2.54,2.54,0,0,0,1054.94,1437.14Z" transform="translate(-997.39 -1380.14)"/></svg>