<svg id="menu" xmlns="http://www.w3.org/2000/svg" viewBox="0 0 85.01 85.01"><defs><style>.cls-1,.cls-8{fill:#fcfcfc;}.cls-1{stroke:#9f6c00;stroke-miterlimit:10;stroke-width:5px;}.cls-2{fill:#9f6c00;}.cls-3{fill:#fff;}.cls-4{fill:#b071aa;}.cls-5{fill:#e4e2f1;}.cls-6{fill:#c0d4d8;}.cls-7{fill:#f7a61d;}</style></defs><title>menu2ç</title><circle class="cls-1" cx="42.51" cy="42.51" r="40.01"/><path class="cls-2" d="M738.84,2301.4c0.08-.06,3.62-3,6.48-0.76s2.62,5,3.28,6.58a2.89,2.89,0,0,0,3.15,1.94,3.45,3.45,0,0,0,1.7-.6,8.13,8.13,0,0,1-4.16,2.23c-2.48.42-3.91,0.52-5-.18a9,9,0,0,1-1.75-1.46l-2.26-2.94-3.47-2.77Z" transform="translate(-683.72 -2268.69)"/><path class="cls-3" d="M738.25,2303.93a3.49,3.49,0,0,1,2.09-2.06c1.76-.78,3.37-1.06,4.64,0a6.83,6.83,0,0,1,2,4.3,3.73,3.73,0,0,0,1.3,2.7,2.33,2.33,0,0,0,1.48.65,2.38,2.38,0,0,0,1.17,0,23.61,23.61,0,0,1-4.7.68,5,5,0,0,1-3.07-1.51c-0.74-.74-1.77-1.94-2.14-2.33S738.25,2303.93,738.25,2303.93Z" transform="translate(-683.72 -2268.69)"/><path class="cls-2" d="M709.64,2300c-0.1,0-4.43-1.52-6.34,1.54s-0.73,5.57-.78,7.31a2.89,2.89,0,0,1-2.28,2.91,3.45,3.45,0,0,1-1.8,0,8.13,8.13,0,0,0,4.67.65c2.47-.46,3.85-0.87,4.62-1.9a9,9,0,0,0,1.13-2L710,2305l2.29-3.81Z" transform="translate(-683.72 -2268.69)"/><path class="cls-3" d="M711.07,2302.12a3.49,3.49,0,0,0-2.67-1.21c-1.92-.11-3.53.18-4.33,1.65a6.83,6.83,0,0,0-.4,4.73,3.73,3.73,0,0,1-.28,3,2.33,2.33,0,0,1-1.16,1.12,2.38,2.38,0,0,1-1.11.37,23.61,23.61,0,0,0,4.64-1,5,5,0,0,0,2.36-2.49c0.43-1,1-2.44,1.19-2.92S711.07,2302.12,711.07,2302.12Z" transform="translate(-683.72 -2268.69)"/><path class="cls-2" d="M709.17,2300.51s-2-.71-1.91,1.85,1.54,2.33,1.72,2.11a3,3,0,0,0,.28-1,0.84,0.84,0,0,1-.88-0.75c-0.21-.84-0.12-1.13.31-1.45s0.64,0,.64,0Z" transform="translate(-683.72 -2268.69)"/><path class="cls-2" d="M740.31,2302.22s1.87-.92,2.1,1.64-1.28,2.48-1.48,2.28a3,3,0,0,1-.39-1,0.84,0.84,0,0,0,.79-0.84c0.11-.86,0-1.14-0.47-1.41s-0.63.07-.63,0.07Z" transform="translate(-683.72 -2268.69)"/><path class="cls-4" d="M733.21,2319.18a6,6,0,0,0-.42-2.09,22.41,22.41,0,0,1-1,2.23,10.93,10.93,0,0,1-1.74,2.51c0,0.63.16,1.22,0.22,1.85s-0.12.23,0.41,0.23h0.86a15.54,15.54,0,0,0,1.83,0c0.91-.11.61,0,0.39-0.85A20.48,20.48,0,0,1,733.21,2319.18Z" transform="translate(-683.72 -2268.69)"/><path class="cls-3" d="M726.45,2326.23c-0.25-.33-0.34-0.19.08-0.18h2a9.18,9.18,0,0,0,1.39-.18c0.28,0,.56-0.08.84-0.1-0.47,0-.35-0.4-0.48-0.75h-0.22c-0.89,0-1.08-1.15-1.12-2.18-1.48,1.22-3.89,3.14-5.8,2.38a8,8,0,0,1-3.4-2.79,6.35,6.35,0,0,1-.36,1c-0.16.6,0,1-.52,1.43a0.54,0.54,0,0,1-.56,0,0.63,0.63,0,0,0-.32-0.1c0,0.14,0,.28,0,0.41s-0.07.28-.09,0.44a2.25,2.25,0,0,1,.31,0c0.28,0,.56.07,0.84,0.09,0.61,0,1.22.26,1.83,0.26a0.54,0.54,0,0,1,.3.09,2.35,2.35,0,0,1,1.51-.2c0.85,0,1.7.11,2.56,0.11a0.53,0.53,0,0,1,.32.1l0.12,0A0.6,0.6,0,0,1,726.45,2326.23Z" transform="translate(-683.72 -2268.69)"/><path class="cls-3" d="M720.7,2327.06a15.67,15.67,0,0,1-1.61-.24H719c0.2,0.12.41,0.23,0.62,0.33a5.3,5.3,0,0,1,1.11,1.14l0.11,0.11,0.11-.06A2.09,2.09,0,0,1,720.7,2327.06Z" transform="translate(-683.72 -2268.69)"/><path class="cls-3" d="M726.26,2327.2c0,0.11,0,.22,0,0.33a2.07,2.07,0,0,1-.06.52l0.23,0.11a15.64,15.64,0,0,1,1.43-.93A6.08,6.08,0,0,1,726.26,2327.2Z" transform="translate(-683.72 -2268.69)"/><path class="cls-3" d="M733,2336.17c-0.89-.1-1.8-0.17-2.7-0.18a0.57,0.57,0,0,1-.27.09c1.12-.07,2.22.61,3.33,0.8s2.12,0.2,3.17.32c0.2,0,1,0,1,0a3.41,3.41,0,0,0-.8-0.31,1.28,1.28,0,0,1-.9-0.48A28.34,28.34,0,0,1,733,2336.17Z" transform="translate(-683.72 -2268.69)"/><path class="cls-4" d="M730.86,2327.13a12.94,12.94,0,0,0-3.36,1.62c1.17,0.6,2.46,1.29,2.72,2.62a6.4,6.4,0,0,1-.64,3.52c0.44,0,1.19,0,1.41,0,0.57,0,1.19.07,1.76,0.12,0.76,0.06,1.57.07,2.32,0.16,0.29,0,.58.08,0.87,0.09a12.23,12.23,0,0,0-1-4.91,8.07,8.07,0,0,0-3.94-3.09A0.6,0.6,0,0,1,730.86,2327.13Z" transform="translate(-683.72 -2268.69)"/><path class="cls-5" d="M716,2293.64c1.48,0,3-.06,4.47,0,2.76,0.16,5.61-.23,8.34.13s5.24,0,7.83.39c0.18,0,.48,0,0.79,0a36.9,36.9,0,0,0-2.17-5.93,12.08,12.08,0,0,0-1.38-1.79c-0.75-1.19-1.95-1-3.15-.64s-2.8,1.32-4.21,1.46a8.81,8.81,0,0,1-4.54-1.34c-1.56-.82-4.38-1.13-6-0.11-1.44.91-2,3-2.53,4.54a19.89,19.89,0,0,0-1,3.13C713.58,2293.5,714.8,2293.64,716,2293.64Z" transform="translate(-683.72 -2268.69)"/><path class="cls-3" d="M714.48,2315.69a0.53,0.53,0,0,1,.24-0.31,2.94,2.94,0,0,1-.28-0.74q-0.46-.18-0.91-0.4c-2.59.44-5.43,1.23-6.87,3.71a11.36,11.36,0,0,0-1.13,4.55c-0.06.48-.33,1,0,1a14.57,14.57,0,0,0,2-.18,13.51,13.51,0,0,1,1.94-.26l0.25-.05v-0.62a6.46,6.46,0,0,1,.63-3.46,5.38,5.38,0,0,1,4.08-3C714.44,2315.84,714.45,2315.76,714.48,2315.69Z" transform="translate(-683.72 -2268.69)"/><path class="cls-3" d="M710.5,2324a2.72,2.72,0,0,1-1.47.25c-0.77,0-1.52.25-2.3,0.3l-0.42.05a2.75,2.75,0,0,0,1.94,3.05c0.37,0.1,2.32.25,2-.77a2.24,2.24,0,0,1-.13-0.93,0.94,0.94,0,0,1,1-.91c0.59,0,.72-0.4.29-0.76a1.94,1.94,0,0,0-.93-0.3Z" transform="translate(-683.72 -2268.69)"/><path class="cls-4" d="M712.05,2297c1.17-.07,2.33.06,3.49,0.07,2.66,0,5.33.39,8,.46,2.88,0.08,5.76.29,8.64,0.29,1.14,0,2.31-.11,3.45-0.19,0.7,0,1.35-.19,2-0.19,0.2,0,.56.06,0.87,0.06-0.15-.4-0.36-0.82-0.5-1.17l-0.29-.71-0.06-.23c-1.08,0-2.16-.17-3.24-0.25-2.47-.19-5-0.3-7.5-0.3-2.66,0-5.31-.09-8-0.09H715c-0.84,0-1.72-.11-2.56-0.11a5.78,5.78,0,0,1-.36,1.28C712,2296.29,711.41,2297,712.05,2297Z" transform="translate(-683.72 -2268.69)"/><path class="cls-3" d="M713,2336.46a0.58,0.58,0,0,1-.35.17c-0.53.06-2.56,0.65-.85,0.65,0.76,0,1.5.13,2.27,0.11s2.89-.11,3.78-0.83c-1.2,0-2.39-.11-3.63-0.11C713.88,2336.45,713.46,2336.47,713,2336.46Z" transform="translate(-683.72 -2268.69)"/><path class="cls-4" d="M719.76,2328.86c-0.66-.59-1.72-1.64-2.69-1.7l-0.16,0a7.37,7.37,0,0,0-3.25,2.1,8.29,8.29,0,0,0-1.44,5.06c0,0.26-.13,1,0.21,1a10.94,10.94,0,0,0,1.37,0c0.79,0,1.56.08,2.35,0.14a16.55,16.55,0,0,0,3.11-.07,22.7,22.7,0,0,1-.14-2.3,4,4,0,0,1,.39-2.56,13,13,0,0,1,1-1A4.47,4.47,0,0,1,719.76,2328.86Z" transform="translate(-683.72 -2268.69)"/><path class="cls-4" d="M718.27,2323.7c0.07-.42.36-1.31,0.36-1.42a4.57,4.57,0,0,1,.18-1.11c-0.3-.42-0.61-0.84-0.95-1.26-0.86-1.07-1.39-2.38-2.32-3.41l-0.11-.13a30.44,30.44,0,0,0-.63,3.31,18.52,18.52,0,0,0-.36,2.83,2.43,2.43,0,0,1-.22.69l0.07,0c0.54,0.09,1.11.11,1.63,0.23a16.56,16.56,0,0,0,2.1.22Z" transform="translate(-683.72 -2268.69)"/><path class="cls-5" d="M724,2324.17a9.19,9.19,0,0,0,4.86-2.74,0.5,0.5,0,0,1,.33-0.34c0.15-.17.3-0.34,0.43-0.51a18.25,18.25,0,0,0,2.38-4.73,33.16,33.16,0,0,1-15.23-.48l-1-.28c0.43,0.69,1.16,1.37,1.51,1.94a29.11,29.11,0,0,0,1.89,2.77C720.21,2321.23,721.65,2324.46,724,2324.17Z" transform="translate(-683.72 -2268.69)"/><path class="cls-3" d="M725.12,2327.08h0c-0.9,0-1.8-.1-2.7-0.12-0.51,0-.57-0.08-0.53.44,0,0.37.05,0.48,0.48,0.5a21.1,21.1,0,0,0,2.52-.11c0.33,0,.28-0.24.28-0.52A1.07,1.07,0,0,1,725.12,2327.08Z" transform="translate(-683.72 -2268.69)"/><path class="cls-5" d="M748.39,2296.49c0.45-1,.84-2.62-0.32-3.23a2.49,2.49,0,0,0-2.83.07,15.12,15.12,0,0,1-1.72,1.51,11.67,11.67,0,0,0-2.12,1.51,3.64,3.64,0,0,1-1.09.6c-0.17.06-.44,0.2-0.68,0.29a5.3,5.3,0,0,1,.14.52,0.57,0.57,0,0,1-.26.63,2.32,2.32,0,0,1-1.37.17c-0.72,0-1.4.11-2.12,0.16-1.45.1-3,.25-4.41,0.21a90.24,90.24,0,0,1-9.31-.41c-1.59-.2-3.21-0.09-4.81-0.19a47,47,0,0,0-5-.23c-0.48,0-1.79.18-1.9-.58a2.31,2.31,0,0,1,.13-1.07l-0.34-.22a5.65,5.65,0,0,1-.75-0.61c-0.57-.46-1.25-0.82-1.8-1.3s-1-1-1.59-1.39-1.52-1.51-2.29-1.43c-1,.1-2.68.46-2.69,1.78a4.85,4.85,0,0,0,.92,2.36,8,8,0,0,0,3.48,2.79,24.88,24.88,0,0,0,9.18,1.73c3.52,0.08,7,.09,10.57.09,3,0,6-.08,9,0,1.56,0.06,3.13.18,4.69,0.16a13,13,0,0,0,4.85-1.09C745.33,2298.75,747.7,2298,748.39,2296.49Z" transform="translate(-683.72 -2268.69)"/><path class="cls-3" d="M739.08,2301.58a10.52,10.52,0,0,1-1.63-.07c-3.84-.49-7.88-0.18-11.74-0.16h0c-4.73,0-9.63.32-14.33-.3l-0.71-.1h0c-1.11,3.57-1.16,8.35,1.69,11.08a7.61,7.61,0,0,0,2.69,1.6,0.6,0.6,0,0,1,.18.07,31.4,31.4,0,0,0,3.2.85,27.82,27.82,0,0,0,6.35.81,30.88,30.88,0,0,0,7.27-.65,20.24,20.24,0,0,0,2.52-.72,0.54,0.54,0,0,1,.44-0.18c0.2-.09.41-0.18,0.61-0.29,0.68-.36,2-0.77,2.36-1.5a11.75,11.75,0,0,0,1.76-6.49C739.66,2304.22,739.1,2302.91,739.08,2301.58Z" transform="translate(-683.72 -2268.69)"/><path class="cls-3" d="M733.43,2315.52v0l-0.11.26a0.61,0.61,0,0,1,.11.11,3.7,3.7,0,0,1,.41.72,0.58,0.58,0,0,1,.34,0,4.39,4.39,0,0,1,3.76,4.54,7.49,7.49,0,0,1-.18,2.16c-0.28.81-.1,0.59,0.59,0.84a16.12,16.12,0,0,0,1.76.44c0.23,0.06.6,0.2,0.92,0.26a10.1,10.1,0,0,0,.42-2.69,12.54,12.54,0,0,0-.35-3.17c-0.94-2.4-3.67-3.52-6-4C734.52,2315.17,734,2315.36,733.43,2315.52Z" transform="translate(-683.72 -2268.69)"/><path class="cls-2" d="M720.27,2285.22a14.11,14.11,0,0,0-3.65,2c-0.69.43-1.32,0.93-2,1.41-0.27.2-.59,0.35-0.87,0.54a2.21,2.21,0,0,1-.54.38,0.14,0.14,0,0,0,.07.27,5.26,5.26,0,0,0,1.13-.73c0.67-.39,1.25-0.92,1.9-1.36a14.66,14.66,0,0,1,4-2.23A0.14,0.14,0,0,0,720.27,2285.22Z" transform="translate(-683.72 -2268.69)"/><path class="cls-2" d="M722,2285.71a15.2,15.2,0,0,0-2.25,1.09,26.14,26.14,0,0,0-2.65,1.7l-1.25.83c-0.49.32-.88,0.74-1.4,1s-0.76.5-1.14,0.74c-0.19.12-.4,0.23-0.6,0.34a4.57,4.57,0,0,1-.45.33c-0.17.06-.09,0.33,0.07,0.27a7.66,7.66,0,0,0,.73-0.47,10.26,10.26,0,0,0,1.14-.74c0.33-.24.73-0.38,1-0.64,0.51-.42,1-0.79,1.57-1.16,0.89-.6,1.76-1.24,2.69-1.78A14.68,14.68,0,0,1,722,2286a0.14,0.14,0,0,0,.22-0.11v-0.07A0.14,0.14,0,0,0,722,2285.71Z" transform="translate(-683.72 -2268.69)"/><path class="cls-2" d="M724.49,2286.26a5.3,5.3,0,0,0-2.72,1.41c-1,.77-2.21,1.39-3.29,2.12s-2.38,1.53-3.59,2.27a24,24,0,0,0-3.11,1.83c-0.14.12,0.06,0.31,0.2,0.2a23.58,23.58,0,0,1,3.06-1.79c1.13-.69,2.26-1.39,3.37-2.12,0.5-.33,1-0.69,1.48-1a10.47,10.47,0,0,0,1.42-.88c0.37-.32.83-0.59,1.23-0.88a3.82,3.82,0,0,1,1.95-.89A0.14,0.14,0,0,0,724.49,2286.26Z" transform="translate(-683.72 -2268.69)"/><path class="cls-2" d="M726.23,2286.7c-0.89.42-1.66,1.12-2.51,1.63s-1.85,1.29-2.8,1.9c-1.83,1.18-3.6,2.49-5.35,3.78-0.14.11,0,.35,0.14,0.24,0.87-.64,1.74-1.28,2.64-1.86s1.77-1.33,2.71-1.92,1.82-1.32,2.8-1.9,1.63-1.22,2.51-1.63C726.53,2286.86,726.39,2286.62,726.23,2286.7Z" transform="translate(-683.72 -2268.69)"/><path class="cls-2" d="M730.72,2285.64a6.46,6.46,0,0,0-2.28,1.55c-1.09.85-2.12,1.75-3.25,2.55s-2.05,1.41-3,2.16a26.42,26.42,0,0,0-2.62,2,0.14,0.14,0,0,0,.1.24h0.07a0.13,0.13,0,0,0,.13-0.14,29.23,29.23,0,0,1,2.46-1.85c0.93-.7,1.88-1.35,2.84-2s1.83-1.35,2.71-2.08c0.47-.39,1-0.76,1.43-1.14a4,4,0,0,1,1.54-1C731,2285.88,730.89,2285.61,730.72,2285.64Z" transform="translate(-683.72 -2268.69)"/><path class="cls-2" d="M734.1,2285.51a11.89,11.89,0,0,0-2.67,1.8c-1,.82-2,1.62-3,2.39s-1.8,1.29-2.66,2-2,1.3-2.86,2.12a0.14,0.14,0,0,0,.2.2c0.75-.71,1.68-1.17,2.48-1.82,1-.78,2-1.51,3-2.26s1.87-1.55,2.87-2.24c0.52-.36,1-0.83,1.46-1.2a8.26,8.26,0,0,1,1.39-.75C734.4,2285.68,734.26,2285.44,734.1,2285.51Z" transform="translate(-683.72 -2268.69)"/><path class="cls-2" d="M735.21,2287.39a13.86,13.86,0,0,0-2.23,1.53c-0.73.55-1.42,1.15-2.12,1.73s-1.61,1.13-2.32,1.8c-0.36.34-.75,0.65-1.12,1a4.15,4.15,0,0,0-.76.69,0.14,0.14,0,0,0,.24.14,2.58,2.58,0,0,1,.54-0.46c0.4-.35.78-0.71,1.18-1,0.72-.6,1.5-1.13,2.23-1.74s1.5-1.28,2.27-1.86a13.87,13.87,0,0,1,2.23-1.53C735.51,2287.56,735.37,2287.32,735.21,2287.39Z" transform="translate(-683.72 -2268.69)"/><path class="cls-2" d="M736,2289.25a3.32,3.32,0,0,1-.94.69l-1,.65c-0.7.45-1.44,0.86-2.11,1.36s-1.19.9-1.76,1.37a2.8,2.8,0,0,0-.73.69,0.12,0.12,0,0,0-.06.11v0.07a0.14,0.14,0,0,0,.28,0,0.81,0.81,0,0,1,.29-0.28c0.27-.21.51-0.48,0.78-0.7,0.69-.55,1.4-1.07,2.13-1.55s1.41-.9,2.1-1.36a5.38,5.38,0,0,0,1.13-.78,0.13,0.13,0,0,0,.12-0.13v-0.07A0.14,0.14,0,0,0,736,2289.25Z" transform="translate(-683.72 -2268.69)"/><path class="cls-2" d="M736.43,2291.21a2.66,2.66,0,0,0-1,.56c-0.45.31-.95,0.56-1.42,0.85s-1.66.79-1.74,1.51c0,0.18.26,0.18,0.28,0a2.23,2.23,0,0,1,1-.9c0.33-.22.69-0.42,1-0.62s0.67-.39,1-0.6a2.65,2.65,0,0,1,.92-0.53C736.68,2291.45,736.6,2291.18,736.43,2291.21Z" transform="translate(-683.72 -2268.69)"/><path class="cls-2" d="M737.55,2292.22a14.66,14.66,0,0,1-1.46,1,8.12,8.12,0,0,1-.81.66,0.59,0.59,0,0,0-.27.31c-0.06.17,0.21,0.24,0.27,0.07a1.73,1.73,0,0,1,.52-0.43c0.25-.19.48-0.41,0.74-0.59a4.94,4.94,0,0,0,1.21-.81C737.86,2292.28,737.66,2292.08,737.55,2292.22Z" transform="translate(-683.72 -2268.69)"/><path class="cls-2" d="M704.82,2291.18c-0.7.58-1.38,1.17-2.09,1.74a5.26,5.26,0,0,0-.79,1,3.05,3.05,0,0,0-.57.86,0.14,0.14,0,0,0,.27.07,3.82,3.82,0,0,1,.54-0.8,5.09,5.09,0,0,1,1-1.12c0.64-.51,1.25-1.05,1.88-1.57C705.15,2291.26,705,2291.06,704.82,2291.18Z" transform="translate(-683.72 -2268.69)"/><path class="cls-2" d="M706.45,2292.14a3.15,3.15,0,0,1-.87,1c-0.4.42-.77,0.87-1.15,1.31l-1.28,1.46a7.42,7.42,0,0,1-.81,1,0.14,0.14,0,0,0,.07.26h0.07a0.13,0.13,0,0,0,.13-0.14c0.21-.22.36-0.49,0.58-0.71,0.5-.52,1-1.08,1.44-1.62s0.87-1,1.33-1.49a2.48,2.48,0,0,0,.77-0.94A0.14,0.14,0,0,0,706.45,2292.14Z" transform="translate(-683.72 -2268.69)"/><path class="cls-2" d="M707.78,2293.74a9.22,9.22,0,0,1-1.72,2.5c-0.46.58-1.24,1.07-1.35,1.85,0,0.18.26,0.18,0.28,0a2.39,2.39,0,0,1,.79-1.16,15.42,15.42,0,0,0,1.09-1.26,6.74,6.74,0,0,0,1.17-1.87C708.1,2293.65,707.83,2293.58,707.78,2293.74Z" transform="translate(-683.72 -2268.69)"/><path class="cls-2" d="M709.38,2295a4.71,4.71,0,0,1-.56.93,10.48,10.48,0,0,1-1,1.24,4.08,4.08,0,0,0-1.15,1.67c0,0.18.23,0.25,0.27,0.07a6.27,6.27,0,0,1,1.67-2.25,4.31,4.31,0,0,0,1.05-1.58A0.14,0.14,0,0,0,709.38,2295Z" transform="translate(-683.72 -2268.69)"/><path class="cls-2" d="M710.93,2295.87c-0.41.66-.89,1.24-1.32,1.88a16.12,16.12,0,0,0-1.32,1.6c-0.08.16,0.16,0.3,0.24,0.14a11.26,11.26,0,0,1,1.18-1.41c0.27-.38.57-0.74,0.86-1.1a8.8,8.8,0,0,0,.6-1A0.14,0.14,0,0,0,710.93,2295.87Z" transform="translate(-683.72 -2268.69)"/><path class="cls-2" d="M712.41,2297.51c-0.36.46-.78,0.88-1.12,1.37a3.57,3.57,0,0,0-.79,1.27c0,0.18.24,0.25,0.27,0.07a3.51,3.51,0,0,1,.77-1.21c0.31-.47.73-0.87,1.08-1.31C712.72,2297.57,712.52,2297.37,712.41,2297.51Z" transform="translate(-683.72 -2268.69)"/><path class="cls-2" d="M715.09,2297.71a2,2,0,0,1-.38.36c-0.22.27-.48,0.5-0.7,0.77a7.85,7.85,0,0,0-1.14,1.35c-0.08.16,0.16,0.3,0.24,0.14a2.93,2.93,0,0,1,.65-0.76c0.25-.24.43-0.54,0.67-0.8a5.2,5.2,0,0,1,.68-0.69,0.6,0.6,0,0,0,.25-0.29C715.42,2297.62,715.15,2297.55,715.09,2297.71Z" transform="translate(-683.72 -2268.69)"/><path class="cls-2" d="M717.38,2297.75a1.48,1.48,0,0,1-.47.57c-0.22.25-.38,0.54-0.6,0.79a3.76,3.76,0,0,0-.8,1.18c-0.06.17,0.21,0.24,0.27,0.07a9.78,9.78,0,0,1,1.1-1.5,2.88,2.88,0,0,1,.61-0.73,0.42,0.42,0,0,0,.18-0.38C717.65,2297.57,717.37,2297.57,717.38,2297.75Z" transform="translate(-683.72 -2268.69)"/><path class="cls-2" d="M719.89,2298.13a6.22,6.22,0,0,1-1,1.33,2.63,2.63,0,0,0-.65,1.21c0,0.18.26,0.18,0.28,0a3.29,3.29,0,0,1,.89-1.39,3.29,3.29,0,0,0,.77-1.08C720.23,2298,720,2298,719.89,2298.13Z" transform="translate(-683.72 -2268.69)"/><path class="cls-2" d="M722.75,2298.13c0,0.06-.36.45-0.42,0.54l-0.43.61a4,4,0,0,1-.48.71,0.54,0.54,0,0,0-.2.37c0,0.18.24,0.25,0.27,0.07a1.15,1.15,0,0,1,.29-0.45c0.19-.26.35-0.54,0.53-0.81a2.12,2.12,0,0,1,.46-0.6,0.56,0.56,0,0,0,.24-0.37A0.14,0.14,0,0,0,722.75,2298.13Z" transform="translate(-683.72 -2268.69)"/><path class="cls-2" d="M724.92,2298.31a1.81,1.81,0,0,1-.38.39,4.15,4.15,0,0,0-.46.53,7.48,7.48,0,0,1-.47.59,3.54,3.54,0,0,0-.43.45c-0.11.14,0.13,0.28,0.24,0.14a3.8,3.8,0,0,1,.47-0.46c0.18-.17.31-0.42,0.47-0.61a9.47,9.47,0,0,0,.8-0.88C725.26,2298.3,725,2298.16,724.92,2298.31Z" transform="translate(-683.72 -2268.69)"/><path class="cls-2" d="M727.21,2298.48a2.14,2.14,0,0,1-.44.53c-0.12.15-.21,0.31-0.33,0.46a2.74,2.74,0,0,0-.62,1c0,0.18.24,0.25,0.27,0.07a3.69,3.69,0,0,1,.75-1.19,3.39,3.39,0,0,0,.64-0.83A0.14,0.14,0,0,0,727.21,2298.48Z" transform="translate(-683.72 -2268.69)"/><path class="cls-2" d="M730.45,2298c-0.62.64-1.08,1.42-1.67,2.09-0.12.13,0.08,0.33,0.2,0.2,0.59-.67,1-1.45,1.67-2.09A0.14,0.14,0,0,0,730.45,2298Z" transform="translate(-683.72 -2268.69)"/><path class="cls-2" d="M732.64,2298.13a2.24,2.24,0,0,1-.26.45,4.08,4.08,0,0,1-.42.65,6.53,6.53,0,0,0-.7,1,0.14,0.14,0,0,0,.24.14,14.36,14.36,0,0,1,.84-1.22,3.37,3.37,0,0,0,.57-1A0.14,0.14,0,0,0,732.64,2298.13Z" transform="translate(-683.72 -2268.69)"/><path class="cls-2" d="M735.39,2298.07a11.68,11.68,0,0,0-.95,1.12,8,8,0,0,0-1,1.2c-0.08.16,0.16,0.3,0.24,0.14a6.5,6.5,0,0,1,.84-1.06,14.81,14.81,0,0,1,1-1.21A0.14,0.14,0,0,0,735.39,2298.07Z" transform="translate(-683.72 -2268.69)"/><path class="cls-2" d="M737.32,2297.89c-0.11.18-.26,0.32-0.37,0.5s-0.27.49-.43,0.72c-0.28.4-.62,0.78-0.87,1.21a0.14,0.14,0,0,0,.24.14c0.22-.38.53-0.71,0.78-1.08s0.61-.9.9-1.36A0.14,0.14,0,0,0,737.32,2297.89Z" transform="translate(-683.72 -2268.69)"/><path class="cls-2" d="M740.22,2296.43a4.48,4.48,0,0,1-.45,1.09,13.67,13.67,0,0,1-.62,1.28,7.26,7.26,0,0,0-.52,1.12c0,0.09-.2.63-0.3,0.84a0.13,0.13,0,0,0-.12.13V2301a0.14,0.14,0,0,0,.21.12,0.82,0.82,0,0,0,.27-0.5,10.34,10.34,0,0,1,.7-1.64c0.27-.48.5-1,0.72-1.51a3.55,3.55,0,0,0,.39-1C740.52,2296.25,740.24,2296.25,740.22,2296.43Z" transform="translate(-683.72 -2268.69)"/><path class="cls-2" d="M743.22,2294.41a4.72,4.72,0,0,1-.69,1.64c-0.27.52-.58,1-0.85,1.55a15.24,15.24,0,0,1-1.2,2.57c-0.11.14,0.09,0.34,0.2,0.2a16.9,16.9,0,0,0,1.36-2.85c0.31-.6.67-1.17,1-1.78a3.65,3.65,0,0,0,.51-1.32A0.14,0.14,0,0,0,743.22,2294.41Z" transform="translate(-683.72 -2268.69)"/><path class="cls-2" d="M746.91,2292.07a11.21,11.21,0,0,1-.77,1.7,19.51,19.51,0,0,1-1.11,2.06,22.78,22.78,0,0,0-1.07,2.12,15.39,15.39,0,0,0-.88,1.65,0.14,0.14,0,0,0,.27.07,3.35,3.35,0,0,1,.46-0.77,8.68,8.68,0,0,0,.5-1,22.52,22.52,0,0,1,1.08-2.09,19.92,19.92,0,0,0,1.1-2.1,10,10,0,0,0,.69-1.53A0.14,0.14,0,0,0,746.91,2292.07Z" transform="translate(-683.72 -2268.69)"/><path class="cls-2" d="M748.58,2292.91a15.56,15.56,0,0,1-1.21,2.94c-0.4.9-.77,1.77-1.08,2.7-0.06.17,0.21,0.24,0.27,0.07,0.33-1,.74-1.91,1.16-2.86a14.76,14.76,0,0,0,1.14-2.78C748.89,2292.81,748.62,2292.73,748.58,2292.91Z" transform="translate(-683.72 -2268.69)"/><path class="cls-2" d="M712.58,2310.84a1.72,1.72,0,0,1-.31.72,1.7,1.7,0,0,0-.24.75c0,0.18.27,0.18,0.28,0,0-.55.53-0.91,0.56-1.46C712.87,2310.66,712.59,2310.66,712.58,2310.84Z" transform="translate(-683.72 -2268.69)"/><path class="cls-2" d="M715.66,2312c-0.18.31-.33,0.63-0.5,0.94a1.87,1.87,0,0,0-.36.8c0,0.18.27,0.18,0.28,0a2,2,0,0,1,.38-0.77c0.15-.28.28-0.56,0.44-0.84A0.14,0.14,0,0,0,715.66,2312Z" transform="translate(-683.72 -2268.69)"/><path class="cls-2" d="M718.22,2313.07a1.43,1.43,0,0,1-.39.81c-0.17.22-.27,0.49-0.42,0.72s0.14,0.29.24,0.14c0.2-.3.35-0.62,0.57-0.91a1.35,1.35,0,0,0,.29-0.76C718.51,2312.89,718.23,2312.89,718.22,2313.07Z" transform="translate(-683.72 -2268.69)"/><path class="cls-2" d="M721.91,2313.59a2.34,2.34,0,0,1-.46.73,7.08,7.08,0,0,0-.57.91c-0.08.16,0.16,0.3,0.24,0.14a10.21,10.21,0,0,1,.57-0.91,2.82,2.82,0,0,0,.49-0.8A0.14,0.14,0,0,0,721.91,2313.59Z" transform="translate(-683.72 -2268.69)"/><path class="cls-2" d="M725.6,2313.73a3.54,3.54,0,0,1-.31.74,7.43,7.43,0,0,1-.44.83c-0.1.15,0.14,0.29,0.24,0.14a6.2,6.2,0,0,0,.44-0.83,4.29,4.29,0,0,0,.34-0.81A0.14,0.14,0,0,0,725.6,2313.73Z" transform="translate(-683.72 -2268.69)"/><path class="cls-2" d="M728.32,2313.59a4.2,4.2,0,0,1-.51.89c-0.14.31-.27,0.61-0.4,0.92s0.2,0.24.27,0.07c0.15-.36.3-0.73,0.47-1.08a2.83,2.83,0,0,0,.43-0.73C728.61,2313.49,728.35,2313.41,728.32,2313.59Z" transform="translate(-683.72 -2268.69)"/><path class="cls-2" d="M732.15,2313.09a1,1,0,0,0-.39.74,3.69,3.69,0,0,1-.68,1.44c-0.11.14,0.09,0.34,0.2,0.2a3.94,3.94,0,0,0,.52-0.93L732,2314a1,1,0,0,1,.28-0.68C732.43,2313.23,732.29,2313,732.15,2313.09Z" transform="translate(-683.72 -2268.69)"/><path class="cls-2" d="M735.14,2312.48c0-.18-0.3-0.1-0.27.07a1.63,1.63,0,0,1-.39.69,2.49,2.49,0,0,0-.38.83,0.14,0.14,0,0,0,.27.07,6,6,0,0,1,.5-1A1.1,1.1,0,0,0,735.14,2312.48Z" transform="translate(-683.72 -2268.69)"/><path class="cls-2" d="M737.3,2311.47a4.9,4.9,0,0,1-.47,1.88c-0.07.16,0.17,0.3,0.24,0.14a5.27,5.27,0,0,0,.51-2A0.14,0.14,0,0,0,737.3,2311.47Z" transform="translate(-683.72 -2268.69)"/><path class="cls-2" d="M720.38,2323h-0.07a0.14,0.14,0,0,0-.11.23,3,3,0,0,1-.35.54c-0.13.19-.24,0.4-0.38,0.59a5.06,5.06,0,0,0-.83,1.32,0.14,0.14,0,0,0,.27.07,5.43,5.43,0,0,1,.89-1.38c0.13-.19.24-0.4,0.37-0.59a1.49,1.49,0,0,0,.34-0.61A0.14,0.14,0,0,0,720.38,2323Z" transform="translate(-683.72 -2268.69)"/><path class="cls-2" d="M721.39,2323.7A7.22,7.22,0,0,0,720,2326a0.14,0.14,0,0,0,.27.07,6.92,6.92,0,0,1,1.36-2.17C721.7,2323.76,721.51,2323.56,721.39,2323.7Z" transform="translate(-683.72 -2268.69)"/><path class="cls-2" d="M722.58,2324.39a4.38,4.38,0,0,0-1.22,1.73c-0.06.17,0.21,0.24,0.27,0.07a4.11,4.11,0,0,1,1.15-1.61A0.14,0.14,0,0,0,722.58,2324.39Z" transform="translate(-683.72 -2268.69)"/><path class="cls-2" d="M724.6,2324.6c-0.19.2-.31,0.45-0.5,0.65a1.48,1.48,0,0,0-.37.6,0.14,0.14,0,0,0,.27.07,1.43,1.43,0,0,1,.4-0.58c0.16-.16.24-0.37,0.4-0.54A0.14,0.14,0,0,0,724.6,2324.6Z" transform="translate(-683.72 -2268.69)"/><path class="cls-2" d="M726.75,2324.18a8.83,8.83,0,0,0-.65.86,2.84,2.84,0,0,0-.43.73,0.14,0.14,0,0,0,.27.07c0.08-.25.3-0.42,0.4-0.66a2.38,2.38,0,0,1,.25-0.35,3.84,3.84,0,0,1,.35-0.45A0.14,0.14,0,0,0,726.75,2324.18Z" transform="translate(-683.72 -2268.69)"/><path class="cls-2" d="M728.91,2323.28a10.16,10.16,0,0,0-1.69,2.6c-0.08.16,0.16,0.3,0.24,0.14a9.94,9.94,0,0,1,1.65-2.55A0.14,0.14,0,0,0,728.91,2323.28Z" transform="translate(-683.72 -2268.69)"/><path class="cls-2" d="M729.87,2323.93c-0.41.68-.89,1.31-1.25,2-0.08.16,0.16,0.3,0.24,0.14,0.36-.71.84-1.34,1.25-2A0.14,0.14,0,0,0,729.87,2323.93Z" transform="translate(-683.72 -2268.69)"/><path class="cls-2" d="M713.84,2334.13a3.37,3.37,0,0,1-.38.81c-0.14.23-.22,0.47-0.37,0.69s0.14,0.29.24,0.14,0.26-.52.42-0.77a3.33,3.33,0,0,0,.36-0.8A0.14,0.14,0,0,0,713.84,2334.13Z" transform="translate(-683.72 -2268.69)"/><path class="cls-2" d="M716.13,2334.13a3.18,3.18,0,0,1-.36.79c-0.14.25-.05,0.53-0.18,0.78a0.14,0.14,0,0,0,.24.14c0.13-.25.06-0.54,0.18-0.78a3.79,3.79,0,0,0,.39-0.86A0.14,0.14,0,0,0,716.13,2334.13Z" transform="translate(-683.72 -2268.69)"/><path class="cls-2" d="M717.88,2334.41a4.14,4.14,0,0,1-.4.94c-0.1.15,0.14,0.29,0.24,0.14a4.44,4.44,0,0,0,.43-1C718.21,2334.32,717.94,2334.25,717.88,2334.41Z" transform="translate(-683.72 -2268.69)"/><path class="cls-2" d="M731.55,2333.83a0.71,0.71,0,0,0-.45.5c-0.07.19-.11,0.38-0.19,0.56a1.58,1.58,0,0,0-.15.53c0,0.18.26,0.18,0.28,0a2.62,2.62,0,0,1,.25-0.71,0.79,0.79,0,0,1,.35-0.62C731.79,2334,731.72,2333.77,731.55,2333.83Z" transform="translate(-683.72 -2268.69)"/><path class="cls-2" d="M733.63,2333.82a4.28,4.28,0,0,0-.79,1.53,0.14,0.14,0,0,0,.28,0,4.1,4.1,0,0,1,.75-1.39C733.94,2333.8,733.7,2333.66,733.63,2333.82Z" transform="translate(-683.72 -2268.69)"/><path class="cls-2" d="M735.18,2333.93a4.72,4.72,0,0,0-.79,1.21c-0.08.16,0.16,0.3,0.24,0.14a4.49,4.49,0,0,1,.74-1.16A0.14,0.14,0,0,0,735.18,2333.93Z" transform="translate(-683.72 -2268.69)"/><path class="cls-2" d="M706.8,2321.73a1.28,1.28,0,0,0-.37.66,4.82,4.82,0,0,0-.39,1.13c0,0.18.27,0.18,0.28,0a2.4,2.4,0,0,1,.28-0.75,2,2,0,0,1,.35-0.8C707.08,2321.86,706.94,2321.62,706.8,2321.73Z" transform="translate(-683.72 -2268.69)"/><path class="cls-2" d="M708.12,2322.05a5.52,5.52,0,0,1-.48,1.29c-0.06.17,0.21,0.24,0.27,0.07a5.63,5.63,0,0,0,.49-1.36C708.41,2321.88,708.13,2321.88,708.12,2322.05Z" transform="translate(-683.72 -2268.69)"/><path class="cls-2" d="M738.52,2322.86a1.57,1.57,0,0,0-.38.55c-0.09.22-.13,0.47-0.21,0.7a0.14,0.14,0,0,0,.27.07c0.06-.19.11-0.38,0.17-0.56a1.27,1.27,0,0,1,.35-0.56A0.14,0.14,0,0,0,738.52,2322.86Z" transform="translate(-683.72 -2268.69)"/><path class="cls-2" d="M739.82,2323.17c-0.2.4-.43,0.79-0.63,1.18-0.08.16,0.16,0.3,0.24,0.14,0.2-.4.43-0.79,0.63-1.18C740.15,2323.15,739.91,2323,739.82,2323.17Z" transform="translate(-683.72 -2268.69)"/><path class="cls-2" d="M740.61,2303.87c0-.8-0.42-1.57-0.42-2.37a0.56,0.56,0,0,0-1.11,0c0,1.35.58,2.69,0.65,4A11.75,11.75,0,0,1,738,2312c-0.39.73-1.68,1.14-2.36,1.5a14.54,14.54,0,0,1-3.56,1.19,30.88,30.88,0,0,1-7.27.65,27.83,27.83,0,0,1-6.35-.81c-2.14-.5-4.44-0.95-6.08-2.52-2.85-2.73-2.81-7.51-1.69-11.08a0.56,0.56,0,0,0-1.07-.3,20,20,0,0,0-.65,6,8.84,8.84,0,0,0,2,5.59c1.42,1.78,3.82,2.61,5.94,3.13a33.8,33.8,0,0,0,7,1.1c5.12,0.14,10.55-.32,14.77-3.49a5.91,5.91,0,0,0,1.26-2.05,8.2,8.2,0,0,0,.91-3.44c0-.66.08-1.31,0.08-2S740.61,2304.42,740.61,2303.87Z" transform="translate(-683.72 -2268.69)"/><path class="cls-2" d="M749.91,2293.9c-0.06-1.24-1.93-2.25-3-2.2-2.09.09-2.94,1.66-4.64,2.58-1,.56-1.65,1.42-2.84,1.8-0.19.06-.39,0-0.58,0.11a1,1,0,0,0,.54,1.12,3.73,3.73,0,0,0,1-.35,3.63,3.63,0,0,0,1.09-.6,11.67,11.67,0,0,1,2.12-1.51,15.12,15.12,0,0,0,1.72-1.51,2.49,2.49,0,0,1,2.83-.07c1.16,0.61.77,2.26,0.32,3.23-0.69,1.5-3.06,2.26-4.46,2.84a13,13,0,0,1-4.85,1.09c-1.56,0-3.13-.1-4.69-0.16-3-.11-6,0-9,0-3.52,0-7,0-10.57-.09a24.88,24.88,0,0,1-9.18-1.73,8,8,0,0,1-3.48-2.79,4.85,4.85,0,0,1-.92-2.36c0-1.32,1.68-1.68,2.69-1.78,0.77-.08,1.71,1,2.29,1.43s1.06,0.93,1.59,1.39,1.23,0.84,1.8,1.3a5.63,5.63,0,0,0,.75.61,3.73,3.73,0,0,0,.69.4,0.73,0.73,0,0,0,.58-0.51c0.4-.7-1.17-1.23-1.58-1.56-0.83-.66-1.68-1.26-2.48-2-1.16-1-2.38-2.35-4-2.18-1.14.12-3,.72-3.31,2.05a3.89,3.89,0,0,0,.09,2.14,6.92,6.92,0,0,0,1.26,2.21c2.71,2.65,6,3.73,9.74,4.22,4.7,0.62,9.6.3,14.33,0.3h0c3.87,0,7.91-.33,11.74.16a12.75,12.75,0,0,0,5.56-.65,17.19,17.19,0,0,0,5.12-2.45A5,5,0,0,0,749.91,2293.9Z" transform="translate(-683.72 -2268.69)"/><path class="cls-2" d="M739.79,2297.77c-0.21-1-.78-2-1.08-3-0.22-.72-1.6-0.52-2.1-0.59-2.59-.36-5.24-0.05-7.83-0.39s-5.59,0-8.34-.13c-1.48-.09-3,0-4.47,0-1.32,0-2.71-.18-4-0.09a0.57,0.57,0,0,0-.56.56v0.09a0.61,0.61,0,0,0,0,.11,0.62,0.62,0,0,0,0,.08c0,1.09-.95,2-0.79,3.13,0.11,0.76,1.42.61,1.9,0.58a46.9,46.9,0,0,1,5,.23c1.6,0.1,3.22,0,4.81.19a90.24,90.24,0,0,0,9.31.41c1.46,0,3-.11,4.41-0.21,0.71-.05,1.4-0.16,2.12-0.16a2.32,2.32,0,0,0,1.37-.17A0.57,0.57,0,0,0,739.79,2297.77Zm-2.11-.32c-0.7,0-1.35.14-2,.19-1.13.08-2.31,0.19-3.45,0.19-2.89,0-5.77-.21-8.64-0.29-2.66-.07-5.33-0.43-8-0.46-1.16,0-2.32-.14-3.49-0.07-0.64,0-.07-0.72.06-1.08a5.78,5.78,0,0,0,.36-1.28c0.85,0,1.72.11,2.56,0.11H719c2.65,0,5.31.09,8,.09,2.47,0,5,.11,7.5.3,1.08,0.08,2.16.21,3.24,0.25l0.06,0.23,0.29,0.71c0.14,0.35.35,0.77,0.5,1.17C738.23,2297.51,737.87,2297.45,737.67,2297.45Z" transform="translate(-683.72 -2268.69)"/><path class="cls-2" d="M738.56,2294.35a2.32,2.32,0,0,1-.08-0.3,7.23,7.23,0,0,0-.19-0.93,21.52,21.52,0,0,1-.73-2.2,7.75,7.75,0,0,0-1-2.06,7.13,7.13,0,0,1-.46-1.21,4.9,4.9,0,0,0-.71-1c-0.88-1.17-1.59-2.17-3.14-2.25-1.89-.1-3.82,1.12-5.55,1.69-2.08.7-4.2-1.59-6.21-1.83a8.43,8.43,0,0,0-5.56.85c-1.28.8-1.87,2.85-2.38,4.18a15.37,15.37,0,0,0-1.41,5.07,0.56,0.56,0,0,0,1.11,0,13.1,13.1,0,0,1,1.09-4c0.54-1.51,1.09-3.64,2.53-4.54,1.62-1,4.44-.71,6,0.11a8.8,8.8,0,0,0,4.54,1.34c1.41-.14,2.86-1,4.21-1.46s2.4-.54,3.15.64a12.05,12.05,0,0,1,1.38,1.79c0.85,2.14,2,4.3,2.29,6.6a0.53,0.53,0,0,0,.39.39H738A0.6,0.6,0,0,0,738.56,2294.35Z" transform="translate(-683.72 -2268.69)"/><path class="cls-2" d="M728.73,2287.21a4.07,4.07,0,0,1-2.18,1.13c-0.6,0-1.19,0-1.79,0a8.79,8.79,0,0,1-3.06-.85,2.43,2.43,0,0,1-.91-1c-0.45-.56-1.23.23-0.79,0.79a3.66,3.66,0,0,0,1.58,1.39,10.84,10.84,0,0,0,3.18.81,5.79,5.79,0,0,0,4.76-1.46C730.08,2287.55,729.29,2286.77,728.73,2287.21Z" transform="translate(-683.72 -2268.69)"/><path class="cls-2" d="M732.45,2315a23.32,23.32,0,0,1-2.73,5.58,9.76,9.76,0,0,1-5.61,3.59c-2.31.28-3.75-2.94-4.89-4.37a29.07,29.07,0,0,1-1.89-2.77c-0.52-.82-1.81-1.88-1.85-2.88a0.56,0.56,0,0,0-1.11,0,3.77,3.77,0,0,0,1.18,2.34c0.93,1,1.46,2.34,2.32,3.41,1.63,2,2.71,4.28,5.27,5.31,2.07,0.83,4.73-1.49,6.15-2.67a10.13,10.13,0,0,0,2.52-3.24c0.66-1.25,1.05-2.47,1.6-3.76C733.7,2314.91,732.74,2314.34,732.45,2315Z" transform="translate(-683.72 -2268.69)"/><path class="cls-2" d="M728.38,2317.3c-2.14.94-5.74,1.4-7.5-.56-0.48-.54-1.27.25-0.79,0.79,2.12,2.37,6.24,1.88,8.85.74C729.6,2318,729,2317,728.38,2317.3Z" transform="translate(-683.72 -2268.69)"/><path class="cls-2" d="M725.82,2321c-0.68.13-2.12,0.35-2.62-.3s-1.4,0-1,.56c0.88,1.16,2.59,1.06,3.88.81C726.82,2321.9,726.53,2320.83,725.82,2321Z" transform="translate(-683.72 -2268.69)"/><path class="cls-2" d="M714.53,2315.9a5.38,5.38,0,0,0-4.19,3,6.47,6.47,0,0,0-.63,3.46V2323l-0.25.05a13.51,13.51,0,0,0-1.94.26,14.48,14.48,0,0,1-2,.18c-0.33,0-.06-0.54,0-1a11.36,11.36,0,0,1,1.13-4.55c1.46-2.52,4.38-3.3,7-3.74,0.71-.12.41-1.19-0.3-1.07a14.33,14.33,0,0,0-3.85,1,11.3,11.3,0,0,0-3.27,2.59,6.11,6.11,0,0,0-1.56,3.55,13.56,13.56,0,0,0-.35,3.86c0.16,0.88,1.9.44,2.39,0.41,0.77,0,1.52-.26,2.3-0.3a2.71,2.71,0,0,0,1.47-.25,0.94,0.94,0,0,0,.31-0.75c0.15-1.15-.24-2.28.28-3.38a4.64,4.64,0,0,1,3.43-2.85C715.23,2316.92,715.24,2315.81,714.53,2315.9Z" transform="translate(-683.72 -2268.69)"/><path class="cls-2" d="M742.46,2321.33a10.26,10.26,0,0,0-.74-3.67,6.94,6.94,0,0,0-2.91-2.52,10.93,10.93,0,0,0-3.73-1.31c-0.7-.14-1,0.93-0.3,1.07,2.43,0.48,5.33,1.6,6.3,4.09a12.54,12.54,0,0,1,.35,3.17,10.1,10.1,0,0,1-.42,2.69c-0.32-.06-0.69-0.2-0.92-0.26a16.06,16.06,0,0,1-1.76-.44c-0.69-.26-0.87,0-0.59-0.84a7.5,7.5,0,0,0,.18-2.16,4.39,4.39,0,0,0-3.76-4.54c-0.7-.12-1,1-0.3,1.07,1.26,0.21,2.83,1.35,3,2.7a14.31,14.31,0,0,1-.06,2c0,0.69-.44,1.25-0.43,1.93,0,1,1.83,1,2.44,1.19a7.33,7.33,0,0,0,2.9.46,0.55,0.55,0,0,0,.41-0.54,16,16,0,0,1,.44-2.17A7.79,7.79,0,0,0,742.46,2321.33Z" transform="translate(-683.72 -2268.69)"/><path class="cls-2" d="M718.84,2321.07a5,5,0,0,0-.21,1.22c0,0.1-.29,1-0.36,1.42l-0.22,0a16.62,16.62,0,0,1-2.1-.22c-0.53-.12-1.1-0.14-1.63-0.23l-0.07,0a2.43,2.43,0,0,0,.22-0.69,18.52,18.52,0,0,1,.36-2.83,26.27,26.27,0,0,1,.74-3.71,0.56,0.56,0,0,0-1.07-.3c-0.49,1.59-.41,3.36-1,4.91a4.94,4.94,0,0,0-.17,1.46,12.08,12.08,0,0,0-.24,1.8,0.53,0.53,0,0,0,.39.39c0.85,0.12,1.74.2,2.58,0.39a6.63,6.63,0,0,0,.86.18,3.28,3.28,0,0,1,1.37.06,0.54,0.54,0,0,0,.56,0c0.54-.4.35-0.83,0.52-1.43a3.64,3.64,0,0,0,.36-1.15,3.81,3.81,0,0,1,.17-0.92A0.56,0.56,0,0,0,718.84,2321.07Z" transform="translate(-683.72 -2268.69)"/><path class="cls-2" d="M735.05,2323.49a14.3,14.3,0,0,1-.56-3.63,8,8,0,0,0-1.07-3.93c-0.43-.57-1.39,0-1,0.56a4.93,4.93,0,0,1,.76,2.69,20.47,20.47,0,0,0,.58,3.86c0.22,0.88.52,0.74-.39,0.85a15.55,15.55,0,0,1-1.83,0h-0.86c-0.53,0-.35.41-0.41-0.23a19.82,19.82,0,0,1-.24-2.09,0.56,0.56,0,0,0-1.11,0c0,0.87-.21,3.44,1.11,3.44h2.67a4.59,4.59,0,0,0,2.17-.26A1,1,0,0,0,735.05,2323.49Z" transform="translate(-683.72 -2268.69)"/><path class="cls-2" d="M731.34,2324.69c-0.27-.66-1.35-0.37-1.07.3,0.14,0.35,0,.82.49,0.79-0.28,0-.56.06-0.84,0.1a9.22,9.22,0,0,1-1.39.18H727.1l-0.56,0c-0.42,0-.33-0.16-0.08.18a0.6,0.6,0,0,0-.79-0.16l-0.12,0a0.53,0.53,0,0,0-.32-0.1c-0.85,0-1.7-.07-2.56-0.11a2.35,2.35,0,0,0-1.51.2,0.54,0.54,0,0,0-.3-0.09c-0.61,0-1.22-.22-1.83-0.26-0.28,0-.56-0.07-0.84-0.09a2.28,2.28,0,0,0-.31,0c0-.15.08-0.33,0.09-0.44,0-.27,0-0.54,0-0.81a0.56,0.56,0,0,0-1.11,0c0,0.65-.46,2.32.64,2.36a13.35,13.35,0,0,1,1.58.08,15.76,15.76,0,0,0,1.61.24,1.67,1.67,0,0,0,1,1.82,7.56,7.56,0,0,0,3.88-.09,1.18,1.18,0,0,0,.71-1.25c0-.11,0-0.22,0-0.33a12,12,0,0,0,2.58,0,9.35,9.35,0,0,0,2.18-.3C731.87,2326.63,731.56,2325.25,731.34,2324.69Zm-6.48,3.08a21.1,21.1,0,0,1-2.52.11c-0.42,0-.45-0.14-0.48-0.5,0-.52,0-0.46.53-0.44,0.9,0,1.8.12,2.7,0.12h0a1.08,1.08,0,0,0,0,.18C725.14,2327.54,725.19,2327.76,724.86,2327.78Z" transform="translate(-683.72 -2268.69)"/><path class="cls-2" d="M721.62,2329.29a5.44,5.44,0,0,0-.85-1,5.29,5.29,0,0,0-1.11-1.14c-0.55-.26-1.05-0.61-1.6-0.85a0.52,0.52,0,0,0-.68-0.51,9.41,9.41,0,0,0-4.74,2.92c-1.22,1.46-1.48,3.73-1.54,5.58,0,0.46,0,1.66.49,1.91a6.41,6.41,0,0,0,2.68.25,39.57,39.57,0,0,0,5.72,0,0.55,0.55,0,0,0,.41-0.54,35.5,35.5,0,0,1-.19-3.74c0-1.1.64-1.32,1.25-2A0.84,0.84,0,0,0,721.62,2329.29Zm-2.13,1.25a4,4,0,0,0-.39,2.56,22.7,22.7,0,0,0,.14,2.3,16.53,16.53,0,0,1-3.11.07c-0.79-.06-1.56-0.14-2.35-0.14a10.94,10.94,0,0,1-1.37,0c-0.33,0-.21-0.74-0.21-1a8.29,8.29,0,0,1,1.44-5.06,7.37,7.37,0,0,1,3.25-2.1l0.16,0c1,0.06,2,1.11,2.69,1.7a4.48,4.48,0,0,0,.76.71A12.88,12.88,0,0,0,719.5,2330.54Z" transform="translate(-683.72 -2268.69)"/><path class="cls-2" d="M735.83,2329.49a4,4,0,0,0-1.59-1.59,14,14,0,0,0-2.81-1.69,0.52,0.52,0,0,0-.59-0.23,14,14,0,0,0-4.8,2.46,0.56,0.56,0,0,0,.11.87c1,0.56,2.93,1.14,3,2.58a9.91,9.91,0,0,1-.82,3.29,0.56,0.56,0,0,0,.14.54,2.09,2.09,0,0,0,1.6.26,26.61,26.61,0,0,1,3,.19,27.83,27.83,0,0,0,3.06.19,0.81,0.81,0,0,0,.93-0.65A13.7,13.7,0,0,0,735.83,2329.49Zm-3.08,5.5c-0.57,0-1.19-.12-1.76-0.12-0.22,0-1,0-1.41,0a6.4,6.4,0,0,0,.64-3.52c-0.26-1.33-1.55-2-2.72-2.62a12.93,12.93,0,0,1,3.36-1.62,0.6,0.6,0,0,0,.17.1,8.07,8.07,0,0,1,3.94,3.09,12.23,12.23,0,0,1,1,4.91c-0.29,0-.58-0.05-0.87-0.09C734.31,2335.06,733.51,2335,732.75,2335Z" transform="translate(-683.72 -2268.69)"/><path class="cls-2" d="M722.72,2328.46a0.56,0.56,0,0,0-.56-0.56,2.21,2.21,0,0,0-.86.32,1.65,1.65,0,0,0-.74.4,0.56,0.56,0,0,0,.79.79l0,0,0.09-.06c0.06,0,.08,0,0,0l0.06,0,0.11,0a1.82,1.82,0,0,0,.36-0.18l0.13-.06s0.13,0,0,0A0.57,0.57,0,0,0,722.72,2328.46Z" transform="translate(-683.72 -2268.69)"/><path class="cls-2" d="M726.79,2328.59a1,1,0,0,0-.73-0.59,2.21,2.21,0,0,0-.74-0.19,0.56,0.56,0,0,0-.56.56v0.09a0.54,0.54,0,0,0,.71.52l0.17,0.06,0.05,0,0.1,0,0,0a0.58,0.58,0,0,0,.55.16A0.57,0.57,0,0,0,726.79,2328.59Z" transform="translate(-683.72 -2268.69)"/><path class="cls-2" d="M718.28,2335.93c-0.19,1.31-3.26,1.43-4.17,1.46s-1.51-.11-2.27-0.11c-1.71,0,.32-0.59.85-0.65,0.7-.08.71-1.2,0-1.11s-2.7.45-3,1.49c-0.33,1.2,1.33,1.39,2.14,1.39a21.24,21.24,0,0,0,4.8-.21c0.93-.21,2.55-0.88,2.71-2C719.46,2335.52,718.39,2335.22,718.28,2335.93Z" transform="translate(-683.72 -2268.69)"/><path class="cls-2" d="M738.33,2336.33c-0.27-.19-1.46-0.46-1.57-0.63a0.56,0.56,0,0,0-1,.56,1.25,1.25,0,0,0,1,.57,3.41,3.41,0,0,1,.8.31s-0.8.07-1,0c-1.05-.12-2.13-0.14-3.17-0.32s-2.21-.87-3.33-0.8c0.71,0,.72-1.16,0-1.11s-1.68,1.26-.67,1.81a15.06,15.06,0,0,0,6,1.42c0.78,0.05,3.13.76,3.39-.57A1.14,1.14,0,0,0,738.33,2336.33Z" transform="translate(-683.72 -2268.69)"/><path class="cls-2" d="M710.21,2322.82c-0.72-.06-0.71,1.05,0,1.11a2.58,2.58,0,0,1,1.24.33c0.43,0.37.31,0.76-.29,0.76a0.94,0.94,0,0,0-1,.91,2.24,2.24,0,0,0,.13.93c0.27,1-1.68.87-2,.77a2.78,2.78,0,0,1-1.94-3.15,0.56,0.56,0,0,0-1.11,0,3.92,3.92,0,0,0,2.23,4c1.3,0.6,3.43.51,4-1a2.08,2.08,0,0,0,0-.94c-0.08-.54-0.34-0.33.21-0.45a1.55,1.55,0,0,0,1.26-1.14C713.41,2323.52,711.21,2322.91,710.21,2322.82Z" transform="translate(-683.72 -2268.69)"/><path class="cls-2" d="M729.3,2301.06a12.69,12.69,0,0,0,6,4.09c3.78,1.1,5.36.38,5.36,0.38l0-1s-1.88.7-5.21-.65-3.94-2.85-3.94-2.85Z" transform="translate(-683.72 -2268.69)"/><path class="cls-2" d="M734,2301.15s1.87,2.5,3.63,2.67a10.14,10.14,0,0,0,2.91-.08s-2.42.49-3.7-.71a4.42,4.42,0,0,1-1.43-1.92Z" transform="translate(-683.72 -2268.69)"/><path class="cls-2" d="M724.57,2300.84s-1.66,3.21-6.92,5.35-8.54,1-8.54,1l0-.92s4.62,0.74,8.06-.79a15.6,15.6,0,0,0,5.57-4,4.71,4.71,0,0,0,.57-1.15Z" transform="translate(-683.72 -2268.69)"/><path class="cls-2" d="M718.31,2301.2a11.49,11.49,0,0,1-4.64,2.86,12,12,0,0,1-4.29.76s4-1,5.22-1.82a11.27,11.27,0,0,0,2-1.75Z" transform="translate(-683.72 -2268.69)"/><path class="cls-6" d="M748.2,2309.34c-0.32,0-2.68-1.13-2.57-.5s1.24,2.51,1.61,2.27A6.18,6.18,0,0,0,748.2,2309.34Z" transform="translate(-683.72 -2268.69)"/><path class="cls-2" d="M747.17,2311.52h0c-0.81,0-1.83-2.1-1.92-2.62a0.54,0.54,0,0,1,.11-0.45,0.63,0.63,0,0,1,.51-0.2,6.27,6.27,0,0,1,1.77.49c0.23,0.08.51,0.19,0.6,0.21l0.53,0-0.19.5a5.33,5.33,0,0,1-1.11,2A0.53,0.53,0,0,1,747.17,2311.52Zm-1.06-2.45a5.92,5.92,0,0,0,1,1.6,6.8,6.8,0,0,0,.55-1.08l-0.31-.11A11.3,11.3,0,0,0,746.12,2309.07Z" transform="translate(-683.72 -2268.69)"/><path class="cls-6" d="M757.34,2313c0.14,0,5.74,2.9,3.79,3s-4.55.32-4.58-.65A5.58,5.58,0,0,1,757.34,2313Z" transform="translate(-683.72 -2268.69)"/><path class="cls-2" d="M758.8,2316.45c-0.78,0-2.6,0-2.64-1.12a5.9,5.9,0,0,1,.85-2.56l0.14-.23,0.27,0.05a21.32,21.32,0,0,1,2.29,1.21c2.1,1.24,2.25,1.69,2.23,2a0.66,0.66,0,0,1-.78.56l-0.49,0C760,2316.42,759.4,2316.45,758.8,2316.45Zm-1.29-3a4.45,4.45,0,0,0-.57,1.82s0,0.36,1.86.36c0.58,0,1.21,0,1.83-.06l0.34,0A22.9,22.9,0,0,0,757.51,2313.48Z" transform="translate(-683.72 -2268.69)"/><path class="cls-6" d="M753.13,2307.33c0.08-.42.9-3.14,1.53-2.34s0.38,3,.38,3l-2-.38" transform="translate(-683.72 -2268.69)"/><path class="cls-2" d="M755.37,2308.42L753,2308l0.12-.62-0.38-.08s0.59-2.56,1.51-2.78a0.68,0.68,0,0,1,.71.28c0.71,0.91.49,3,.46,3.25Zm-1.83-1.16,1.13,0.22a4.45,4.45,0,0,0-.3-2.2A6.47,6.47,0,0,0,753.55,2307.26Z" transform="translate(-683.72 -2268.69)"/><path class="cls-7" d="M748.12,2316.16s-18.49,13.63-18.4,14.6,1.8,2.34,2.38,2.18,17.43-15.55,17.43-15.55Z" transform="translate(-683.72 -2268.69)"/><path class="cls-2" d="M732,2333.35h0a3.59,3.59,0,0,1-2.67-2.55c0-.35-0.07-0.82,9.32-8,4.56-3.49,9.19-6.91,9.24-6.94l0.25-.19,2,1.73-0.32.29s-4.26,3.89-8.5,7.72c-8.64,7.8-8.91,7.87-9.09,7.92Zm-1.88-2.54a3.21,3.21,0,0,0,1.86,1.76c0.94-.63,10.48-9.25,17-15.16l-0.84-.74C741.37,2321.63,730.86,2329.62,730.11,2330.8Z" transform="translate(-683.72 -2268.69)"/><path class="cls-6" d="M748.12,2316.16s-3-2.84.4-6.76,8.38-1,9.78,1.17a5.07,5.07,0,0,1-1.75,7.24,6.79,6.79,0,0,1-7-.42Z" transform="translate(-683.72 -2268.69)"/><path class="cls-2" d="M753.49,2319a7.24,7.24,0,0,1-4.23-1.32l-1.4-1.23c-1.14-1.08-2.51-4,.36-7.31a5.58,5.58,0,0,1,4.3-2.06,8,8,0,0,1,6.11,3.27,5.68,5.68,0,0,1,.76,4.35,5.37,5.37,0,0,1-2.64,3.44A6.42,6.42,0,0,1,753.49,2319Zm-1-11.14a4.76,4.76,0,0,0-3.7,1.79c-3.11,3.6-.54,6.11-0.42,6.22l1.39,1.22a6.46,6.46,0,0,0,3.71,1.12,5.65,5.65,0,0,0,2.86-.75,4.58,4.58,0,0,0,2.27-2.95,4.89,4.89,0,0,0-.65-3.74A7.29,7.29,0,0,0,752.51,2307.87Z" transform="translate(-683.72 -2268.69)"/><path class="cls-6" d="M749.83,2310.25c0.07-.13-1.7-5.66-0.74-5.06s3.29,4,3.29,4a2.86,2.86,0,0,1-1.47,1.07Z" transform="translate(-683.72 -2268.69)"/><path class="cls-2" d="M749.15,2310.66l0.28-.49c0-.17-0.13-0.52-0.22-0.86-0.8-3-.94-4-0.64-4.36a0.54,0.54,0,0,1,.74-0.09c1,0.63,3.16,3.72,3.4,4.07l0.16,0.24-0.18.23a3,3,0,0,1-1.78,1.22l-1.08,0Zm0.06-4.87a30.57,30.57,0,0,0,.75,3.32c0.09,0.33.15,0.57,0.19,0.74h0.75a2,2,0,0,0,1-.7A29.37,29.37,0,0,0,749.21,2305.8Z" transform="translate(-683.72 -2268.69)"/><path class="cls-6" d="M755.5,2309.48s5.11-2.41,5.74-1.49-4.15,3.65-4.15,3.65A9.6,9.6,0,0,1,755.5,2309.48Z" transform="translate(-683.72 -2268.69)"/><path class="cls-2" d="M757,2312.14l-0.21-.23a7.49,7.49,0,0,1-1.7-2.39l0-.27,0.25-.12c0.15-.07,3.7-1.74,5.3-1.74a1.06,1.06,0,0,1,.93.38,0.75,0.75,0,0,1,.1.61c-0.28,1.21-3.7,3.22-4.38,3.61Zm-1-2.46a13.61,13.61,0,0,0,1.17,1.47c2.17-1.27,3.67-2.53,3.73-2.94a0.79,0.79,0,0,0-.28,0A16.82,16.82,0,0,0,756,2309.68Z" transform="translate(-683.72 -2268.69)"/><path class="cls-6" d="M755.92,2316.9s2.9,4.78,1.67,4.21-4.47-4.25-3.8-4.41A6.42,6.42,0,0,1,755.92,2316.9Z" transform="translate(-683.72 -2268.69)"/><path class="cls-2" d="M757.76,2321.55a0.79,0.79,0,0,1-.34-0.08c-1.12-.52-4.21-3.75-4.12-4.7a0.5,0.5,0,0,1,.39-0.45,2.22,2.22,0,0,1,.53-0.05,8.89,8.89,0,0,1,1.8.26l0.16,0,0.08,0.14c2.35,3.88,2.05,4.42,2,4.59A0.51,0.51,0,0,1,757.76,2321.55Zm-3.58-4.5a15.09,15.09,0,0,0,3.21,3.49,25.67,25.67,0,0,0-1.72-3.29,7.57,7.57,0,0,0-1.45-.2h0Z" transform="translate(-683.72 -2268.69)"/><path class="cls-6" d="M748.91,2314.39c-0.3,0-5.95,1.11-5.07.21s3.74-2.4,4.32-2A3.2,3.2,0,0,1,748.91,2314.39Z" transform="translate(-683.72 -2268.69)"/><path class="cls-2" d="M744.41,2315.34a1,1,0,0,1-1-.39,0.55,0.55,0,0,1,.17-0.63,9.21,9.21,0,0,1,4.33-2.19,0.87,0.87,0,0,1,.5.13,3.32,3.32,0,0,1,.91,2.07l0.06,0.48-0.46,0-0.86.13A28.84,28.84,0,0,1,744.41,2315.34Zm3.48-2.42a8.73,8.73,0,0,0-3.41,1.64,30.72,30.72,0,0,0,3.42-.42l0.55-.09a2.2,2.2,0,0,0-.5-1.12h-0.07Z" transform="translate(-683.72 -2268.69)"/><path class="cls-6" d="M751.34,2312.75s-0.25,5.49.19,4.38,2.26-4.16,1.54-4.32A6.72,6.72,0,0,0,751.34,2312.75Z" transform="translate(-683.72 -2268.69)"/><path class="cls-2" d="M751.43,2317.67h0a0.43,0.43,0,0,1-.31-0.13c-0.12-.13-0.37-0.39-0.17-4.81l0-.34,0.34,0s0.34,0,.75,0a5.21,5.21,0,0,1,1.1.1,0.58,0.58,0,0,1,.4.32c0.26,0.54-.24,1.62-1.1,3.34-0.23.47-.45,0.91-0.57,1.2A0.52,0.52,0,0,1,751.43,2317.67Zm0.29-4.56c0,1-.06,2-0.05,2.82l0.1-.2a13.29,13.29,0,0,0,1.09-2.57,5.07,5.07,0,0,0-.8-0.06h-0.34Z" transform="translate(-683.72 -2268.69)"/><path class="cls-2" d="M734.65,2330.66a0.23,0.23,0,0,1-.19-0.09l-1.29-1.72a0.24,0.24,0,1,1,.38-0.28l1.29,1.72A0.24,0.24,0,0,1,734.65,2330.66Z" transform="translate(-683.72 -2268.69)"/><path class="cls-2" d="M735.64,2329.9a0.23,0.23,0,0,1-.16-0.07,10.64,10.64,0,0,1-1.26-1.45,0.24,0.24,0,0,1,.38-0.27,10.17,10.17,0,0,0,1.2,1.38A0.24,0.24,0,0,1,735.64,2329.9Z" transform="translate(-683.72 -2268.69)"/><path class="cls-2" d="M737.66,2328.38a0.23,0.23,0,0,1-.17-0.08,5.89,5.89,0,0,1-1.2-2,0.24,0.24,0,1,1,.44-0.16,5.42,5.42,0,0,0,1.1,1.82A0.24,0.24,0,0,1,737.66,2328.38Z" transform="translate(-683.72 -2268.69)"/><path class="cls-8" d="M738.45,2328.74c-2.3.88-3.3-.85-3.68-2.59s0.74-3.62,2.46-3.62,1.63,1.87,2.81,1.72,2.31,0.15,2.2.73C741.93,2326.6,740.75,2327.86,738.45,2328.74Z" transform="translate(-683.72 -2268.69)"/><path class="cls-2" d="M737.3,2329.45c-1.48,0-2.54-1.14-3-3.2a3.72,3.72,0,0,1,.71-3.1,2.81,2.81,0,0,1,2.21-1.09,2.4,2.4,0,0,1,2.06,1.2,0.79,0.79,0,0,0,.69.52,5.14,5.14,0,0,1,.66,0,2.62,2.62,0,0,1,1.87.6,0.87,0.87,0,0,1,.19.72c-0.35,1.85-1.69,3.19-4.08,4.11A3.72,3.72,0,0,1,737.3,2329.45Zm-0.07-6.45a1.88,1.88,0,0,0-1.48.74,2.81,2.81,0,0,0-.52,2.31c0.24,1.12.8,2.46,2.07,2.46a2.79,2.79,0,0,0,1-.21c2-.78,3.19-1.89,3.49-3.37a1.93,1.93,0,0,0-1.13-.25,4.23,4.23,0,0,0-.54,0H739.9a1.73,1.73,0,0,1-1.37-.9A1.51,1.51,0,0,0,737.23,2323Z" transform="translate(-683.72 -2268.69)"/><path class="cls-2" d="M723.7,2312.44c-3.6,0-4.56-1.68-4.61-1.77a0.47,0.47,0,0,1,.82-0.46s1.22,1.9,6.12,1.07c5.9-1,6.43-5.42,6.43-5.46a0.47,0.47,0,0,1,.51-0.43,0.47,0.47,0,0,1,.43.51c-0.12,1.43-1.65,5.36-7.21,6.31A14.85,14.85,0,0,1,723.7,2312.44Z" transform="translate(-683.72 -2268.69)"/></svg>